<?xml version="1.0" standalone="no"?>
<!DOCTYPE svg PUBLIC "-//W3C//DTD SVG 20010904//EN"
 "http://www.w3.org/TR/2001/REC-SVG-20010904/DTD/svg10.dtd">
<svg version="1.0" xmlns="http://www.w3.org/2000/svg"
 width="2500.000000pt" height="2500.000000pt" viewBox="0 0 2500.000000 2500.000000"
 preserveAspectRatio="xMidYMid meet">
<metadata>
Created by potrace 1.14, written by Peter Selinger 2001-2017
</metadata>
<g transform="translate(0.000000,2500.000000) scale(0.100000,-0.100000)"
fill="#000000" stroke="none">
<path d="M10973 23483 c10 -16 -18 -24 -33 -10 -10 9 -11 9 -6 0 5 -10 -6 -12
-44 -9 -28 1 -53 -1 -56 -5 -2 -4 -18 -4 -34 1 -17 5 -32 5 -35 0 -3 -5 -13
-6 -22 -3 -12 5 -15 2 -11 -9 4 -9 0 -15 -8 -15 -8 0 -13 6 -10 13 4 9 -1 9
-21 -1 -13 -7 -37 -11 -51 -9 -31 5 -32 5 -92 0 -25 -2 -55 -5 -68 -5 -14 -1
-21 -5 -16 -12 3 -6 -5 -3 -20 6 -21 14 -25 14 -21 3 4 -9 0 -15 -10 -15 -8 0
-15 5 -15 11 0 6 -5 3 -11 -8 -9 -15 -13 -16 -21 -5 -7 11 -11 11 -15 1 -2 -6
-9 -9 -14 -6 -6 3 -17 0 -26 -8 -15 -11 -16 -11 -9 7 6 18 5 17 -17 -3 -18
-17 -27 -20 -32 -11 -6 8 -4 10 5 4 9 -5 11 -4 6 4 -6 8 -12 9 -20 2 -7 -6
-27 -12 -45 -14 -18 -2 -37 -10 -42 -18 -7 -12 -9 -11 -9 1 0 9 -9 16 -19 16
-11 0 -19 -3 -18 -7 1 -4 -1 -6 -4 -5 -3 0 -13 -5 -22 -13 -14 -11 -17 -11
-17 0 0 10 -3 10 -12 1 -16 -16 -31 -15 -22 1 6 9 5 9 -8 0 -8 -7 -19 -9 -24
-5 -4 4 -2 -2 6 -12 14 -18 14 -19 -7 -8 -14 8 -24 9 -28 2 -4 -6 -13 -7 -24
-1 -11 6 -22 6 -32 -1 -11 -8 -11 -9 3 -4 10 3 20 0 24 -7 4 -7 4 -9 0 -5 -5
4 -19 3 -33 -3 -17 -6 -22 -6 -17 3 7 12 -8 5 -35 -16 -18 -14 -61 -16 -61 -2
0 6 -5 3 -11 -6 -5 -10 -18 -18 -27 -18 -10 0 -24 -6 -31 -12 -11 -10 -13 -10
-7 0 4 6 3 12 -3 12 -5 0 -12 -6 -14 -12 -4 -10 -8 -9 -16 2 -8 12 -11 12 -11
1 0 -8 -7 -11 -19 -8 -14 3 -18 1 -14 -9 3 -9 -2 -12 -16 -9 -12 2 -21 -1 -21
-6 0 -6 -4 -7 -10 -4 -5 3 -10 2 -10 -2 0 -5 -9 -10 -20 -11 -44 -4 -50 -6
-50 -15 0 -5 -8 -3 -17 4 -10 7 -15 9 -11 5 14 -16 -12 -37 -32 -26 -13 7 -21
6 -26 -2 -5 -7 -3 -8 6 -3 9 5 11 4 6 -4 -4 -6 -12 -9 -17 -5 -6 3 -17 -2 -25
-12 -9 -11 -13 -13 -9 -6 3 6 1 12 -5 12 -6 0 -13 -6 -16 -14 -4 -12 -12 -13
-31 -5 -23 9 -25 8 -13 -6 7 -9 9 -15 4 -14 -25 4 -54 -2 -49 -11 3 -5 2 -10
-4 -10 -5 0 -12 6 -14 13 -4 8 -6 6 -6 -4 -1 -11 -9 -15 -27 -13 -18 2 -24 -2
-20 -11 3 -10 -2 -12 -20 -9 -13 2 -24 0 -24 -6 0 -6 -4 -8 -10 -5 -5 3 -10 1
-10 -5 0 -6 -4 -8 -10 -5 -5 3 -10 1 -10 -5 0 -6 -11 -8 -25 -6 -15 3 -24 0
-22 -7 1 -7 -4 -11 -10 -9 -7 1 -13 -2 -13 -8 0 -5 -6 -7 -14 -4 -7 3 -16 -2
-19 -10 -4 -9 -11 -16 -17 -16 -6 0 -8 6 -4 13 5 8 3 8 -9 -2 -9 -7 -14 -18
-10 -24 4 -6 1 -7 -8 -1 -26 16 -40 14 -29 -5 8 -15 5 -17 -20 -16 -19 1 -36
-7 -55 -27 -15 -15 -35 -28 -46 -28 -10 0 -28 -9 -38 -19 -11 -11 -22 -17 -25
-13 -3 3 -6 0 -6 -6 0 -6 -7 -9 -17 -5 -9 4 -14 2 -10 -3 3 -6 -3 -15 -14 -22
-15 -10 -19 -10 -20 0 0 7 -5 2 -10 -12 -8 -20 -12 -22 -19 -10 -7 11 -10 8
-10 -15 0 -24 -2 -27 -11 -15 -8 11 -12 12 -16 2 -2 -6 -10 -9 -16 -5 -7 4 -8
0 -3 -12 5 -15 4 -16 -9 -5 -13 11 -14 10 -9 -4 4 -9 3 -16 -2 -15 -21 4 -35
-2 -29 -11 3 -5 -3 -10 -15 -10 -12 0 -18 -4 -15 -10 3 -5 -3 -10 -15 -10 -12
0 -19 -3 -17 -7 3 -5 -1 -14 -9 -21 -8 -7 -14 -10 -14 -7 0 3 -9 -4 -20 -15
-12 -12 -26 -18 -33 -13 -8 4 -7 1 1 -10 12 -14 11 -16 -7 -12 -12 2 -20 -1
-18 -8 1 -7 -4 -11 -10 -9 -12 2 -17 -11 -14 -31 1 -5 -3 -6 -8 -3 -15 10 -43
-5 -37 -20 3 -8 -1 -14 -9 -14 -8 0 -15 -8 -15 -17 0 -15 -2 -16 -10 -3 -7 11
-10 12 -10 2 0 -20 -28 -44 -41 -36 -7 4 -9 3 -5 -4 3 -6 0 -17 -8 -25 -8 -8
-12 -17 -9 -21 4 -3 -1 -6 -10 -6 -10 0 -16 -6 -15 -12 2 -7 -4 -12 -14 -10
-12 2 -16 -4 -14 -22 2 -14 -2 -24 -8 -23 -6 1 -10 -4 -8 -12 3 -12 1 -12 -14
0 -10 8 -15 9 -11 3 4 -6 -3 -20 -15 -30 -22 -20 -53 -82 -49 -98 1 -5 -6 -3
-15 5 -10 8 -15 9 -11 2 4 -6 2 -15 -4 -18 -5 -4 -8 -14 -5 -22 4 -8 1 -11 -5
-8 -6 4 -13 -2 -16 -14 -3 -12 -10 -21 -15 -21 -6 0 -8 -7 -5 -14 3 -8 -6 -28
-21 -44 -15 -16 -26 -37 -24 -48 2 -14 1 -16 -6 -6 -7 11 -11 10 -17 -5 -5
-10 -7 -22 -6 -27 1 -5 -5 -3 -14 4 -14 11 -16 11 -13 -1 2 -9 -6 -14 -23 -14
-17 0 -25 -4 -22 -11 2 -7 -1 -15 -8 -20 -7 -4 -10 -3 -5 4 3 6 -7 17 -24 26
-17 8 -28 10 -25 5 4 -5 1 -9 -4 -9 -6 0 -11 5 -11 10 0 7 -8 6 -22 -1 -22
-11 -22 -11 -8 6 14 16 13 17 -8 11 -15 -5 -22 -3 -22 5 0 7 -3 9 -6 6 -4 -3
-16 -1 -28 5 -20 10 -20 10 -6 -7 14 -17 14 -17 -7 -5 -12 8 -20 17 -18 20 2
4 -2 7 -10 7 -8 0 -11 -5 -8 -11 4 -6 -1 -5 -10 3 -12 9 -17 10 -17 2 0 -7 -5
-9 -10 -6 -6 4 -8 10 -5 15 3 4 -4 6 -15 3 -12 -3 -20 0 -20 7 0 10 -3 10 -14
1 -9 -7 -17 -8 -20 -2 -3 5 -19 8 -35 7 -17 -1 -28 1 -26 4 2 3 0 12 -6 20 -5
8 -9 10 -9 4 0 -14 -71 -7 -99 10 -11 7 -12 6 -6 -5 7 -11 6 -12 -6 -3 -8 6
-27 11 -43 12 -16 1 -36 8 -44 15 -11 8 -14 8 -9 0 11 -18 -49 -10 -72 11 -14
13 -21 14 -27 5 -5 -8 -3 -10 6 -4 9 5 11 4 6 -4 -4 -6 -13 -8 -19 -4 -7 4
-19 8 -27 8 -8 0 -14 7 -12 15 2 11 -2 10 -12 -3 -14 -18 -15 -18 -35 2 -12
12 -21 17 -21 12 0 -10 -76 -8 -86 2 -4 4 -13 2 -20 -4 -8 -7 -14 -7 -19 1 -5
8 -11 7 -23 -2 -9 -8 -13 -8 -9 -2 4 7 0 15 -9 18 -8 3 -12 2 -9 -4 3 -6 2
-10 -4 -10 -5 0 -12 6 -14 13 -3 6 -6 3 -6 -8 -1 -16 -3 -17 -10 -5 -6 8 -8
17 -6 20 2 4 -2 7 -10 7 -12 0 -12 -3 -2 -15 10 -13 9 -14 -8 -4 -15 7 -26 7
-40 -1 -18 -9 -19 -9 -6 6 15 19 1 23 -17 5 -9 -9 -12 -9 -12 1 0 11 -3 11
-15 1 -12 -10 -15 -10 -15 0 0 10 -3 10 -14 1 -10 -8 -16 -9 -21 -1 -4 7 -12
7 -25 0 -24 -13 -40 -13 -20 0 19 12 -49 8 -69 -4 -9 -6 -12 -5 -7 2 4 7 -3
10 -21 8 -16 -1 -34 2 -42 8 -11 8 -13 8 -7 -1 9 -15 9 -15 -32 -4 -20 6 -32
6 -32 0 0 -5 5 -9 12 -9 6 0 8 -3 5 -6 -4 -4 -13 -1 -21 5 -8 7 -23 11 -33 9
-10 -1 -24 1 -30 5 -8 5 -13 4 -13 -2 0 -6 -5 -11 -11 -11 -6 0 -8 8 -5 18 4
11 -1 8 -15 -8 -11 -14 -18 -20 -15 -14 3 7 -1 14 -9 18 -8 3 -15 2 -15 -3 0
-4 -14 -5 -31 -3 -25 4 -30 2 -24 -9 8 -12 6 -12 -8 0 -9 7 -14 18 -10 24 3 6
1 7 -6 3 -6 -4 -9 -12 -6 -17 9 -13 -9 -11 -24 4 -11 10 -12 9 -6 -2 6 -10 2
-11 -15 -6 -17 6 -21 4 -14 -6 6 -11 4 -12 -7 -4 -16 12 -68 13 -86 2 -8 -5
-13 -3 -13 3 0 8 -6 8 -20 0 -14 -8 -20 -8 -20 0 0 7 -6 8 -19 0 -14 -7 -22
-7 -26 0 -4 7 -11 7 -18 2 -16 -13 -49 -12 -66 2 -12 9 -13 8 -8 -7 4 -11 3
-16 -3 -12 -5 3 -19 8 -29 10 -15 3 -18 0 -14 -13 6 -14 4 -15 -8 -5 -12 10
-18 10 -29 0 -10 -9 -11 -9 -6 1 9 15 -10 16 -20 1 -4 -8 -9 -7 -15 2 -7 11
-9 11 -9 1 0 -8 -5 -10 -12 -5 -20 12 -37 12 -45 1 -4 -7 -1 -8 7 -3 9 5 11 4
6 -4 -4 -6 -13 -8 -19 -4 -16 10 -41 10 -48 -1 -4 -4 -16 -3 -27 3 -15 8 -23
8 -28 -1 -4 -6 -3 -8 4 -4 6 3 13 3 16 -2 3 -5 -17 -8 -45 -8 -27 1 -49 -2
-49 -7 0 -4 -9 -3 -20 3 -17 9 -20 8 -20 -7 0 -14 -2 -15 -9 -4 -6 9 -11 10
-15 2 -4 -6 -13 -11 -19 -11 -7 0 -6 4 3 10 9 6 10 10 3 10 -6 0 -15 -5 -18
-10 -4 -6 -11 -8 -16 -5 -5 4 -9 2 -9 -3 0 -5 -11 -7 -25 -4 -14 2 -33 -2 -42
-9 -10 -8 -14 -9 -10 -2 4 6 2 15 -4 19 -8 4 -9 3 -5 -4 4 -7 2 -12 -4 -12 -6
0 -8 -5 -4 -12 5 -9 2 -9 -9 1 -9 7 -17 9 -17 4 0 -4 -18 -8 -40 -7 -21 0 -37
-3 -34 -8 3 -4 0 -8 -5 -8 -6 0 -11 6 -11 13 0 7 -3 8 -8 2 -12 -17 -47 -41
-38 -27 4 6 3 12 -3 12 -5 0 -13 -5 -17 -11 -4 -8 -9 -7 -15 2 -6 10 -9 11 -9
2 0 -7 -9 -13 -21 -13 -13 0 -18 -4 -13 -12 6 -10 4 -10 -8 0 -12 9 -18 10
-23 2 -5 -8 -11 -7 -23 2 -13 11 -14 11 -7 -1 6 -11 4 -13 -9 -8 -11 5 -15 3
-10 -5 5 -8 2 -9 -9 -5 -10 4 -17 1 -17 -6 0 -8 -4 -6 -10 3 -7 12 -10 12 -10
1 0 -7 -6 -11 -15 -7 -10 3 -15 -1 -16 -12 0 -11 -2 -12 -6 -4 -4 10 -8 10
-21 0 -13 -11 -14 -11 -7 2 8 13 6 13 -8 1 -9 -7 -23 -11 -31 -8 -10 4 -13 1
-10 -8 4 -10 -2 -13 -21 -11 -14 2 -33 -3 -41 -11 -8 -8 -14 -11 -14 -7 0 3
-8 0 -17 -7 -11 -10 -14 -10 -9 -1 4 6 2 12 -3 12 -6 0 -11 -5 -11 -10 0 -6
-6 -10 -12 -9 -34 4 -41 0 -27 -18 13 -16 12 -17 -3 -4 -15 11 -21 11 -33 1
-12 -10 -15 -10 -15 1 0 9 -4 8 -12 -3 -7 -9 -26 -18 -43 -20 -16 -1 -33 -7
-36 -12 -4 -5 -21 -9 -38 -10 -28 -1 -29 -2 -14 -14 15 -10 13 -12 -15 -8 -18
2 -32 -1 -32 -6 0 -5 -4 -7 -9 -3 -5 3 -15 -1 -23 -8 -7 -8 -21 -13 -31 -11
-9 1 -15 -2 -11 -7 3 -5 -4 -9 -15 -9 -12 0 -21 -6 -21 -12 0 -9 -4 -8 -10 2
-8 13 -10 12 -10 -2 0 -18 -9 -22 -44 -18 -10 1 -15 -3 -12 -8 3 -6 -1 -13
-10 -16 -8 -3 -12 -2 -9 4 3 6 1 10 -4 10 -6 0 -11 -4 -11 -10 0 -5 -8 -10
-18 -10 -10 0 -25 -9 -35 -20 -18 -21 -43 -28 -31 -8 4 7 3 8 -5 4 -6 -4 -9
-11 -6 -16 4 -7 -47 -31 -57 -27 -2 1 4 -4 12 -12 13 -11 12 -12 -7 -6 -13 3
-23 3 -23 -2 0 -11 -51 -34 -61 -27 -5 3 -6 -1 -4 -9 3 -7 -4 -22 -16 -33 -13
-10 -19 -13 -15 -6 4 6 2 12 -3 12 -6 0 -11 -5 -11 -10 0 -6 -11 -15 -25 -22
-13 -6 -22 -14 -20 -19 3 -4 1 -10 -5 -14 -5 -3 -10 -1 -10 5 0 6 -5 8 -10 5
-6 -4 -8 -11 -5 -16 4 -5 1 -9 -5 -9 -6 0 -8 -6 -5 -12 4 -7 -1 -4 -11 7 -12
14 -15 15 -11 4 5 -16 -27 -52 -37 -42 -6 6 -10 -13 -7 -30 1 -5 -3 -6 -9 -2
-13 8 -42 -20 -32 -30 4 -5 -1 -5 -10 -2 -10 3 -17 3 -17 -1 3 -17 -2 -35 -7
-29 -9 8 -33 -16 -26 -27 3 -5 -3 -6 -13 -2 -16 6 -16 4 -4 -11 9 -11 10 -14
2 -9 -8 4 -13 2 -13 -4 0 -6 -4 -9 -9 -6 -5 3 -11 -4 -14 -15 -3 -12 -10 -18
-16 -15 -5 4 -12 2 -16 -3 -3 -5 3 -15 12 -21 17 -11 17 -11 0 -6 -10 3 -17 0
-17 -8 0 -8 -7 -17 -16 -20 -9 -3 -12 -11 -8 -18 5 -7 2 -9 -8 -5 -22 8 -30
-3 -15 -21 6 -9 8 -13 2 -10 -5 3 -16 0 -23 -8 -7 -8 -10 -14 -5 -14 4 0 -2
-7 -13 -16 -10 -8 -14 -13 -7 -10 7 4 6 -4 -3 -24 -17 -33 -27 -41 -17 -12 3
9 3 14 -2 10 -4 -4 -8 -18 -9 -30 -1 -13 -7 -22 -14 -21 -6 2 -9 -4 -6 -12 4
-8 1 -15 -6 -15 -9 0 -9 -4 1 -17 7 -10 10 -15 5 -11 -5 4 -15 1 -22 -7 -17
-17 -18 -29 -1 -19 6 4 1 -5 -12 -19 -14 -15 -20 -27 -14 -27 6 0 14 6 16 13
4 9 6 9 6 -1 1 -7 -5 -15 -13 -18 -10 -4 -13 -19 -11 -51 2 -28 -1 -40 -6 -32
-5 8 -9 10 -10 4 0 -5 -2 -18 -4 -28 -3 -16 -1 -16 13 -5 15 11 14 10 -1 -8
-19 -22 -23 -39 -7 -29 6 3 7 -1 4 -9 -3 -9 -10 -13 -15 -10 -5 3 -6 -2 -3
-10 3 -9 10 -14 14 -11 13 8 5 -21 -10 -41 -8 -10 -10 -15 -4 -11 7 4 15 0 18
-9 3 -8 2 -12 -3 -9 -5 3 -12 1 -16 -5 -3 -5 -1 -10 6 -10 8 0 7 -5 -2 -17 -8
-9 -9 -14 -4 -11 6 4 10 -16 10 -53 0 -56 -7 -74 -18 -46 -4 9 -6 9 -6 0 -1
-6 4 -15 9 -18 13 -8 13 -45 -1 -45 -6 0 -4 -7 5 -15 15 -16 11 -44 -8 -57 -7
-5 -3 -8 9 -8 11 0 16 -4 10 -8 -5 -4 -17 -16 -25 -27 -14 -18 -14 -19 2 -7
15 12 17 10 16 -17 -1 -17 -4 -28 -9 -26 -9 6 -6 -22 4 -31 10 -10 9 -26 -1
-20 -5 3 -9 -1 -9 -9 0 -8 4 -12 9 -9 10 6 11 -10 1 -19 -10 -11 -13 -57 -2
-57 5 0 9 -5 9 -11 0 -5 -5 -7 -12 -3 -7 5 -8 3 -2 -7 12 -19 16 -51 6 -45 -5
3 -9 -1 -9 -9 0 -8 4 -12 9 -9 10 6 11 -10 1 -20 -10 -10 -12 -56 -1 -50 4 3
5 10 2 16 -4 7 -2 8 5 4 9 -6 8 -14 -4 -33 -10 -14 -12 -22 -6 -19 6 4 11 0
11 -8 0 -9 -5 -16 -12 -16 -6 0 -3 -7 8 -15 19 -14 19 -14 -1 -15 -15 0 -17
-2 -6 -9 8 -5 12 -18 8 -30 -3 -12 0 -21 6 -21 6 0 2 -6 -9 -14 -16 -13 -17
-15 -3 -21 16 -6 19 -31 5 -53 -4 -7 -2 -12 5 -12 8 0 7 -5 -2 -17 -8 -9 -9
-14 -3 -10 15 9 25 -38 11 -52 -8 -8 -8 -11 0 -11 6 0 10 -8 8 -17 -2 -10 -4
-18 -5 -18 -1 0 -3 -12 -4 -28 -1 -15 3 -26 9 -24 12 5 14 -101 2 -120 -6 -9
-3 -11 9 -6 12 4 15 3 10 -5 -12 -19 -16 -53 -5 -47 13 9 11 -9 -3 -24 -10
-11 -10 -13 0 -7 13 8 16 -3 12 -43 -1 -16 2 -21 10 -16 9 6 9 2 1 -14 -9 -16
-9 -21 1 -21 9 0 9 -3 -2 -10 -12 -8 -12 -10 -1 -10 9 0 12 -9 9 -30 -4 -24
-1 -30 10 -25 11 4 12 2 4 -8 -9 -10 -8 -17 1 -27 10 -10 9 -11 -3 -5 -13 8
-13 7 -1 -8 11 -14 11 -17 0 -17 -9 0 -10 -3 -3 -8 6 -4 10 -18 9 -30 -1 -13
4 -26 11 -29 7 -2 10 -11 7 -19 -3 -8 1 -22 8 -31 8 -9 9 -14 2 -10 -19 12 -8
-22 13 -38 12 -9 14 -14 6 -15 -7 0 -10 -5 -7 -10 4 -6 11 -8 16 -5 5 3 6 0 4
-8 -3 -7 3 -24 15 -37 25 -28 26 -37 2 -19 -9 7 -7 2 5 -12 18 -20 20 -28 10
-38 -9 -10 -9 -11 4 -6 10 4 20 1 25 -6 4 -8 3 -10 -4 -5 -20 12 -13 -9 7 -23
11 -8 17 -21 13 -30 -3 -9 -2 -13 2 -9 13 11 33 -15 28 -36 -4 -14 -2 -17 8
-11 10 6 12 3 8 -13 -4 -16 -2 -20 13 -17 12 2 16 -1 13 -10 -3 -7 4 -19 16
-25 18 -10 19 -14 8 -28 -7 -9 -8 -13 -3 -11 12 7 46 -26 37 -35 -3 -3 3 -6
14 -7 18 0 18 -1 -1 -9 -19 -8 -19 -9 3 -9 12 -1 22 -6 22 -12 0 -5 6 -7 13
-3 7 5 7 2 -2 -10 -8 -9 -10 -16 -4 -14 6 2 12 -1 13 -7 2 -5 16 -18 31 -27
19 -11 27 -23 23 -33 -4 -10 0 -15 12 -15 14 0 16 -2 6 -9 -11 -7 -10 -10 3
-15 9 -3 20 -4 24 -2 4 3 7 -7 7 -21 -1 -15 5 -28 14 -30 13 -4 13 -3 0 6 -11
8 -11 11 -2 11 7 0 16 -8 19 -17 4 -10 15 -25 25 -34 10 -9 18 -22 18 -28 0
-7 3 -10 8 -8 9 6 33 -19 25 -27 -4 -3 1 -6 10 -6 11 0 17 -8 18 -22 0 -13 3
-17 6 -10 2 6 9 12 14 12 6 0 8 -4 5 -9 -3 -5 1 -14 9 -21 8 -7 13 -16 10 -20
-3 -4 11 -15 30 -24 19 -9 35 -19 35 -22 0 -3 -6 -2 -12 2 -10 6 -9 3 0 -8 8
-9 20 -14 28 -11 10 4 12 0 8 -11 -4 -11 0 -16 14 -16 15 0 20 -6 18 -24 -2
-18 1 -22 16 -18 10 2 18 -1 18 -7 0 -7 5 -9 12 -5 8 5 9 2 5 -10 -4 -10 -3
-15 3 -11 6 3 13 -1 16 -10 4 -9 13 -14 22 -10 13 5 13 3 1 -12 -9 -11 -10
-14 -1 -9 7 4 15 1 18 -8 3 -9 14 -16 24 -16 11 0 22 -5 26 -12 5 -7 3 -8 -7
-3 -12 8 -12 6 0 -8 7 -9 20 -17 27 -17 8 0 14 -7 14 -16 0 -8 4 -12 10 -9 6
3 10 1 10 -5 0 -6 5 -8 10 -5 6 3 10 -1 10 -9 0 -10 9 -16 23 -16 18 0 19 -2
7 -10 -11 -7 -11 -10 -2 -10 8 0 10 -5 6 -12 -5 -8 0 -7 11 2 11 9 16 10 11 3
-4 -9 -1 -13 9 -13 11 0 15 -5 11 -16 -3 -9 -2 -12 5 -9 5 4 19 -3 30 -16 10
-12 19 -18 19 -13 1 5 9 -1 19 -13 10 -12 21 -19 25 -16 3 4 6 -1 6 -11 0 -9
4 -14 10 -11 6 3 10 0 10 -7 0 -9 3 -9 10 2 8 13 10 12 10 -3 0 -11 4 -15 12
-11 8 5 9 2 5 -10 -4 -11 -3 -15 4 -11 5 4 18 -2 28 -14 10 -11 22 -17 26 -13
5 4 5 -1 2 -11 -4 -10 -3 -16 2 -12 15 8 42 -6 34 -19 -4 -6 1 -5 10 3 15 12
17 11 18 -10 0 -13 3 -18 6 -11 7 19 23 4 16 -16 -6 -15 -5 -15 11 -3 15 12
17 12 14 0 -2 -8 2 -13 9 -12 7 2 10 -4 7 -12 -5 -11 -2 -13 10 -9 12 5 15 2
9 -12 -4 -11 -3 -15 5 -10 6 4 10 -1 9 -13 0 -10 -10 -24 -22 -31 -19 -12 -19
-12 -5 6 14 18 14 18 -6 2 -11 -10 -28 -18 -37 -18 -9 0 -19 -4 -22 -10 -10
-16 -25 -12 -25 8 0 14 -2 14 -9 3 -12 -18 -55 -27 -45 -9 6 10 4 11 -7 1 -16
-15 -33 -17 -24 -3 3 6 1 10 -4 10 -6 0 -11 -4 -11 -10 0 -6 -24 -9 -55 -7
-32 1 -55 -2 -55 -8 0 -5 -5 -3 -10 5 -8 12 -10 12 -10 1 0 -10 -3 -11 -13 -2
-10 8 -17 7 -25 -1 -7 -7 -12 -8 -12 -3 0 6 -5 3 -10 -5 -6 -10 -10 -11 -10
-2 0 6 -5 12 -11 12 -6 0 -9 -7 -6 -14 4 -10 1 -13 -8 -9 -8 3 -12 10 -8 17 3
6 -3 3 -14 -7 -15 -13 -23 -15 -28 -7 -6 9 -10 9 -16 -1 -7 -11 -9 -9 -9 6 0
16 -2 17 -9 6 -5 -8 -27 -15 -51 -15 -24 -1 -45 -7 -51 -16 -10 -13 -10 -13
-6 1 3 10 -2 15 -19 15 -19 0 -21 -2 -11 -15 9 -12 6 -12 -15 2 -23 14 -26 15
-22 2 5 -13 2 -14 -20 -5 -20 7 -25 7 -20 -2 5 -7 2 -9 -8 -5 -9 3 -21 0 -28
-6 -10 -9 -11 -9 -6 1 9 15 -6 16 -22 0 -7 -7 -12 -8 -12 -2 0 6 -7 11 -15 11
-8 0 -12 -4 -9 -9 3 -4 2 -8 -3 -9 -4 0 -24 -2 -43 -5 -33 -4 -33 -4 -15 12
21 16 -1 8 -23 -9 -16 -12 -52 -17 -52 -7 0 4 -7 7 -15 7 -8 0 -12 -3 -10 -7
2 -3 -5 -11 -16 -18 -10 -7 -19 -9 -18 -5 3 20 -2 23 -17 8 -12 -12 -19 -13
-30 -4 -8 6 -14 7 -14 3 0 -5 -13 -10 -30 -10 -19 -1 -28 2 -24 10 3 6 0 4 -8
-5 -9 -11 -21 -13 -40 -8 -19 5 -25 3 -22 -5 2 -6 -5 -12 -16 -13 -13 -1 -18
2 -13 10 4 7 0 6 -10 -2 -9 -7 -26 -11 -38 -8 -16 4 -19 2 -14 -11 5 -14 4
-15 -6 -4 -17 16 -32 16 -23 0 6 -10 4 -10 -7 0 -7 6 -18 12 -23 12 -6 0 -4
-5 4 -11 12 -8 7 -9 -17 -6 -19 2 -33 -1 -33 -7 0 -6 -4 -5 -9 2 -6 11 -10 10
-15 -4 -6 -14 -9 -16 -15 -5 -6 9 -11 10 -15 2 -4 -6 -12 -11 -17 -11 -6 0 -7
4 -4 10 3 6 -1 7 -9 4 -9 -3 -14 -9 -11 -14 2 -4 -7 -5 -22 -2 -20 4 -24 2
-18 -9 7 -12 6 -12 -7 -1 -10 8 -17 9 -20 3 -1 -5 -15 -12 -31 -15 -15 -3 -25
-1 -22 4 3 5 0 12 -7 16 -7 4 -10 4 -6 -1 13 -14 -13 -37 -27 -25 -9 8 -15 8
-20 0 -5 -8 -11 -7 -23 2 -14 12 -14 10 -3 -10 l12 -23 -27 18 c-16 10 -25 13
-21 7 4 -7 0 -14 -8 -18 -8 -3 -15 0 -15 6 0 7 -5 6 -15 -2 -8 -6 -20 -8 -26
-4 -9 5 -10 2 -6 -9 4 -11 2 -14 -8 -10 -8 3 -12 10 -8 17 3 6 -2 4 -13 -5
-10 -9 -25 -14 -32 -12 -6 3 -12 -1 -12 -9 0 -10 -3 -9 -10 2 -7 11 -10 11
-10 2 0 -10 -5 -10 -22 -1 -20 11 -21 10 -11 -3 11 -13 7 -15 -26 -14 -22 1
-37 -2 -35 -6 6 -9 -26 -6 -42 5 -7 4 -11 0 -10 -10 1 -12 -8 -17 -34 -17 -19
-1 -45 -6 -56 -13 -12 -7 -24 -10 -27 -6 -4 3 -14 0 -24 -8 -10 -8 -14 -9 -10
-2 10 17 -34 8 -45 -9 -4 -7 -8 -9 -8 -4 0 5 -7 3 -15 -4 -12 -10 -15 -10 -15
1 -1 10 -4 9 -14 -3 -14 -20 -31 -25 -20 -7 4 7 1 10 -7 7 -8 -3 -13 -11 -11
-17 2 -9 -3 -9 -17 -1 -14 7 -22 7 -27 -2 -5 -7 -3 -8 6 -3 9 5 11 4 6 -3 -5
-8 -13 -9 -26 -2 -13 7 -19 6 -23 -4 -4 -9 -19 -12 -46 -11 -23 1 -44 -2 -47
-6 -3 -5 -11 -6 -17 -2 -7 4 -5 -2 3 -12 14 -17 14 -18 -6 -7 -11 6 -26 7 -34
2 -7 -4 -20 -6 -28 -2 -11 4 -13 2 -7 -8 6 -10 4 -12 -8 -7 -10 3 -17 2 -17
-2 0 -10 -19 -9 -37 2 -9 5 -11 3 -7 -6 3 -8 -2 -17 -11 -21 -9 -3 -13 -2 -10
4 3 6 1 10 -4 10 -6 0 -11 -7 -11 -16 0 -10 -4 -12 -12 -7 -7 4 -23 8 -35 8
-17 1 -20 -2 -11 -12 6 -8 8 -16 4 -20 -3 -3 -6 -1 -6 6 0 9 -5 9 -21 0 -17
-9 -20 -8 -14 3 6 10 5 11 -6 1 -7 -7 -19 -13 -27 -13 -8 0 -21 -8 -29 -17 -8
-10 -12 -13 -9 -7 4 8 -3 11 -18 10 -13 0 -22 -6 -19 -13 3 -7 -5 -10 -21 -9
-14 2 -26 -1 -26 -7 0 -5 -9 -7 -21 -4 -17 4 -18 3 -8 -9 10 -12 9 -13 -5 -8
-9 3 -24 0 -33 -7 -9 -8 -14 -9 -10 -3 3 6 0 11 -8 11 -8 0 -13 -5 -12 -11 1
-6 -8 -10 -21 -10 -17 1 -22 -3 -18 -15 4 -11 2 -10 -9 3 -14 19 -21 11 -16
-18 1 -5 -5 -4 -13 3 -12 10 -16 9 -25 -7 -7 -13 -20 -18 -46 -17 -22 0 -34
-3 -31 -10 3 -9 -15 -15 -62 -18 -7 0 -10 -7 -7 -15 4 -12 3 -13 -10 -2 -12
10 -15 10 -15 0 0 -7 -7 -10 -15 -6 -9 3 -18 0 -21 -7 -2 -7 -14 -13 -25 -14
-12 -1 -28 -10 -36 -20 -8 -10 -11 -12 -8 -5 6 12 3 12 -16 2 -13 -7 -33 -20
-43 -29 -11 -9 -16 -10 -12 -4 5 9 2 11 -9 7 -9 -4 -14 -12 -11 -19 3 -8 -4
-10 -20 -7 -16 3 -26 -1 -30 -12 -5 -12 -10 -13 -25 -5 -11 5 -18 6 -17 2 2
-5 -4 -16 -12 -24 -13 -15 -16 -15 -27 0 -11 14 -12 14 -8 0 8 -21 -37 -42
-55 -26 -10 9 -11 9 -5 -1 9 -16 -32 -48 -57 -44 -9 2 -20 -2 -24 -9 -5 -8 -3
-10 7 -4 8 5 11 4 6 -1 -5 -5 -21 -9 -35 -9 -17 -1 -27 -6 -27 -15 0 -9 -8
-14 -18 -12 -9 2 -17 -2 -17 -8 0 -5 -11 -10 -25 -10 -14 0 -28 -7 -31 -15 -4
-8 -10 -12 -15 -9 -5 3 -9 0 -9 -6 0 -7 -7 -10 -17 -6 -15 5 -14 3 2 -10 20
-16 20 -16 -3 -9 -14 4 -22 2 -22 -5 0 -8 -10 -10 -24 -8 -16 3 -23 1 -20 -7
5 -13 -22 -28 -36 -20 -4 3 -7 -3 -6 -13 1 -11 -5 -16 -16 -14 -10 1 -19 -6
-23 -19 -6 -17 -9 -19 -16 -8 -7 11 -9 10 -9 -4 0 -11 -4 -15 -12 -11 -7 5 -9
2 -5 -9 4 -12 2 -14 -10 -10 -11 4 -14 3 -9 -6 4 -6 4 -11 -1 -10 -19 3 -34
-2 -29 -10 3 -5 -6 -12 -19 -15 -16 -4 -23 -11 -19 -18 5 -7 2 -9 -9 -5 -12 4
-14 2 -10 -10 5 -12 3 -14 -7 -8 -10 6 -12 4 -6 -10 5 -15 4 -16 -9 -5 -13 11
-14 10 -10 -3 4 -10 -1 -17 -14 -22 -12 -4 -18 -11 -15 -17 5 -8 1 -9 -10 -5
-9 4 -15 3 -13 -1 5 -10 -30 -42 -38 -34 -3 4 -3 -2 1 -12 6 -15 4 -17 -6 -11
-10 6 -12 4 -7 -8 4 -12 2 -14 -11 -10 -9 3 -14 2 -10 -2 5 -5 -2 -15 -13 -23
-17 -12 -18 -16 -8 -23 11 -7 9 -9 -5 -9 -10 0 -30 -12 -43 -26 -18 -19 -20
-25 -7 -20 14 5 15 4 4 -9 -7 -8 -17 -12 -23 -8 -5 3 -7 1 -3 -5 3 -6 -1 -17
-9 -26 -8 -8 -14 -21 -13 -28 2 -7 -4 -12 -14 -10 -12 2 -16 -2 -12 -13 4 -10
0 -15 -10 -15 -9 0 -16 -5 -16 -11 0 -5 6 -7 13 -4 6 4 1 -3 -13 -14 -14 -11
-20 -21 -15 -21 6 0 6 -3 -1 -8 -16 -11 -45 -74 -31 -66 7 3 4 -1 -5 -9 -14
-11 -15 -16 -5 -26 9 -10 8 -11 -8 -5 -11 4 -17 4 -13 -1 4 -4 2 -15 -5 -23
-10 -13 -9 -14 3 -7 12 7 13 6 3 -7 -7 -8 -9 -19 -5 -23 4 -5 1 -5 -5 -1 -7 4
-14 4 -14 -1 -1 -4 -4 -19 -6 -33 -2 -14 -5 -35 -6 -48 -1 -12 -6 -20 -12 -18
-12 4 -14 -138 -3 -150 4 -4 3 -13 -3 -21 -9 -10 -8 -13 1 -13 10 0 10 -3 1
-14 -9 -11 -9 -17 1 -27 9 -10 13 -48 13 -124 0 -60 3 -117 7 -126 4 -8 3 -21
-2 -29 -5 -8 -4 -22 2 -33 6 -12 6 -17 0 -13 -6 3 -9 -24 -7 -74 1 -52 -2 -80
-9 -80 -7 0 -7 -3 -1 -8 15 -11 15 -44 0 -38 -14 5 -14 -18 0 -31 4 -5 5 -1 0
7 -5 8 -4 12 0 7 9 -8 14 -56 5 -55 -20 2 -21 -4 -4 -18 10 -8 14 -13 8 -10
-16 8 -25 -19 -11 -33 7 -7 7 -11 1 -11 -13 0 -12 -39 0 -59 6 -9 5 -12 -2 -7
-7 4 -10 -1 -9 -14 1 -11 5 -20 10 -20 4 0 5 -6 0 -12 -12 -20 -13 -41 -1 -55
7 -9 7 -13 -1 -13 -6 0 -11 -5 -11 -11 0 -5 6 -7 13 -3 9 6 9 5 0 -7 -10 -12
-10 -18 -1 -27 9 -9 9 -12 -2 -12 -9 0 -8 -5 6 -16 10 -8 14 -13 8 -10 -7 3
-15 -1 -18 -10 -4 -10 -2 -13 6 -8 7 5 9 0 6 -14 -4 -12 -2 -22 3 -22 5 0 9
-4 9 -10 0 -5 -8 -7 -18 -4 -13 5 -14 4 -3 -4 8 -5 14 -23 15 -38 1 -16 5 -35
10 -43 6 -9 5 -12 0 -8 -6 3 -11 -4 -11 -16 -2 -15 0 -18 6 -9 6 10 10 8 14
-7 3 -13 1 -19 -5 -15 -6 4 -5 -3 1 -15 7 -11 8 -21 4 -21 -4 0 -1 -5 7 -10
12 -8 12 -10 1 -10 -11 0 -11 -3 0 -17 12 -13 12 -17 1 -21 -10 -3 -7 -8 8
-19 18 -12 19 -17 8 -31 -11 -13 -11 -14 1 -7 11 6 13 4 8 -9 -4 -10 -1 -19 8
-22 8 -4 15 -13 15 -21 0 -8 -5 -11 -12 -8 -7 4 -4 -1 6 -9 11 -9 21 -23 22
-33 2 -9 9 -20 16 -24 10 -7 10 -9 -2 -10 -10 0 -9 -3 4 -8 11 -4 20 -15 22
-24 1 -10 -2 -15 -9 -11 -7 3 -1 -4 13 -15 17 -14 20 -21 10 -21 -13 0 -13 -2
0 -9 8 -6 19 -7 25 -3 5 3 5 -1 -2 -9 -10 -12 -9 -18 7 -29 10 -7 17 -17 14
-21 -2 -4 8 -17 22 -28 15 -12 21 -21 13 -21 -10 -1 -8 -4 4 -11 9 -6 14 -15
11 -21 -5 -7 -1 -9 9 -5 9 3 19 1 23 -5 4 -7 3 -8 -4 -4 -23 14 -12 -6 18 -34
17 -16 32 -33 33 -37 1 -4 7 -7 13 -7 6 1 9 -7 7 -17 -3 -11 0 -19 6 -19 7 0
9 -5 5 -12 -6 -10 -5 -10 8 -1 12 11 17 9 26 -13 8 -15 17 -22 24 -18 7 5 9 2
5 -9 -6 -16 18 -32 34 -22 5 4 6 -1 3 -9 -3 -9 -1 -16 6 -16 6 0 8 -5 4 -12
-5 -9 -2 -8 9 1 15 12 17 12 12 -1 -3 -8 2 -21 11 -29 16 -12 17 -12 10 1 -4
8 0 6 8 -4 9 -11 16 -23 16 -28 0 -4 5 -8 11 -8 6 0 7 6 2 13 -4 6 16 -12 44
-41 33 -34 57 -51 64 -46 9 5 10 2 6 -10 -4 -9 -3 -14 2 -11 5 3 12 1 16 -5 4
-6 11 -7 17 -4 8 5 9 1 5 -10 -4 -9 -3 -15 2 -11 17 10 40 -6 33 -23 -5 -15
-4 -16 13 -2 17 14 18 13 12 -3 -4 -10 -3 -16 2 -13 12 8 33 -19 23 -29 -4 -4
3 -2 16 4 18 9 22 9 20 -1 -2 -7 3 -12 10 -11 6 2 12 -7 13 -20 0 -20 1 -20 8
-3 7 18 8 18 14 2 4 -11 13 -16 22 -12 8 3 14 2 14 -2 -3 -20 2 -32 11 -27 15
9 41 -15 33 -29 -4 -6 1 -5 10 3 9 7 18 11 18 7 1 -3 2 -10 3 -15 0 -5 5 -13
10 -18 5 -5 6 -3 2 5 -4 6 -2 12 3 12 6 0 11 -4 11 -10 0 -5 7 -10 16 -10 8 0
13 -4 10 -9 -4 -5 5 -8 18 -7 17 2 23 -1 19 -10 -3 -9 2 -12 16 -9 11 2 23 -1
26 -6 4 -5 11 -6 17 -3 7 4 8 2 4 -5 -6 -9 -12 -9 -24 1 -15 11 -15 11 -4 -3
7 -10 25 -16 42 -15 16 1 27 -1 25 -4 -2 -3 0 -12 6 -20 6 -12 9 -12 9 -2 0
10 4 9 16 -2 8 -9 19 -14 24 -11 5 3 11 1 15 -5 4 -6 11 -8 16 -4 5 3 8 0 7
-8 -2 -8 5 -12 20 -11 13 2 21 -1 18 -6 -7 -10 22 -24 34 -16 5 3 11 1 15 -5
4 -6 11 -8 16 -5 5 3 6 0 3 -8 -4 -11 2 -14 20 -12 14 2 26 -1 26 -6 0 -5 9
-9 21 -9 13 0 18 -4 13 -12 -5 -8 0 -7 11 2 11 9 16 10 11 3 -4 -8 -2 -14 6
-15 7 0 18 -2 23 -2 17 -2 36 -17 31 -25 -3 -3 4 -7 15 -7 10 0 19 4 19 9 0 4
5 5 10 2 6 -4 8 -10 6 -13 -2 -4 7 -12 20 -19 13 -6 22 -7 19 -3 -3 4 4 6 16
3 11 -3 23 -12 26 -20 5 -12 7 -12 14 -1 7 10 9 10 9 -2 0 -13 1 -13 10 0 8
13 10 13 10 -1 0 -9 7 -20 16 -23 8 -3 12 -2 9 4 -3 6 1 7 9 4 9 -3 16 -10 16
-15 0 -5 5 -9 11 -9 5 0 8 4 5 8 -3 5 1 9 8 9 8 0 12 -6 9 -12 -2 -7 3 -15 12
-19 9 -3 14 -2 10 3 -8 15 22 7 42 -11 10 -8 24 -13 30 -11 7 3 16 -3 19 -11
5 -13 9 -14 21 -5 11 10 15 8 20 -10 5 -19 7 -20 18 -5 9 14 14 14 20 4 5 -9
4 -11 -3 -6 -7 4 -12 2 -12 -3 0 -6 14 -11 30 -11 17 0 30 -5 30 -11 0 -6 9
-9 20 -6 10 3 19 2 18 -2 -2 -19 4 -22 19 -10 11 10 14 10 9 2 -7 -12 3 -17
29 -14 6 0 24 -11 40 -25 17 -14 24 -22 16 -18 -10 5 -12 3 -6 -7 14 -22 17
-121 3 -113 -8 5 -8 3 -2 -7 14 -21 14 -240 0 -232 -8 5 -8 3 0 -8 14 -18 14
-50 0 -68 -8 -11 -8 -13 2 -7 7 4 12 1 12 -8 0 -9 -5 -16 -12 -16 -6 0 -3 -7
8 -16 10 -8 14 -13 8 -10 -7 3 -15 -1 -18 -10 -3 -8 -2 -13 3 -10 5 3 11 -3
14 -14 3 -12 1 -17 -5 -14 -6 4 -7 -10 -3 -35 4 -27 2 -41 -5 -41 -6 0 -8 -5
-5 -10 4 -6 12 -7 18 -3 7 3 4 -2 -5 -13 -17 -19 -17 -21 -1 -37 10 -9 12 -17
7 -17 -6 0 -11 -18 -10 -40 1 -22 5 -40 11 -40 5 0 5 -4 -1 -10 -14 -14 -5
-81 10 -74 6 3 4 0 -4 -8 -17 -14 -20 -42 -6 -55 5 -4 6 -3 2 4 -3 6 -3 14 2
17 4 2 8 -11 8 -29 0 -18 -4 -31 -8 -29 -4 3 -8 0 -8 -5 0 -6 5 -11 10 -11 6
0 10 -5 10 -11 0 -5 -6 -7 -12 -3 -10 6 -10 4 -2 -7 16 -21 24 -59 12 -59 -6
0 -5 -7 3 -16 10 -13 10 -17 -2 -25 -13 -8 -5 -14 15 -10 5 1 4 -5 -4 -13 -10
-13 -10 -16 0 -16 9 0 9 -4 -1 -17 -12 -14 -12 -16 1 -11 12 4 15 -2 13 -32
-1 -27 3 -40 14 -44 12 -5 13 -9 4 -20 -9 -11 -8 -18 4 -30 12 -12 13 -16 3
-16 -9 -1 -7 -4 4 -10 9 -6 15 -18 14 -28 -2 -9 2 -20 7 -24 7 -4 7 -11 -2
-21 -10 -13 -9 -15 11 -9 21 5 22 4 9 -11 -12 -15 -9 -21 11 -18 4 0 4 -7 1
-16 -4 -11 -3 -14 6 -9 6 4 11 4 10 -1 -4 -22 2 -44 10 -39 5 4 8 -5 6 -20 -2
-19 1 -24 12 -19 11 3 13 1 9 -10 -3 -8 -1 -15 4 -15 6 0 18 -18 27 -40 10
-22 21 -40 25 -40 5 0 8 -9 8 -20 0 -14 7 -20 23 -20 16 0 18 -3 9 -9 -11 -7
-11 -9 2 -14 9 -4 21 -18 28 -32 6 -14 18 -25 26 -25 12 0 12 -2 1 -17 -8 -9
-9 -14 -3 -10 6 3 16 -3 24 -13 8 -10 18 -16 22 -13 5 3 8 -3 6 -13 -2 -13 4
-20 20 -22 14 -2 22 -10 22 -24 0 -13 5 -18 14 -15 8 3 17 -1 20 -9 3 -9 1
-12 -4 -9 -6 3 -10 4 -10 1 0 -3 15 -13 32 -21 18 -8 24 -13 13 -10 -20 5 -20
5 -1 -10 11 -8 24 -15 29 -15 4 0 5 -6 1 -12 -5 -9 -2 -9 9 1 15 12 17 10 17
-15 0 -22 3 -26 10 -14 9 13 10 13 11 0 1 -8 1 -18 0 -22 0 -4 5 -5 13 -2 7 3
16 -2 20 -11 4 -12 12 -14 28 -9 19 6 21 4 11 -7 -9 -11 -5 -18 15 -34 26 -18
26 -18 12 0 -14 18 -14 18 11 0 15 -11 25 -23 22 -27 -2 -5 3 -8 11 -8 9 0 16
-5 16 -11 0 -5 4 -7 10 -4 5 3 21 -4 34 -17 13 -13 30 -24 37 -26 8 -2 19 -8
24 -13 7 -7 3 -8 -10 -3 -11 4 -17 3 -12 -1 4 -5 17 -9 30 -10 12 -2 21 -7 20
-13 -2 -6 3 -9 11 -6 8 3 20 -3 27 -13 8 -10 23 -20 34 -21 10 -2 25 -11 32
-20 7 -10 13 -13 13 -8 0 6 7 1 16 -10 8 -10 12 -12 8 -4 -4 8 3 5 15 -7 11
-12 27 -20 35 -17 9 3 17 -3 21 -16 5 -17 10 -19 21 -9 11 9 14 9 14 0 0 -7 5
-9 10 -6 6 3 10 1 10 -5 0 -6 5 -8 10 -5 5 3 10 1 10 -5 0 -7 8 -9 20 -5 16 5
19 3 13 -12 -6 -16 -5 -17 12 -3 17 14 18 13 12 -2 -4 -12 -2 -15 9 -11 8 3
21 0 29 -7 8 -7 21 -10 29 -7 11 4 13 1 9 -10 -5 -13 -3 -13 14 -4 17 8 22 7
27 -5 5 -13 9 -14 20 -5 11 9 16 9 22 0 5 -8 3 -9 -6 -4 -9 5 -11 4 -6 -3 4
-7 18 -12 32 -12 16 0 23 -4 18 -11 -4 -7 1 -7 16 1 20 11 22 10 17 -3 -4 -12
-2 -14 10 -10 11 5 14 3 8 -6 -6 -10 -3 -11 15 -1 17 9 21 9 15 0 -5 -9 -1
-10 15 -5 14 4 20 3 16 -3 -3 -5 1 -13 10 -16 8 -3 12 -2 9 4 -11 17 7 11 21
-7 9 -12 13 -14 14 -5 0 7 5 10 10 7 6 -4 7 -12 3 -18 -4 -7 0 -6 10 2 12 9
17 10 17 2 0 -7 5 -9 10 -6 6 3 10 2 10 -4 0 -6 7 -7 17 -4 12 5 14 3 8 -8 -7
-11 -5 -11 10 1 11 9 16 10 11 3 -5 -10 8 -13 53 -14 92 -2 95 -3 109 -16 7
-7 19 -10 28 -6 8 3 24 -3 35 -13 19 -17 20 -17 13 2 -7 19 -6 19 8 0 8 -10
20 -16 26 -12 7 4 12 3 12 -2 0 -11 30 -9 49 3 9 5 12 4 8 -1 -3 -6 4 -16 16
-24 20 -12 21 -12 8 3 -7 10 -10 17 -5 18 5 0 19 2 31 3 13 2 23 -2 23 -7 0
-6 3 -7 7 -4 3 4 16 -1 27 -10 20 -17 20 -17 7 0 -12 15 -12 17 3 11 9 -3 16
-10 16 -16 0 -5 4 -7 9 -3 5 3 12 1 16 -4 3 -6 12 -8 20 -4 8 3 15 1 15 -5 0
-5 24 -10 53 -11 80 -1 91 -3 99 -15 5 -7 8 -4 8 8 0 12 5 16 16 12 9 -3 18
-6 20 -6 3 0 2 -5 -2 -12 -4 -6 3 -4 16 5 17 12 28 13 42 6 13 -7 18 -6 18 3
0 9 3 9 10 -2 9 -13 10 -13 10 0 0 13 1 13 10 0 5 -8 10 -10 10 -5 0 6 25 10
55 10 30 0 55 -4 55 -8 0 -5 5 -5 12 -1 21 13 68 9 74 -6 4 -13 8 -12 20 4 8
11 14 15 14 8 0 -6 7 -9 15 -6 8 4 23 0 32 -7 12 -10 15 -10 9 -1 -4 7 -1 12
9 12 10 0 13 -5 9 -12 -5 -8 0 -7 11 2 10 8 16 10 12 4 -4 -7 2 -14 13 -17 13
-3 18 -1 13 6 -4 6 0 8 10 4 9 -3 18 -1 21 6 2 7 5 3 5 -8 1 -15 3 -17 10 -7
11 17 21 17 32 0 5 -7 9 -8 9 -2 0 10 60 10 88 -1 7 -2 10 0 7 5 -8 13 1 13
27 -1 12 -6 18 -7 14 -1 -3 5 1 13 10 16 9 4 13 2 8 -5 -4 -8 1 -9 16 -4 17 5
21 4 16 -6 -4 -8 0 -5 8 5 9 11 16 14 16 7 0 -7 5 -9 10 -6 6 4 7 11 4 17 -4
7 -2 8 5 4 6 -4 9 -12 6 -17 -4 -5 -1 -9 4 -9 6 0 11 4 11 9 0 12 43 8 52 -4
5 -6 8 -5 8 3 0 6 5 12 11 12 5 0 7 -6 3 -12 -6 -10 -5 -10 7 -1 12 10 18 10
28 0 10 -9 11 -8 5 8 -5 16 -4 18 6 8 7 -6 22 -9 34 -5 11 4 49 7 84 6 34 0
62 4 62 9 0 5 7 4 15 -3 17 -14 39 -3 28 14 -4 7 0 3 10 -7 15 -17 21 -16 19
4 0 3 19 4 44 2 31 -3 44 0 44 9 0 8 3 9 8 3 11 -15 45 -12 60 5 8 8 11 10 8
4 -7 -15 21 -27 29 -13 4 5 11 7 16 4 5 -4 9 -1 9 6 0 7 3 10 6 7 3 -4 19 -2
36 2 27 8 28 7 16 -7 -12 -15 -11 -15 9 -3 12 8 20 17 18 20 -2 4 2 7 10 7 8
0 12 -4 9 -9 -6 -9 42 0 61 11 18 10 46 11 40 1 -3 -6 1 -7 9 -4 9 3 13 11 10
16 -4 6 2 5 14 -1 15 -8 23 -8 28 1 5 7 3 8 -7 3 -8 -5 -10 -4 -6 0 11 13 38
15 31 3 -4 -6 3 -5 15 1 12 7 26 9 31 6 6 -3 10 0 10 7 0 9 3 9 10 -2 8 -12
10 -12 10 -1 0 11 3 11 17 0 11 -10 14 -10 9 -1 -4 7 -1 12 9 12 9 0 13 4 10
10 -3 6 1 7 9 4 9 -3 13 -11 10 -18 -3 -6 2 -2 10 8 9 11 16 14 16 7 0 -7 5
-9 10 -6 6 4 7 12 3 18 -5 9 -3 9 8 0 12 -10 18 -10 29 0 10 9 11 9 6 0 -5 -9
-2 -11 8 -7 9 3 13 11 9 18 -4 6 1 5 10 -3 10 -8 17 -9 17 -3 0 6 9 9 20 7 11
-2 20 2 20 8 0 7 4 6 10 -3 7 -11 10 -11 10 -2 0 7 4 10 10 7 5 -3 10 2 10 12
0 15 2 15 9 4 8 -13 12 -13 27 0 11 9 15 9 10 2 -4 -7 -3 -13 3 -13 5 0 12 4
15 9 4 5 14 8 24 6 9 -1 28 4 41 12 18 12 22 12 15 2 -6 -11 -5 -11 9 0 10 8
20 11 24 8 3 -4 12 1 19 11 12 15 15 15 25 2 8 -11 12 -12 16 -2 2 6 11 12 18
12 7 0 16 6 18 13 4 10 6 10 6 0 1 -7 6 -13 12 -13 5 0 8 4 5 9 -3 5 1 12 10
15 8 3 12 2 9 -4 -3 -6 -1 -10 4 -10 6 0 11 4 11 9 0 4 12 7 26 5 18 -2 24 2
20 11 -5 13 6 14 41 3 6 -1 19 6 28 17 9 11 13 14 9 6 -4 -9 -2 -12 7 -9 8 3
13 11 11 17 -1 8 2 9 10 5 7 -5 21 -9 30 -9 13 -1 15 2 7 11 -12 14 7 14 30 0
9 -6 12 -5 8 1 -4 6 0 14 9 17 9 4 13 2 8 -5 -4 -8 0 -7 15 0 11 7 21 17 21
24 0 8 3 8 9 -2 5 -8 11 -9 15 -3 3 5 17 8 31 7 14 -2 23 1 19 6 -3 5 -11 6
-17 3 -7 -4 -8 -3 -4 1 9 10 31 16 69 17 15 1 24 6 21 11 -3 5 8 7 23 5 23 -2
29 1 28 15 -2 14 1 15 12 6 10 -8 14 -8 14 0 0 6 5 11 11 11 5 0 7 -6 3 -12
-4 -7 2 -5 13 5 11 9 25 17 31 17 7 0 12 6 12 13 0 8 4 7 10 -3 6 -9 10 -11
10 -3 0 7 6 10 14 7 8 -3 17 0 22 7 5 8 3 10 -6 4 -8 -5 -11 -4 -6 3 4 7 17 8
37 2 28 -8 29 -8 17 7 -8 10 -8 14 -1 10 6 -4 14 -3 18 2 3 6 13 7 22 4 12 -5
14 -3 8 8 -7 11 -5 11 10 -1 10 -8 16 -10 13 -5 -4 6 -3 17 3 25 7 13 9 12 9
-2 0 -15 3 -15 27 -3 15 8 31 11 37 8 6 -4 5 1 -2 10 -12 14 -11 16 8 12 25
-5 52 4 45 15 -3 5 6 7 20 5 14 -1 28 2 32 8 4 6 1 7 -7 2 -9 -5 -11 -4 -6 4
6 9 11 9 24 -1 9 -7 13 -8 10 -3 -4 6 2 17 14 24 11 7 17 8 14 2 -4 -5 2 -9
13 -8 15 1 17 4 10 14 -8 9 -6 11 10 8 12 -2 21 1 21 6 0 6 4 8 9 5 4 -3 27 4
51 15 23 11 50 21 60 22 10 1 16 7 13 14 -3 9 0 11 10 8 8 -4 21 0 28 7 8 7
24 13 37 12 17 -1 22 3 17 15 -3 8 -3 12 1 8 4 -4 14 -1 22 6 13 10 14 9 7 -3
-7 -12 -6 -13 7 -3 8 7 19 9 23 5 5 -4 5 2 1 12 -5 16 -4 17 9 6 10 -8 15 -9
15 -2 0 6 10 17 23 23 21 12 21 11 7 -7 -14 -19 -14 -19 7 -1 12 11 27 16 33
12 6 -3 10 -3 9 2 -3 20 2 27 11 13 8 -13 10 -13 10 2 0 9 5 20 12 24 7 5 9 2
4 -7 -6 -10 -4 -10 6 1 7 8 20 15 28 15 8 0 15 5 15 12 0 6 4 15 9 20 5 5 6 3
2 -4 -4 -7 -2 -13 3 -13 6 0 11 6 11 13 0 8 4 7 10 -3 8 -13 10 -12 10 3 0 11
4 15 12 11 8 -5 9 -2 4 11 -5 15 -4 16 9 5 11 -9 15 -9 15 -1 0 7 5 9 13 5 7
-5 6 0 -3 11 -10 12 -11 16 -2 11 17 -10 65 2 57 14 -3 6 1 10 9 10 9 0 16 5
16 11 0 8 6 7 17 -2 9 -8 14 -9 10 -3 -3 6 3 18 13 27 13 11 20 12 24 4 2 -7
5 -4 5 6 1 10 6 15 11 12 6 -3 10 -1 10 4 0 6 7 11 15 11 8 0 15 5 15 10 0 6
7 10 15 10 8 0 15 4 15 9 0 6 9 8 20 6 11 -2 18 0 15 4 -7 12 43 43 57 35 6
-4 8 -3 5 3 -3 5 3 17 14 26 10 9 19 12 19 7 0 -6 5 -10 10 -10 6 0 9 3 9 8
-4 21 3 31 16 26 11 -5 13 -2 9 9 -4 12 -1 15 15 12 12 -2 20 1 18 8 -1 7 4
11 11 9 6 -1 12 6 13 15 0 10 3 13 6 6 3 -8 13 -3 29 14 13 14 24 22 24 17 0
-5 10 2 21 16 11 14 17 18 13 10 -7 -13 -5 -13 9 -1 9 7 14 17 11 22 -3 5 -2
9 3 8 23 -4 41 3 47 17 4 10 2 13 -6 8 -7 -5 -8 -3 -4 5 5 7 14 10 22 7 9 -3
14 1 14 12 0 15 2 15 10 2 8 -13 10 -12 10 3 0 10 4 16 9 12 6 -3 15 4 21 15
7 13 17 19 26 16 8 -3 13 -2 10 2 -2 4 0 14 5 22 8 13 10 13 19 0 5 -8 10 -10
10 -4 0 5 -5 15 -11 21 -7 7 -3 10 16 8 19 -3 25 1 23 13 -2 10 3 16 10 14 6
-1 12 2 12 7 0 5 9 13 21 16 11 4 18 13 15 20 -3 8 2 11 15 8 13 -4 21 2 29
21 5 14 15 23 22 21 7 -3 26 10 42 29 16 20 34 32 42 29 17 -6 19 13 2 21 -7
3 -2 3 11 0 13 -3 21 -2 19 2 -6 12 28 44 38 36 4 -4 4 1 1 11 -4 11 -3 16 3
12 6 -3 13 1 16 9 3 9 10 13 15 10 5 -3 9 2 9 11 0 11 5 15 14 12 11 -4 13 -1
9 10 -4 11 -2 14 5 9 7 -4 12 -1 12 9 0 11 5 15 14 12 10 -4 13 -1 9 9 -3 7 0
14 7 14 6 0 8 4 5 10 -3 6 1 7 9 4 12 -4 16 0 16 16 0 15 5 20 14 17 8 -3 18
5 25 19 6 14 16 22 21 19 5 -3 7 0 4 9 -3 9 2 17 15 21 12 3 19 11 16 16 -4 5
-1 9 5 9 6 0 8 5 4 13 -5 8 -2 7 9 -2 15 -12 17 -12 11 2 -3 10 2 20 15 27 12
6 21 16 21 23 0 7 10 17 23 22 12 6 21 16 19 23 -1 7 3 12 9 12 5 0 7 5 4 10
-6 10 9 15 30 10 6 -1 7 2 3 6 -4 4 0 13 10 21 10 9 11 11 2 7 -12 -7 -13 -5
-3 8 7 8 9 19 5 24 -4 4 2 2 12 -6 11 -8 17 -10 13 -3 -4 6 1 18 13 26 11 7
17 17 13 20 -3 4 1 7 11 7 9 0 15 3 13 8 -7 10 19 32 28 24 5 -4 6 3 3 15 -4
16 -2 20 10 16 11 -5 13 -3 7 7 -6 10 -4 12 10 6 16 -6 16 -4 4 11 -8 10 -9
14 -2 10 7 -5 16 1 23 13 6 11 20 20 32 20 21 0 21 0 2 15 -13 11 -14 14 -4
13 8 -2 14 3 12 11 -2 8 3 11 11 8 9 -3 19 4 26 19 6 13 18 24 27 24 14 0 15
2 3 17 -12 14 -12 16 0 8 9 -5 20 0 33 16 11 13 17 18 13 12 -3 -7 -1 -13 5
-13 6 0 18 -7 26 -15 11 -11 12 -15 3 -15 -10 0 -10 -3 -1 -12 8 -8 8 -17 1
-31 -8 -14 -8 -18 0 -13 6 4 11 3 11 -3 0 -5 -5 -13 -10 -16 -8 -5 -8 -11 -1
-19 7 -9 7 -17 -2 -26 -9 -10 -9 -11 1 -5 16 8 13 -26 -3 -37 -6 -5 -6 -8 1
-8 7 0 15 -7 18 -16 3 -8 2 -12 -4 -9 -13 8 -13 -1 0 -25 9 -16 8 -18 -5 -14
-11 5 -13 2 -9 -9 3 -9 13 -14 22 -11 9 3 6 -1 -7 -9 -17 -10 -20 -16 -10 -19
11 -4 12 -8 2 -20 -9 -10 -9 -18 -2 -25 8 -8 8 -17 0 -31 -8 -15 -8 -23 0 -28
8 -4 7 -9 -2 -15 -8 -5 -9 -9 -3 -9 6 0 11 -7 11 -15 0 -8 -5 -15 -10 -15 -5
0 -4 -7 3 -15 10 -12 10 -15 0 -15 -10 0 -10 -3 0 -15 7 -8 8 -15 3 -15 -5 0
-9 -10 -7 -22 1 -13 3 -23 4 -23 1 0 3 -10 4 -22 1 -12 -1 -20 -6 -17 -13 8
-6 -29 7 -38 6 -5 6 -8 -1 -8 -6 0 -11 -11 -11 -25 0 -15 4 -22 11 -19 6 3 3
-1 -7 -9 -16 -14 -16 -16 -2 -31 14 -14 14 -16 1 -16 -8 0 -18 -5 -22 -12 -4
-6 -3 -8 3 -5 6 4 13 0 17 -8 3 -8 1 -17 -4 -20 -17 -10 -11 -25 8 -19 15 5
15 4 -1 -6 -15 -10 -16 -14 -5 -28 7 -9 8 -13 2 -9 -7 4 -15 0 -18 -9 -9 -24
-7 -29 6 -16 7 7 17 12 23 12 5 0 4 -4 -4 -9 -8 -5 -15 -18 -16 -28 0 -10 -4
-24 -9 -31 -4 -6 -3 -12 3 -12 10 0 9 -19 -2 -37 -5 -8 -3 -13 4 -13 8 0 8 -4
-1 -15 -10 -12 -10 -15 1 -15 9 0 10 -3 4 -8 -8 -6 -10 -45 -4 -104 1 -7 -2
-22 -7 -32 -5 -14 -4 -17 5 -11 10 6 11 3 1 -15 -10 -18 -9 -24 1 -31 11 -7
11 -9 -1 -9 -13 0 -13 -1 0 -10 13 -9 13 -10 0 -10 -13 0 -13 -1 0 -10 12 -8
12 -10 1 -10 -10 0 -11 -3 -2 -14 9 -11 9 -16 0 -21 -8 -6 -7 -10 2 -16 8 -5
10 -9 4 -9 -5 0 -10 -20 -10 -44 0 -24 3 -42 6 -41 3 2 5 -21 5 -51 -1 -40 3
-58 14 -65 8 -4 10 -9 4 -9 -6 0 -11 -7 -11 -15 0 -8 5 -15 11 -15 6 0 4 -5
-4 -10 -12 -8 -12 -10 -1 -10 11 0 11 -3 1 -15 -9 -11 -9 -15 -1 -15 7 0 11
-6 10 -12 -3 -27 1 -39 13 -32 7 4 8 3 4 -5 -4 -6 -11 -9 -16 -6 -5 3 -12 0
-16 -6 -5 -8 -3 -9 6 -4 10 6 12 4 7 -8 -4 -12 -2 -14 10 -10 13 5 14 3 4 -15
-8 -16 -9 -22 -1 -22 6 0 8 -5 4 -12 -4 -6 2 -18 12 -26 16 -13 17 -14 2 -9
-10 4 -18 2 -18 -3 0 -6 5 -10 11 -10 8 0 7 -5 -1 -15 -7 -9 -10 -18 -6 -22 3
-3 6 -1 6 5 0 7 5 12 11 12 5 0 8 -4 4 -9 -3 -5 -1 -12 4 -16 7 -3 7 -15 1
-29 -6 -17 -4 -30 6 -45 8 -11 12 -21 9 -21 -3 0 -1 -9 5 -20 8 -15 8 -20 -2
-20 -6 0 -2 -9 9 -20 15 -13 20 -28 17 -46 -3 -14 -1 -23 4 -20 5 3 8 -6 6
-19 -1 -14 3 -28 8 -32 7 -4 8 -1 3 7 -5 9 -4 11 3 6 8 -5 9 -13 2 -26 -7 -13
-6 -19 5 -23 7 -3 17 -22 21 -42 3 -19 11 -38 16 -41 6 -4 5 -10 -3 -15 -11
-7 -11 -9 -1 -9 8 0 10 -5 6 -12 -6 -9 -3 -9 9 0 14 12 16 11 12 -7 -2 -11 2
-27 10 -35 8 -7 11 -16 8 -20 -4 -3 0 -6 8 -6 11 0 11 -2 -1 -10 -11 -7 -11
-10 -2 -10 7 0 10 -4 7 -10 -3 -5 1 -10 9 -10 10 0 13 -6 9 -17 -4 -11 -3 -14
5 -9 7 4 12 2 12 -3 0 -6 -4 -11 -10 -11 -5 0 2 -12 16 -28 24 -25 55 -75 54
-87 -1 -21 2 -25 14 -25 9 0 13 -9 11 -25 -2 -20 0 -23 12 -14 11 9 12 8 7 -5
-4 -11 -1 -16 10 -16 9 0 16 -5 16 -11 0 -5 -5 -7 -11 -3 -7 4 -7 -2 1 -17 16
-30 25 -39 17 -17 -4 12 -2 15 9 11 8 -3 12 -14 10 -29 -3 -13 0 -27 6 -30 7
-5 8 -2 3 6 -6 9 -4 11 4 6 7 -5 10 -14 7 -22 -3 -8 1 -17 9 -20 8 -4 15 -15
15 -26 0 -10 3 -17 8 -15 4 3 12 -1 19 -8 10 -11 10 -15 0 -18 -7 -3 -4 -6 7
-6 12 -1 16 -6 12 -17 -3 -8 -2 -12 4 -9 6 3 10 1 10 -4 0 -6 7 -11 15 -11 8
0 15 -5 15 -11 0 -5 -4 -8 -8 -5 -5 3 -9 -1 -9 -9 0 -7 8 -12 19 -10 10 2 16
0 13 -6 -4 -5 -1 -9 4 -9 6 0 11 -10 11 -22 0 -12 3 -19 6 -15 7 6 17 -3 44
-37 12 -16 12 -18 1 -11 -10 5 -12 4 -7 -3 4 -7 15 -12 24 -13 11 0 12 -3 5
-6 -7 -2 -13 -9 -13 -14 0 -6 4 -8 9 -5 5 3 11 -4 14 -15 3 -12 10 -18 17 -14
6 3 10 3 9 -2 -3 -17 14 -73 22 -73 5 0 9 -5 9 -11 0 -5 -6 -7 -12 -3 -7 4 -4
-2 6 -14 14 -16 15 -22 6 -22 -9 0 -7 -5 6 -16 10 -8 13 -12 5 -8 -10 5 -11 1
-6 -16 5 -14 3 -20 -3 -16 -6 4 -8 -2 -5 -14 3 -11 10 -17 17 -14 6 3 3 -1 -6
-8 -15 -13 -15 -15 0 -26 9 -7 12 -10 6 -7 -20 8 -24 -21 -7 -46 11 -14 12
-19 3 -14 -10 6 -12 1 -8 -23 2 -17 0 -34 -6 -36 -6 -3 -5 -5 2 -5 7 -1 10 -6
6 -12 -3 -6 0 -15 7 -20 11 -7 10 -9 -4 -9 -10 0 -16 -4 -12 -9 3 -5 6 -32 6
-60 1 -34 5 -49 13 -45 6 3 3 -1 -6 -8 -15 -13 -15 -15 0 -26 9 -7 12 -10 6
-7 -20 8 -24 -21 -7 -46 9 -12 12 -19 6 -16 -6 4 -13 -2 -16 -13 -3 -11 -1
-23 5 -26 6 -4 5 -10 -3 -15 -11 -7 -9 -9 6 -9 16 0 17 -2 6 -9 -12 -8 -13
-12 -1 -25 7 -9 10 -19 6 -23 -3 -3 -6 -1 -6 5 0 7 -4 12 -8 12 -5 0 -6 -20
-2 -44 4 -25 3 -51 -1 -58 -4 -8 -4 -20 1 -27 4 -8 4 -26 0 -41 -6 -20 -3 -35
8 -51 8 -12 10 -19 4 -15 -8 5 -12 -2 -12 -19 0 -18 4 -24 13 -20 6 4 4 0 -5
-7 -15 -13 -15 -15 0 -26 9 -7 12 -10 6 -7 -20 8 -24 -21 -7 -46 9 -12 12 -19
6 -16 -6 4 -13 -2 -16 -13 -3 -11 -1 -23 5 -26 6 -4 5 -10 -3 -15 -11 -7 -9
-9 6 -9 16 0 17 -2 6 -9 -12 -8 -13 -12 -1 -25 11 -14 10 -16 -4 -10 -11 4
-15 2 -11 -7 8 -24 11 -129 3 -129 -4 0 -3 -11 2 -25 6 -17 6 -25 -1 -25 -6 0
-7 -5 -4 -10 4 -6 12 -7 18 -3 9 5 9 3 1 -8 -15 -19 -23 -65 -14 -80 5 -6 4
-24 0 -39 -6 -20 -3 -35 8 -51 8 -12 10 -19 4 -15 -8 5 -12 -2 -12 -19 0 -18
4 -24 13 -20 6 4 4 0 -5 -7 -15 -13 -15 -15 0 -26 9 -7 12 -10 6 -7 -20 8 -24
-21 -7 -46 9 -12 12 -19 6 -16 -6 4 -13 -2 -16 -13 -3 -11 -1 -23 5 -26 6 -4
5 -10 -3 -15 -11 -7 -9 -9 6 -9 16 0 17 -2 6 -9 -12 -8 -13 -12 -1 -25 11 -14
10 -16 -4 -10 -11 4 -15 2 -11 -7 8 -24 11 -129 3 -129 -4 0 -3 -11 2 -25 6
-17 6 -25 -1 -25 -6 0 -7 -5 -4 -10 4 -6 12 -7 18 -4 8 5 8 3 0 -7 -17 -18
-17 -72 0 -64 6 4 4 0 -5 -7 -15 -13 -15 -15 0 -26 9 -7 12 -10 6 -7 -20 8
-24 -21 -7 -46 9 -12 12 -19 6 -16 -6 4 -13 -2 -16 -13 -3 -11 -1 -23 5 -26 6
-4 5 -10 -3 -15 -11 -7 -11 -9 -1 -9 7 0 10 -5 6 -11 -3 -6 0 -15 7 -20 11 -7
10 -9 -4 -9 -10 0 -16 -4 -12 -9 3 -5 6 -32 6 -60 1 -34 5 -49 13 -45 6 3 3
-1 -6 -8 -15 -13 -15 -15 0 -26 9 -7 12 -10 6 -7 -20 8 -24 -21 -7 -46 9 -12
12 -19 6 -16 -6 4 -13 -2 -16 -13 -3 -11 -1 -23 5 -26 6 -4 5 -10 -3 -15 -11
-7 -9 -9 6 -9 16 0 17 -2 6 -9 -12 -8 -13 -12 -1 -25 7 -9 10 -19 6 -23 -3 -3
-6 -1 -6 5 0 7 -4 12 -9 12 -5 0 -8 -8 -6 -17 14 -70 14 -84 2 -76 -6 4 -4 -6
7 -21 10 -16 13 -25 7 -22 -14 9 -12 -64 2 -82 7 -9 5 -11 -8 -6 -14 6 -16 4
-10 -6 11 -17 12 -80 2 -80 -4 0 -3 -9 3 -19 7 -14 6 -21 -3 -24 -9 -4 -9 -6
1 -6 7 -1 10 -6 7 -11 -4 -6 -1 -18 6 -26 10 -12 9 -13 -3 -9 -12 5 -15 0 -12
-20 1 -15 5 -29 7 -32 3 -2 2 -17 -3 -33 -6 -20 -4 -35 8 -51 8 -12 10 -19 4
-15 -8 5 -12 -2 -12 -19 0 -18 4 -24 13 -20 6 4 4 0 -5 -7 -15 -13 -15 -15 0
-26 9 -7 12 -10 6 -7 -20 8 -24 -21 -7 -46 9 -12 12 -19 6 -16 -6 4 -13 -2
-16 -13 -3 -11 -1 -23 5 -26 6 -4 5 -10 -3 -15 -11 -7 -9 -9 6 -9 16 0 17 -2
6 -9 -12 -8 -13 -12 -1 -25 11 -14 10 -16 -4 -10 -11 4 -15 2 -11 -7 8 -24 11
-129 3 -129 -4 0 -3 -11 2 -25 6 -17 6 -25 -1 -25 -6 0 -7 -5 -4 -10 4 -6 10
-8 15 -5 5 3 3 -7 -5 -22 -13 -24 -12 -30 1 -51 9 -14 11 -21 5 -18 -14 9 -12
-64 2 -82 7 -9 5 -11 -8 -6 -14 6 -16 4 -10 -6 11 -17 12 -80 2 -80 -4 0 -3
-9 3 -19 7 -14 6 -21 -3 -24 -9 -4 -9 -6 1 -6 7 -1 10 -6 7 -11 -4 -6 -1 -18
6 -26 10 -12 9 -13 -4 -8 -12 4 -14 1 -10 -15 3 -11 10 -18 17 -15 6 3 3 -1
-6 -8 -15 -13 -15 -15 0 -26 9 -7 12 -10 6 -7 -20 8 -24 -21 -7 -46 9 -12 12
-19 6 -16 -6 4 -13 -2 -16 -13 -3 -11 -1 -23 5 -26 6 -4 5 -10 -3 -15 -11 -7
-11 -9 -1 -9 7 0 10 -5 6 -11 -3 -6 0 -15 7 -20 11 -7 10 -9 -4 -9 -10 0 -16
-4 -12 -9 3 -5 6 -32 6 -60 1 -34 5 -49 13 -45 6 3 3 -1 -6 -8 -15 -13 -15
-15 0 -26 9 -7 12 -10 6 -7 -20 8 -24 -21 -7 -46 9 -12 12 -19 6 -16 -6 4 -13
-2 -16 -13 -3 -11 -1 -23 5 -26 6 -4 5 -10 -3 -15 -11 -7 -9 -9 6 -9 16 0 17
-2 6 -9 -12 -8 -13 -12 -1 -25 7 -9 10 -19 6 -23 -3 -3 -6 -1 -6 5 0 7 -4 12
-9 12 -5 0 -8 -8 -6 -17 14 -70 14 -84 2 -76 -6 4 -4 -6 7 -21 10 -16 13 -25
7 -22 -14 9 -12 -64 2 -82 7 -9 5 -11 -8 -6 -14 6 -16 4 -10 -6 11 -17 12 -80
2 -80 -4 0 -3 -9 3 -19 7 -14 6 -21 -3 -24 -9 -4 -9 -6 1 -6 7 -1 10 -6 7 -11
-4 -6 -1 -18 6 -26 10 -12 9 -13 -3 -9 -12 5 -15 0 -12 -20 1 -15 5 -29 7 -32
3 -2 2 -17 -3 -33 -6 -20 -4 -35 8 -51 8 -12 10 -19 4 -15 -8 5 -12 -2 -12
-19 0 -18 4 -24 13 -20 6 4 4 0 -5 -7 -15 -13 -15 -15 0 -26 9 -7 12 -10 6 -7
-20 8 -24 -21 -7 -46 9 -12 12 -19 6 -16 -6 4 -13 -2 -16 -13 -3 -11 -1 -23 5
-26 6 -4 5 -10 -3 -15 -11 -7 -9 -9 6 -9 16 0 17 -2 6 -9 -12 -8 -13 -12 -1
-25 11 -14 10 -16 -4 -10 -11 4 -15 2 -11 -7 8 -24 11 -129 3 -129 -4 0 -3
-11 2 -25 6 -17 6 -25 -1 -25 -6 0 -7 -5 -4 -10 4 -6 10 -8 15 -5 5 3 3 -7 -5
-22 -13 -24 -12 -30 1 -51 10 -15 11 -21 4 -17 -10 6 -12 1 -8 -19 3 -14 2
-26 -2 -26 -8 0 -5 -37 6 -64 6 -15 4 -17 -7 -11 -9 6 -8 0 5 -19 10 -16 13
-25 7 -22 -15 10 -14 -27 2 -43 10 -10 9 -11 -4 -6 -13 5 -16 1 -14 -17 2 -13
7 -32 11 -42 6 -15 4 -17 -7 -11 -9 6 -8 0 5 -19 10 -16 13 -25 7 -22 -15 10
-14 -27 2 -43 10 -10 9 -11 -4 -6 -13 5 -16 1 -14 -17 2 -13 7 -32 11 -42 6
-15 4 -17 -7 -11 -9 6 -8 0 5 -19 10 -16 13 -25 7 -22 -15 10 -14 -27 2 -43
10 -10 9 -11 -4 -6 -12 4 -15 0 -13 -17 1 -13 3 -27 3 -31 1 -5 5 -6 10 -3 5
4 7 -3 4 -14 -3 -11 -10 -20 -16 -20 -5 0 -2 -10 9 -22 10 -12 13 -18 7 -14
-9 5 -13 -1 -14 -21 -1 -15 0 -32 1 -38 2 -5 2 -25 1 -42 -1 -21 3 -33 11 -34
7 0 4 -4 -7 -9 -11 -5 -15 -9 -9 -9 7 -1 15 -8 18 -17 5 -14 4 -15 -9 -4 -13
11 -14 10 -8 -6 3 -10 11 -22 17 -26 7 -5 4 -8 -7 -8 -14 0 -16 -4 -7 -19 7
-14 6 -21 -3 -24 -8 -4 -9 -6 0 -6 8 -1 9 -10 3 -30 -6 -22 -4 -33 5 -41 14
-12 9 -44 -5 -35 -4 2 -4 -13 0 -35 4 -24 3 -41 -3 -43 -5 -1 -2 -11 7 -20 10
-9 13 -17 8 -17 -13 0 -20 -53 -10 -79 4 -13 3 -21 -3 -21 -6 0 -7 -5 -4 -11
11 -16 11 -79 1 -82 -5 -2 -1 -11 8 -20 16 -16 16 -17 0 -17 -13 0 -14 -3 -4
-15 9 -11 9 -15 1 -15 -7 0 -9 -5 -6 -10 4 -6 12 -7 18 -3 7 4 6 0 -2 -10 -7
-9 -11 -30 -9 -47 3 -17 0 -30 -6 -30 -6 0 -4 -5 4 -10 11 -7 11 -10 2 -10 -7
0 -10 -5 -7 -10 4 -6 12 -7 18 -3 7 3 4 -3 -6 -14 -18 -21 -18 -22 0 -32 10
-6 13 -11 6 -11 -14 0 -16 -99 -2 -117 7 -7 6 -14 -2 -19 -8 -4 -9 -3 -5 4 4
7 2 12 -3 12 -14 0 -14 -6 -1 -31 8 -14 7 -19 -2 -19 -9 0 -9 -3 2 -10 11 -7
11 -10 2 -10 -7 0 -10 -5 -7 -10 4 -6 12 -7 18 -4 8 5 8 3 0 -7 -17 -17 -17
-56 0 -62 8 -4 6 -6 -4 -6 -10 -1 -15 -9 -14 -24 2 -12 8 -21 15 -19 11 3 11
0 1 -12 -8 -9 -11 -27 -9 -41 3 -14 1 -25 -6 -25 -6 0 -4 -5 4 -10 8 -5 10
-10 5 -10 -6 0 -8 -26 -5 -70 3 -38 1 -70 -4 -70 -4 0 -1 -11 8 -25 14 -21 14
-26 3 -31 -9 -3 -12 -14 -9 -29 2 -14 9 -22 16 -19 6 3 4 0 -4 -8 -11 -10 -14
-27 -10 -70 3 -32 2 -58 -1 -58 -3 0 -3 -18 1 -40 4 -22 4 -40 -1 -40 -5 0 -5
-10 0 -22 4 -13 6 -29 3 -37 -3 -9 0 -11 9 -7 8 4 5 0 -5 -8 -18 -15 -15 -21
9 -16 6 1 4 -4 -2 -11 -15 -15 -17 -33 -3 -24 5 3 3 -7 -5 -21 -8 -15 -11 -32
-7 -38 11 -18 11 -36 0 -36 -6 0 -3 -9 7 -20 16 -18 16 -20 2 -26 -13 -5 -14
-10 -6 -25 7 -14 6 -19 -3 -19 -9 0 -9 -3 2 -10 11 -7 11 -10 2 -10 -10 0 -10
-5 -2 -20 6 -11 7 -20 1 -20 -5 0 -6 -14 -1 -35 4 -19 4 -35 0 -35 -5 0 -5
-13 0 -30 6 -21 5 -30 -3 -30 -8 0 -8 -3 0 -11 6 -6 9 -18 6 -27 -5 -11 -2
-13 8 -8 8 4 6 1 -3 -7 -17 -13 -16 -15 5 -26 12 -6 15 -10 6 -7 -9 2 -16 -2
-16 -10 0 -7 4 -11 9 -8 4 3 8 -2 8 -10 0 -27 2 -30 29 -55 14 -13 19 -20 11
-16 -8 4 -2 -3 13 -16 15 -13 30 -33 31 -44 2 -11 9 -19 15 -17 6 1 14 -5 17
-13 3 -8 11 -12 17 -8 6 4 8 0 4 -10 -4 -11 1 -20 16 -27 22 -11 22 -11 2 6
-12 10 -14 15 -5 12 8 -3 21 -17 28 -31 7 -15 18 -27 23 -27 6 0 17 -7 26 -15
8 -8 19 -13 24 -10 5 4 9 -1 9 -9 0 -9 5 -16 11 -16 5 0 7 6 3 13 -5 8 -2 7 9
-2 14 -11 15 -16 5 -29 -11 -13 -11 -14 2 -7 8 5 23 10 32 10 13 1 15 -2 7
-11 -8 -9 -5 -11 10 -7 13 3 21 1 21 -6 0 -7 -5 -9 -12 -5 -7 4 -8 3 -4 -5 6
-8 11 -9 20 -2 9 8 19 5 36 -9 25 -22 35 -26 25 -10 -3 5 -1 10 4 10 6 0 11
-8 11 -17 0 -15 2 -16 10 -3 5 8 10 10 10 4 0 -7 7 -15 16 -18 8 -3 12 -2 9 4
-3 6 1 7 9 4 9 -3 13 -11 9 -18 -3 -6 -1 -6 8 2 17 16 35 16 21 0 -8 -10 -4
-13 14 -14 14 -1 21 2 18 8 -4 6 6 2 22 -8 21 -14 26 -15 19 -4 -8 13 -7 13 8
1 14 -11 17 -11 17 0 0 8 6 5 15 -7 10 -13 14 -14 15 -5 0 9 4 10 13 4 7 -5
138 -9 312 -8 379 2 388 3 380 15 -3 5 -1 10 4 10 6 0 11 -4 11 -9 0 -5 9 -7
20 -4 11 3 18 9 15 13 -6 10 15 8 31 -3 13 -7 24 1 24 17 0 6 -5 4 -10 -4 -6
-9 -10 -10 -10 -3 0 16 17 26 24 14 7 -11 32 -9 43 4 4 4 2 5 -6 0 -9 -5 -12
-4 -7 3 3 6 15 9 26 7 11 -2 20 0 20 6 0 5 5 9 11 9 5 0 7 -6 4 -12 -4 -7 0
-5 8 5 16 19 32 24 21 5 -4 -7 -3 -8 4 -4 7 4 12 15 12 24 0 14 2 15 10 2 8
-12 10 -12 16 3 5 14 9 15 23 5 9 -7 13 -9 9 -4 -10 13 23 45 43 41 21 -4 44
29 33 47 -5 7 -3 8 5 4 7 -5 10 -15 6 -25 -5 -12 -2 -11 14 4 11 11 27 26 36
33 8 7 13 17 10 21 -2 5 3 8 13 7 10 0 16 5 14 13 -2 9 3 11 13 7 9 -3 14 -2
11 3 -3 5 13 28 35 51 28 28 39 48 36 61 -3 10 -1 17 4 13 5 -3 9 0 9 6 0 6 5
8 10 5 13 -8 13 1 0 25 -8 16 -7 18 9 15 17 -3 19 0 11 20 -7 19 -6 23 5 18
18 -6 19 8 3 26 -11 11 -10 13 5 8 12 -5 16 -3 11 4 -4 6 0 15 7 20 12 7 12 9
0 9 -11 0 -11 3 -1 15 10 12 10 15 -1 15 -11 0 -11 2 1 10 8 5 10 10 5 10 -12
0 -13 40 -1 58 4 7 2 12 -4 12 -6 0 -8 5 -3 13 12 20 12 37 0 37 -7 0 -5 5 3
10 8 5 10 10 3 10 -12 0 -12 17 0 37 4 6 3 14 -2 17 -11 7 -9 25 3 45 5 7 5
16 -1 20 -10 7 -11 21 0 38 4 6 3 14 -2 17 -10 7 -9 25 2 43 5 8 3 13 -4 13
-8 0 -8 4 1 15 10 12 10 15 -1 15 -9 0 -10 3 -4 8 15 11 17 32 2 32 -8 0 -7 4
3 10 8 5 10 10 3 10 -12 0 -12 17 0 37 4 6 3 14 -2 17 -10 7 -9 25 2 44 5 7 3
12 -3 12 -8 0 -7 6 1 21 8 17 8 23 -1 29 -8 5 -9 13 -4 21 13 21 13 39 1 39
-7 0 -5 5 3 10 8 5 10 10 4 10 -12 0 -12 60 0 79 4 6 2 11 -5 11 -8 0 -8 4 1
15 7 8 9 15 4 15 -11 0 -10 62 0 78 4 7 2 12 -5 12 -8 0 -8 4 1 15 7 8 9 15 4
15 -11 0 -10 62 0 78 4 7 2 12 -4 12 -7 0 -8 6 0 19 6 12 6 22 1 25 -10 7 -9
25 2 44 5 7 3 12 -3 12 -8 0 -7 6 1 21 8 17 8 23 -1 29 -8 5 -9 13 -4 21 13
21 13 39 1 39 -7 0 -5 5 3 10 8 5 10 10 3 10 -12 0 -12 17 0 37 4 6 3 14 -2
17 -11 7 -9 25 3 45 5 7 5 16 -1 20 -10 7 -11 21 0 38 4 6 3 14 -2 17 -10 7
-9 25 2 44 5 7 3 12 -3 12 -8 0 -7 6 1 21 6 12 7 24 3 28 -11 7 -15 41 -5 41
4 0 7 9 7 20 0 11 -3 20 -7 20 -9 0 -6 21 4 38 5 6 5 12 0 12 -10 0 -9 52 1
68 4 7 2 12 -5 12 -8 0 -8 4 1 15 7 8 9 15 4 15 -11 0 -10 62 0 78 4 7 2 12
-5 12 -8 0 -8 4 1 15 7 8 9 15 4 15 -11 0 -10 62 0 78 4 7 2 12 -4 12 -6 0 -8
5 -3 13 12 20 12 37 0 37 -7 0 -5 5 3 10 8 5 10 10 3 10 -12 0 -12 17 0 37 4
6 3 14 -2 17 -11 7 -9 25 3 45 5 7 5 16 -1 20 -10 7 -11 21 0 38 4 6 3 14 -2
17 -10 7 -9 25 2 44 5 7 3 12 -4 12 -8 0 -8 4 1 15 10 12 10 15 -1 15 -9 0
-10 3 -4 8 15 11 17 32 2 32 -8 0 -7 4 3 10 8 5 10 10 3 10 -12 0 -12 17 0 37
4 6 3 14 -2 17 -10 7 -9 25 2 44 5 7 3 12 -3 12 -8 0 -7 6 1 21 8 17 8 23 -1
29 -8 5 -9 13 -4 21 13 21 13 39 1 39 -7 0 -5 5 3 10 8 5 10 10 4 10 -12 0
-12 60 0 79 4 6 2 11 -5 11 -8 0 -8 4 1 15 7 8 9 15 4 15 -11 0 -10 62 0 78 4
7 2 12 -5 12 -8 0 -8 4 1 15 7 8 9 15 4 15 -11 0 -10 62 0 78 4 7 2 12 -4 12
-7 0 -8 6 0 19 6 12 6 22 1 25 -10 7 -9 25 2 44 5 7 3 12 -3 12 -8 0 -7 6 1
21 8 17 8 23 -1 29 -8 5 -9 13 -4 21 13 21 13 39 1 39 -7 0 -5 5 3 10 8 5 10
10 3 10 -12 0 -12 17 0 37 4 6 3 14 -2 17 -11 7 -9 25 3 45 5 8 4 16 -4 21
-13 8 -13 19 1 37 6 7 6 13 0 17 -10 7 -9 25 2 44 5 7 3 12 -3 12 -8 0 -7 6 1
21 6 12 7 24 3 28 -11 7 -15 41 -5 41 4 0 7 9 7 20 0 11 -3 20 -7 20 -9 0 -6
21 4 38 5 6 5 12 0 12 -10 0 -9 52 1 68 4 7 2 12 -5 12 -8 0 -8 4 1 15 7 8 9
15 4 15 -11 0 -10 62 0 78 4 7 2 12 -5 12 -8 0 -8 4 1 15 7 8 9 15 4 15 -11 0
-10 62 0 78 4 7 2 12 -4 12 -7 0 -8 6 0 19 6 12 6 22 1 25 -10 7 -9 25 2 44 5
7 3 12 -3 12 -8 0 -7 6 1 21 8 17 8 23 -1 29 -8 5 -9 13 -4 21 13 21 13 39 1
39 -7 0 -5 5 3 10 8 5 10 10 3 10 -12 0 -12 17 0 37 4 6 3 14 -2 17 -11 7 -9
25 3 45 5 8 4 16 -4 21 -13 8 -13 19 1 37 6 7 6 13 0 17 -10 7 -9 25 2 44 5 7
3 12 -3 12 -8 0 -7 6 1 21 6 12 7 24 3 28 -11 7 -15 41 -5 41 4 0 7 9 7 20 0
11 -3 20 -7 20 -9 0 -6 21 4 38 5 7 3 12 -3 12 -7 0 -8 6 0 19 6 12 6 22 1 25
-10 7 -9 25 2 44 5 7 3 12 -3 12 -8 0 -7 6 1 21 8 17 8 23 -1 29 -8 5 -9 13
-4 21 13 21 13 39 1 39 -7 0 -5 5 3 10 8 5 10 10 3 10 -12 0 -12 17 0 37 4 6
3 14 -2 17 -11 7 -9 25 3 45 5 8 4 16 -4 21 -13 8 -13 19 1 37 6 7 6 13 0 17
-10 7 -9 25 2 44 5 7 3 12 -3 12 -8 0 -7 6 1 21 6 12 7 24 3 28 -11 7 -15 41
-5 41 4 0 7 9 7 20 0 11 -3 20 -7 20 -9 0 -6 21 4 38 5 7 3 12 -3 12 -7 0 -8
6 0 19 6 12 6 22 1 25 -10 7 -9 25 2 44 5 7 3 12 -3 12 -8 0 -7 6 1 21 8 17 8
23 -1 29 -8 5 -9 13 -4 21 13 21 13 39 1 39 -7 0 -5 5 3 10 8 5 10 10 3 10
-12 0 -12 17 0 37 4 6 3 14 -2 17 -11 7 -9 25 3 45 5 8 4 16 -4 21 -13 8 -13
19 1 37 6 7 6 13 0 17 -10 7 -9 25 2 44 5 7 3 12 -3 12 -8 0 -7 6 1 21 6 12 7
24 3 28 -11 7 -15 41 -5 41 4 0 7 9 7 20 0 11 -3 20 -7 20 -9 0 -6 21 4 38 5
7 3 12 -3 12 -7 0 -8 6 0 19 6 12 6 22 1 25 -10 7 -9 25 2 44 5 7 3 12 -3 12
-8 0 -7 6 1 21 8 17 8 23 -1 29 -8 5 -9 13 -4 21 13 21 13 39 1 39 -7 0 -5 5
3 10 8 5 10 10 3 10 -12 0 -12 17 0 37 4 6 3 14 -2 17 -11 7 -9 25 3 45 5 8 4
16 -4 21 -13 8 -13 19 1 37 6 7 6 13 0 17 -10 7 -9 25 2 44 5 7 3 12 -3 12 -8
0 -7 6 1 21 6 12 7 24 3 28 -11 7 -15 41 -5 41 4 0 7 9 7 20 0 11 -3 20 -7 20
-9 0 -6 21 4 37 5 7 5 13 0 13 -10 0 -9 52 1 68 4 7 2 12 -5 12 -8 0 -8 4 1
15 7 8 9 15 4 15 -11 0 -10 62 0 78 4 7 2 12 -5 12 -8 0 -8 4 1 15 7 8 9 15 4
15 -11 0 -10 62 0 78 4 7 2 12 -4 12 -7 0 -8 6 0 19 6 12 6 22 1 25 -10 7 -9
25 2 44 5 7 3 12 -3 12 -8 0 -7 6 1 21 8 17 8 23 -1 29 -8 5 -9 13 -4 21 13
21 13 39 1 39 -7 0 -5 5 3 10 8 5 10 10 3 10 -12 0 -12 17 0 37 4 6 3 14 -2
17 -10 7 -9 25 2 44 5 7 3 12 -3 12 -8 0 -7 6 1 21 8 17 8 23 -1 29 -8 5 -9
13 -4 21 13 21 13 39 1 39 -7 0 -5 5 3 10 8 5 10 10 3 10 -12 0 -12 17 0 36 3
6 3 14 0 18 -12 11 -12 36 -1 36 6 0 1 9 -12 20 -22 19 -22 21 -7 38 10 10 15
22 12 25 -3 4 -2 5 1 3 11 -8 64 16 57 27 -4 7 0 8 11 4 10 -4 20 -7 22 -7 3
0 3 -4 0 -8 -2 -4 23 -7 56 -7 33 0 62 -3 65 -8 2 -4 9 -5 14 -2 5 4 9 1 9 -4
0 -6 4 -11 10 -11 5 0 8 6 6 13 -1 6 -1 9 1 4 3 -4 10 -4 15 -1 7 4 8 2 4 -5
-5 -8 2 -11 21 -11 64 0 73 -2 73 -11 0 -6 7 -6 19 0 14 8 20 7 24 -2 3 -8 32
-12 96 -11 83 1 90 0 79 -15 -12 -14 -11 -14 5 -2 9 8 20 11 24 8 3 -4 12 -2
20 4 7 6 13 7 13 2 0 -5 7 -10 15 -10 8 0 15 4 15 8 0 4 9 7 19 6 11 0 18 -4
15 -8 -2 -4 5 -9 16 -12 11 -3 18 -2 15 3 -3 4 2 10 10 14 8 3 17 0 21 -6 4
-7 3 -8 -4 -4 -8 5 -10 2 -6 -9 6 -14 8 -14 20 2 11 15 13 15 14 3 0 -12 2
-13 9 -1 7 11 15 11 41 3 29 -10 31 -10 26 6 -6 16 -5 16 7 0 12 -15 14 -15
25 0 7 9 10 11 6 3 -5 -10 -3 -13 9 -8 9 3 19 2 22 -3 3 -6 15 -6 30 0 16 6
27 6 31 -1 4 -6 14 -3 27 8 18 16 20 16 14 1 -4 -12 -2 -15 8 -11 8 3 13 8 10
12 -2 4 10 7 28 6 21 -2 31 -7 29 -15 -3 -11 0 -11 12 -1 8 7 20 10 25 7 5 -4
12 -2 15 2 3 5 37 8 76 8 56 -1 70 2 71 14 0 10 2 11 6 3 2 -7 9 -13 14 -13 6
0 8 4 5 9 -7 11 13 9 33 -3 11 -7 13 -5 8 7 -5 14 -2 15 19 7 32 -13 37 -12
28 1 -5 8 -2 9 12 1 15 -8 24 -7 38 6 11 9 16 11 12 4 -9 -16 6 -16 23 0 11
10 13 10 7 1 -9 -16 -1 -16 25 -2 15 8 25 7 37 -2 9 -8 14 -9 10 -5 -10 11 33
35 47 27 15 -9 54 -8 49 1 -8 13 11 9 25 -5 10 -10 11 -8 5 8 -7 18 -6 19 11
5 10 -8 16 -10 12 -3 -4 6 -3 14 3 18 5 3 10 1 10 -5 0 -8 6 -8 20 0 15 8 20
8 20 -2 0 -10 2 -10 9 1 7 11 9 11 14 0 4 -10 6 -10 6 -1 1 6 10 12 22 12 13
0 18 4 13 13 -5 8 -2 8 9 -2 12 -9 17 -10 17 -2 0 7 5 9 11 6 5 -4 19 1 29 10
11 10 20 12 24 6 4 -5 16 -7 29 -5 12 3 34 7 50 8 15 2 35 10 44 17 11 10 14
10 9 2 -4 -7 -2 -13 3 -13 6 0 11 5 11 11 0 5 5 7 10 4 6 -3 10 -1 10 4 0 6 5
11 11 11 5 0 7 -4 4 -10 -3 -5 -1 -10 4 -10 6 0 11 8 11 18 0 9 4 13 8 7 13
-18 32 -16 25 3 -6 15 -5 15 10 3 12 -9 17 -10 17 -2 0 7 5 9 10 6 6 -3 10 0
10 7 0 8 3 9 8 3 4 -5 13 -11 21 -13 12 -3 12 -1 1 15 -8 10 -10 15 -6 11 5
-4 15 -3 23 3 9 9 17 8 27 0 12 -10 16 -8 21 10 5 15 10 18 15 9 9 -15 23 -13
33 6 8 14 12 13 30 -3 19 -16 20 -16 8 0 -13 17 -12 18 22 21 6 1 20 10 29 21
10 11 17 15 18 8 0 -6 9 -11 20 -10 11 1 19 6 16 12 -2 7 2 12 10 12 7 0 10
-5 7 -11 -4 -6 1 -5 10 3 10 8 20 11 24 8 3 -4 12 1 20 11 9 10 12 11 7 2 -5
-10 0 -9 14 4 12 11 22 16 22 11 0 -4 7 -2 15 5 8 7 29 14 46 15 18 2 36 10
41 19 5 9 14 14 19 10 5 -3 21 2 35 11 14 9 32 14 39 11 9 -3 12 0 9 8 -3 7 1
13 8 14 45 6 57 10 73 26 10 9 24 15 32 12 8 -3 11 -1 8 4 -3 6 3 10 14 10 13
0 21 7 21 18 0 13 2 14 9 3 7 -11 10 -10 18 4 5 9 12 16 14 15 2 -1 18 4 34
11 17 7 33 12 38 11 4 -1 7 6 8 16 0 11 2 12 6 4 4 -9 10 -7 23 8 13 15 19 17
23 8 4 -11 6 -10 6 0 1 7 5 11 10 7 5 -3 13 0 17 6 4 8 3 9 -4 5 -7 -4 -12 -2
-12 5 0 6 8 9 20 6 13 -3 18 -1 13 6 -4 6 0 8 10 4 11 -4 17 -1 17 9 0 8 5 12
10 9 6 -3 10 -1 10 5 0 7 7 10 15 6 8 -3 14 0 12 7 -1 7 8 12 20 11 18 0 20 2
11 13 -9 11 -7 12 7 7 13 -5 16 -4 11 4 -4 7 -3 12 3 12 6 0 19 9 30 21 14 15
21 17 26 8 5 -8 4 -10 -3 -5 -7 4 -12 2 -12 -4 0 -15 25 -7 26 8 1 7 2 16 3
22 0 5 9 6 18 3 12 -5 15 -2 10 10 -3 9 -3 16 1 16 21 -3 32 3 32 19 0 14 2
15 10 2 8 -12 11 -11 16 8 4 13 11 21 17 19 14 -4 47 24 47 40 0 7 3 12 8 11
13 -4 52 26 52 40 0 8 5 10 12 6 8 -5 9 -2 5 9 -3 9 -3 16 1 16 20 -3 32 2 29
14 -1 6 4 11 11 10 6 -2 12 2 12 8 0 5 6 7 13 3 9 -6 9 -4 -1 8 -11 13 -10 16
5 14 9 0 22 9 28 21 9 18 14 20 24 10 10 -9 11 -8 6 5 -4 10 2 25 14 37 12 12
21 18 21 13 1 -4 8 7 17 23 10 17 16 34 15 39 -2 5 4 3 13 -4 9 -7 15 -9 14
-4 -5 29 2 46 17 40 14 -6 15 -4 4 9 -11 13 -11 16 1 13 8 -2 15 7 17 20 2 12
8 22 13 22 6 0 7 -5 3 -12 -4 -7 -3 -8 5 -4 6 4 9 11 6 16 -3 5 3 18 15 30 11
11 20 25 20 30 0 6 5 10 10 10 6 0 10 7 10 16 0 9 5 12 12 8 6 -4 8 -3 5 4
-10 15 3 43 16 35 6 -3 7 -1 3 6 -4 6 0 14 9 17 12 5 13 9 4 20 -11 13 -5 19
15 15 5 -1 4 4 -3 13 -9 11 -9 16 0 22 8 5 9 3 4 -6 -5 -9 -4 -11 3 -6 7 4 12
14 12 22 0 9 5 12 11 8 6 -3 15 0 20 7 7 12 9 11 9 -1 0 -11 10 -15 35 -14 19
1 35 -2 35 -8 0 -5 5 -6 10 -3 6 4 7 12 3 18 -5 8 -2 8 9 0 8 -7 19 -9 23 -5
5 4 5 1 1 -6 -4 -7 -12 -9 -18 -6 -6 4 -8 3 -5 -3 7 -11 46 -11 65 0 7 5 14 2
18 -7 3 -8 12 -17 20 -20 9 -3 12 -1 9 4 -3 6 -2 10 3 10 6 0 12 -7 16 -15 3
-8 12 -12 21 -9 8 3 12 11 9 18 -3 6 4 0 16 -14 12 -14 19 -20 16 -14 -3 7 6
14 21 17 26 5 27 4 8 -10 -19 -14 -18 -14 13 -10 17 3 32 1 32 -4 0 -6 8 -9
18 -7 10 2 16 -2 14 -10 -1 -8 2 -11 8 -7 6 3 8 11 5 16 -4 5 -2 9 3 9 6 0 13
-7 16 -15 5 -13 10 -14 27 -4 17 8 20 8 14 -1 -5 -8 -3 -11 6 -8 8 3 21 -1 31
-9 12 -11 18 -11 24 -2 5 8 3 10 -6 4 -9 -6 -11 -4 -5 5 6 10 11 9 21 -5 8
-10 17 -15 21 -12 3 4 16 1 27 -6 12 -7 38 -13 59 -13 20 1 37 -1 37 -4 0 -3
21 -5 48 -5 31 1 51 -5 59 -15 9 -11 12 -11 13 -2 0 10 5 10 20 2 12 -6 29 -8
40 -5 10 3 21 1 24 -4 4 -6 18 -6 37 -1 27 8 30 7 25 -8 -5 -15 -5 -15 8 1 11
14 15 15 19 3 4 -10 15 -12 46 -6 25 4 41 4 41 -3 0 -5 8 -3 17 4 11 10 14 10
9 1 -5 -8 0 -12 14 -12 14 0 19 4 14 13 -6 9 -4 9 7 1 8 -6 33 -11 57 -10 23
1 42 -2 42 -6 0 -3 14 -3 30 2 17 5 30 6 30 2 0 -4 10 -13 23 -21 17 -10 19
-11 10 0 -7 7 -13 16 -13 20 0 12 40 -3 41 -15 0 -6 4 -2 9 9 5 11 9 14 9 6 1
-10 4 -11 15 -2 11 9 16 9 22 0 4 -7 3 -9 -3 -6 -5 3 -10 0 -10 -7 0 -11 5
-12 21 -3 12 7 25 17 29 22 5 6 6 -1 3 -15 -4 -22 -4 -23 8 -7 14 18 31 24 20
6 -5 -8 -1 -8 14 0 16 9 24 7 38 -7 16 -15 17 -15 12 0 -10 26 19 30 37 5 12
-17 15 -18 15 -5 0 12 5 15 17 11 11 -4 14 -3 9 5 -5 8 -2 10 8 6 9 -3 14 -10
11 -14 -3 -5 -1 -11 5 -15 5 -3 10 1 10 9 0 9 5 16 11 16 5 0 8 -4 5 -8 -3 -5
1 -9 9 -9 8 0 15 7 15 14 0 8 5 11 10 8 6 -4 8 -10 6 -14 -3 -4 8 -5 24 -3 19
3 27 8 23 16 -5 8 -3 8 8 0 18 -15 61 -25 53 -13 -3 5 1 10 8 10 24 2 43 -3
50 -14 5 -8 8 -4 8 8 0 17 2 17 10 5 9 -13 10 -13 10 0 0 13 1 13 10 0 9 -13
10 -13 10 0 0 13 2 13 9 1 8 -12 12 -12 25 -2 13 11 16 11 16 0 0 -11 2 -11
10 1 6 10 10 11 10 3 0 -8 7 -10 23 -5 28 9 48 9 66 -2 10 -7 12 -5 6 4 -6 9
2 11 34 7 29 -3 47 0 57 10 11 11 14 12 14 1 0 -10 3 -9 10 2 7 11 10 11 10 2
0 -8 5 -10 13 -5 19 12 57 11 57 -1 0 -6 4 -5 9 2 4 8 14 13 22 12 34 -5 80 1
74 9 -3 5 -1 13 5 16 6 4 9 1 8 -5 -2 -7 5 -14 15 -15 12 -2 17 1 13 10 -4 11
0 12 19 5 14 -5 25 -6 25 -1 0 5 10 7 22 3 12 -3 19 -1 15 4 -8 13 36 13 45 0
5 -7 8 -6 8 3 0 7 6 11 15 7 8 -3 15 0 15 6 0 6 6 5 17 -3 14 -12 16 -12 8 0
-6 11 -4 13 8 8 10 -4 17 -1 17 6 0 8 3 8 8 1 8 -12 53 -14 45 -1 -3 5 -12 6
-20 3 -8 -3 -11 -1 -8 4 6 10 33 9 52 -3 6 -4 14 -3 18 3 4 6 11 8 16 5 5 -4
9 -2 9 4 0 5 11 8 25 7 15 -2 22 1 18 7 -4 6 0 8 9 4 9 -3 21 0 27 6 8 8 11 8
11 -2 0 -7 5 -9 10 -6 6 4 7 12 3 18 -4 7 2 5 12 -3 10 -8 16 -10 13 -5 -4 6
2 17 14 24 11 7 17 8 14 2 -4 -6 5 -9 23 -8 16 1 29 6 28 11 -1 5 4 11 12 14
9 3 11 0 6 -9 -6 -11 -5 -12 6 -1 7 6 21 12 30 12 9 0 22 7 29 15 7 8 16 12
21 9 19 -11 49 -13 43 -2 -5 7 0 9 14 6 12 -3 23 0 26 7 2 7 16 11 31 10 16
-2 28 2 32 12 5 12 7 12 14 1 7 -11 9 -11 9 1 0 7 6 11 15 8 8 -4 17 -2 20 3
4 6 17 10 30 10 13 0 27 5 31 11 3 6 15 8 26 6 12 -4 18 -1 15 6 -3 8 8 12 31
13 20 1 38 7 40 13 2 6 8 11 13 11 6 0 7 -6 4 -12 -4 -7 0 -6 7 4 11 13 18 14
33 5 17 -9 18 -8 8 4 -10 12 -8 15 10 16 12 1 23 7 25 13 2 5 8 10 13 10 6 0
7 -6 4 -12 -4 -7 2 -3 12 10 15 18 21 20 32 10 11 -10 12 -10 7 0 -4 6 -3 12
1 12 5 0 15 -6 22 -12 10 -11 11 -9 5 6 -6 15 -4 18 9 13 9 -3 19 -2 22 4 4 5
11 7 16 3 5 -3 8 -1 7 4 -2 6 1 9 5 9 5 -1 13 6 18 16 7 11 18 16 34 13 17 -3
22 -1 19 8 -3 8 2 16 11 20 9 3 14 2 10 -3 -6 -11 22 -8 32 4 4 4 2 5 -6 0 -9
-5 -12 -4 -7 3 4 7 14 12 22 12 8 0 17 6 20 14 3 8 14 13 25 11 10 -2 22 1 25
7 4 6 3 8 -3 5 -5 -3 -10 0 -10 7 0 8 10 12 26 10 27 -3 65 27 53 42 -4 5 1 2
11 -5 15 -12 17 -12 11 4 -5 13 -4 16 4 11 7 -4 12 -2 12 5 0 7 3 10 6 6 3 -3
16 5 29 19 16 18 25 21 28 12 3 -8 6 -6 6 5 1 10 6 15 11 12 6 -3 10 1 10 10
0 9 5 13 10 10 6 -3 10 -1 10 5 0 6 4 9 9 6 5 -3 21 6 35 19 15 14 32 25 37
25 6 0 8 4 5 9 -3 5 1 12 10 15 8 3 12 11 8 17 -4 8 -3 9 5 5 13 -9 45 20 36
33 -3 6 4 8 15 6 13 -3 18 0 14 7 -5 7 -2 9 8 6 11 -5 14 0 12 18 -2 21 0 23
12 13 12 -10 13 -9 8 6 -4 10 -3 16 2 13 5 -3 19 5 32 18 12 13 20 24 17 24
-3 0 4 9 15 20 12 12 18 26 13 33 -4 7 2 5 12 -3 15 -12 17 -12 10 -1 -5 9 -3
18 6 25 8 6 20 19 28 29 12 16 12 17 -5 11 -18 -5 -18 -5 -1 6 10 6 14 16 10
23 -4 7 2 5 12 -3 14 -11 17 -11 11 -1 -5 7 -4 16 2 20 5 3 12 15 14 26 1 11
11 26 20 33 9 7 15 21 13 32 -3 13 2 20 12 20 13 0 14 2 2 17 -10 11 -10 14
-1 9 8 -5 12 1 12 19 0 17 4 24 12 19 8 -5 9 0 6 14 -4 12 -2 20 3 16 13 -8
11 10 -3 25 -11 11 -10 13 0 7 14 -8 20 5 26 53 2 18 8 36 12 40 5 3 10 17 10
31 2 40 3 42 17 35 6 -4 5 0 -4 7 -14 11 -14 15 -2 26 15 15 8 35 -10 26 -7
-3 -1 4 13 15 14 11 20 21 14 21 -7 0 -15 7 -18 16 -4 10 -2 13 6 8 8 -5 9 -2
5 9 -4 10 -1 17 6 17 8 0 6 4 -3 10 -13 9 -13 10 0 10 12 0 12 2 1 9 -9 6 -10
11 -2 15 6 4 8 12 4 19 -9 15 -10 57 -1 51 10 -6 10 -6 -2 34 -8 31 -8 33 8
20 16 -12 16 -11 0 13 -12 18 -13 30 -6 43 8 14 7 21 -3 27 -11 7 -9 9 6 9 18
1 19 1 2 11 -13 8 -15 15 -8 28 7 12 6 22 -1 29 -8 8 -8 15 2 27 10 12 10 15
0 15 -10 0 -10 3 -1 14 9 10 9 16 1 21 -8 5 -8 10 0 20 8 10 8 15 -1 21 -8 5
-9 3 -4 -6 5 -9 4 -11 -4 -6 -6 4 -9 12 -5 17 3 5 0 18 -8 27 -12 15 -11 16 4
4 23 -18 31 6 10 31 -10 12 -11 17 -3 17 7 0 9 5 6 10 -4 6 -11 7 -17 4 -7 -4
-8 -2 -4 4 4 6 14 9 24 6 14 -5 14 -4 -1 6 -14 9 -17 19 -12 37 4 18 3 23 -7
17 -8 -5 -8 -1 2 11 12 14 12 19 2 23 -10 3 -10 7 -1 18 8 10 8 14 0 14 -13 0
-10 22 4 33 6 4 4 11 -5 17 -13 9 -13 10 0 10 12 0 12 2 1 9 -10 6 -10 13 -2
28 5 11 8 23 5 26 -9 9 -12 57 -3 51 5 -3 9 0 9 5 0 6 -4 11 -8 11 -10 0 -8
67 2 77 3 3 0 15 -6 26 -9 17 -8 19 7 13 15 -5 16 -4 5 9 -7 8 -9 15 -5 15 4
0 2 7 -5 15 -11 13 -10 14 5 9 13 -5 16 -4 11 5 -4 6 -3 18 4 26 8 10 8 15 -1
21 -8 5 -9 3 -4 -6 5 -9 4 -11 -3 -6 -9 5 -8 13 3 30 8 12 12 26 8 29 -10 10
-10 77 0 77 4 0 5 5 2 10 -4 6 -12 8 -18 4 -7 -3 -3 2 7 10 13 11 15 16 6 16
-7 0 -10 3 -7 7 4 3 2 12 -5 20 -6 8 -7 13 -2 11 5 -2 9 2 9 7 0 6 -3 9 -8 7
-4 -1 -2 7 5 17 9 15 8 24 -5 44 -11 17 -13 28 -7 32 6 4 9 1 8 -6 -2 -6 4
-14 12 -16 13 -4 13 -3 0 6 -8 6 -11 11 -6 11 5 0 2 8 -7 18 -13 14 -14 21 -5
30 9 9 9 12 -1 12 -7 0 -11 6 -8 14 3 7 -1 26 -9 42 -8 16 -13 36 -11 46 3 9
2 17 -2 16 -3 0 -13 0 -21 1 -13 1 -13 2 0 11 8 5 10 10 3 10 -6 0 -9 9 -6 23
4 18 3 19 -6 7 -9 -13 -11 -12 -12 5 -1 11 -1 26 0 33 1 6 -3 12 -10 12 -6 0
-9 8 -6 20 3 14 0 20 -10 20 -13 0 -13 2 -2 17 10 11 10 14 2 9 -12 -6 -18 5
-14 27 0 4 -4 7 -9 7 -5 0 -9 3 -9 8 4 21 -2 32 -13 26 -10 -6 -10 -4 0 8 10
13 10 18 1 24 -8 5 -9 3 -4 -6 5 -9 4 -11 -3 -6 -7 4 -12 16 -12 27 0 11 -7
19 -17 19 -15 0 -16 2 -3 10 11 7 11 10 2 10 -7 0 -11 4 -8 9 3 5 -1 11 -9 15
-8 3 -15 12 -15 21 0 8 -6 15 -12 15 -9 0 -8 4 2 10 13 8 12 10 -2 10 -17 0
-23 12 -19 34 1 5 -5 4 -13 -3 -12 -10 -14 -8 -12 13 2 18 -1 23 -12 18 -10
-3 -13 -1 -8 6 4 7 1 12 -7 12 -8 0 -18 11 -21 25 -4 14 -11 23 -16 20 -5 -3
-7 4 -5 15 2 12 0 18 -6 14 -6 -3 -13 3 -16 15 -3 11 -9 18 -14 15 -9 -5 -13
10 -10 30 1 5 -5 4 -13 -3 -13 -11 -15 -10 -11 8 2 14 -1 21 -11 21 -8 0 -14
5 -14 11 0 5 -5 7 -12 3 -6 -4 -8 -3 -5 3 8 13 -17 36 -27 26 -4 -4 -4 0 -1 9
4 9 1 19 -6 24 -8 4 -10 3 -5 -4 5 -8 2 -10 -9 -6 -13 5 -13 9 -3 23 7 9 9 13
4 9 -4 -4 -13 -2 -20 3 -6 5 -20 17 -32 27 -11 9 -23 25 -27 35 -3 9 -13 17
-22 17 -8 0 -16 5 -16 10 -1 6 -2 15 -3 20 0 6 -4 10 -8 10 -17 0 -44 35 -34
43 7 5 1 7 -12 4 -13 -3 -21 -3 -18 0 3 3 -7 17 -22 31 -15 13 -21 21 -13 17
10 -6 12 -4 7 4 -9 13 -56 35 -69 32 -5 -1 -6 3 -2 9 4 6 12 7 19 3 7 -4 0 2
-14 14 -14 13 -31 23 -38 23 -7 0 -10 5 -7 10 3 6 -1 10 -9 10 -9 0 -16 7 -16
15 0 9 -6 12 -15 9 -11 -5 -13 -2 -8 12 5 13 3 16 -10 11 -11 -4 -18 1 -22 14
-4 12 -13 18 -20 15 -9 -3 -12 0 -8 10 4 10 0 12 -13 7 -9 -3 -15 -2 -12 3 3
5 0 14 -7 21 -11 10 -15 10 -18 0 -3 -7 -6 -4 -6 7 -1 11 -6 16 -15 13 -10 -4
-14 0 -11 12 3 14 -1 17 -16 14 -14 -4 -19 0 -19 13 0 16 -2 17 -10 4 -9 -13
-10 -13 -11 0 -1 8 -1 19 0 23 1 5 -3 6 -9 2 -5 -3 -10 -1 -10 5 0 7 -7 9 -16
6 -12 -5 -15 -2 -10 9 3 9 2 13 -4 10 -5 -3 -18 4 -29 16 -12 13 -24 18 -33
13 -11 -6 -11 -5 0 8 11 14 10 16 -7 11 -15 -4 -21 -1 -21 10 0 9 -5 19 -12
23 -7 4 -8 3 -4 -4 12 -19 -2 -14 -26 10 -13 13 -22 27 -20 32 2 5 -4 6 -12 3
-8 -3 -22 1 -33 9 -10 9 -12 12 -4 8 9 -4 12 -3 7 4 -4 6 -14 8 -23 5 -11 -4
-14 -3 -9 5 6 10 -4 16 -25 14 -14 -2 -4 30 15 45 l21 18 -19 -25 c-11 -14 -6
-11 13 8 17 17 36 32 42 32 5 0 9 5 9 11 0 5 -5 7 -12 3 -7 -4 -8 -3 -4 5 4 6
11 9 16 6 5 -3 20 -1 32 5 21 10 22 10 5 -3 -12 -10 -14 -17 -8 -22 6 -3 11
-2 11 3 0 14 35 21 54 10 10 -6 16 -5 16 2 0 8 6 8 20 0 14 -8 20 -8 20 0 0 6
5 8 11 4 21 -12 54 -10 67 6 8 8 11 9 7 3 -3 -7 -1 -13 4 -13 6 0 11 5 11 12
0 6 6 4 13 -7 11 -14 16 -15 22 -5 6 9 4 11 -5 5 -8 -5 -11 -4 -6 3 4 6 13 9
21 6 8 -4 13 -9 10 -13 -2 -4 2 -8 9 -8 9 0 12 7 8 16 -5 14 -4 14 13 1 10 -8
16 -10 12 -3 -4 6 -2 15 4 19 7 4 9 3 5 -4 -3 -6 -2 -13 3 -16 5 -4 12 -2 15
3 7 10 25 9 44 -3 7 -4 12 -4 11 1 -4 22 3 25 17 7 8 -10 13 -14 10 -8 -6 13
18 26 29 16 10 -10 49 -8 58 3 4 6 11 4 17 -5 5 -9 10 -10 10 -3 0 13 18 12
39 -1 9 -6 12 -5 8 1 -4 6 0 14 9 17 12 5 15 2 10 -11 -6 -17 -5 -17 8 0 10
13 15 15 19 5 4 -10 7 -10 18 1 12 12 12 13 0 6 -10 -6 -12 -4 -6 4 5 9 11 9
17 3 6 -6 17 -8 26 -5 11 5 13 3 7 -8 -5 -8 4 -3 20 11 16 14 25 20 21 13 -3
-6 -2 -14 4 -18 5 -3 10 -2 10 3 0 5 18 8 40 6 22 -1 43 2 46 7 3 6 12 5 22
-3 12 -10 14 -10 8 0 -6 10 23 16 60 11 4 0 11 5 15 13 5 7 9 8 9 3 0 -6 9
-11 20 -12 11 -1 20 2 20 8 0 5 5 9 11 9 5 0 7 -4 4 -10 -3 -6 1 -7 9 -4 9 3
13 11 9 18 -4 7 -1 7 7 -1 11 -10 16 -9 27 5 8 9 12 11 8 5 -3 -7 -2 -13 2
-13 5 0 15 6 22 13 11 9 12 9 7 0 -5 -9 -2 -11 8 -7 9 3 16 10 16 16 0 5 7 2
16 -6 17 -17 25 -20 23 -8 -4 21 2 24 14 7 11 -14 16 -15 22 -5 5 9 4 11 -3 6
-7 -4 -12 -3 -12 2 0 12 42 24 50 14 9 -12 32 -13 24 -1 -4 8 0 9 15 4 16 -5
21 -2 22 12 0 16 1 16 9 -2 5 -12 9 -14 9 -6 1 8 4 11 8 8 3 -4 13 -1 21 6 9
6 13 7 9 1 -3 -6 0 -11 8 -11 8 0 11 5 8 10 -4 6 3 8 15 5 13 -4 22 -1 22 5 0
8 3 7 9 -1 7 -11 9 -11 14 1 4 12 21 15 65 14 33 -1 58 1 56 5 -2 4 0 9 6 13
5 3 10 0 10 -7 0 -10 2 -10 9 1 5 7 23 14 40 15 17 0 31 5 31 11 0 5 5 3 10
-5 7 -12 12 -12 22 -2 6 6 20 12 31 12 11 0 15 5 11 11 -5 8 -1 8 14 0 14 -8
23 -8 27 -1 5 8 11 7 21 -1 12 -10 13 -9 7 7 -6 16 -5 17 9 6 11 -9 18 -10 23
-2 3 6 11 8 16 5 5 -4 9 -2 9 4 0 5 9 8 20 6 11 -2 20 1 20 7 0 7 5 6 14 -1
11 -9 16 -9 22 0 5 8 3 9 -6 4 -8 -5 -11 -4 -7 2 4 6 20 9 37 7 23 -3 30 0 30
13 0 15 2 14 16 -3 8 -10 13 -14 10 -8 -7 14 14 24 40 20 11 -2 25 4 32 13 8
9 11 10 7 4 -3 -7 -1 -13 4 -13 6 0 11 4 11 9 0 13 39 21 46 10 3 -6 12 -5 21
3 9 7 19 13 22 13 3 0 5 2 4 5 -1 3 11 5 25 4 15 -1 33 4 41 10 11 8 13 8 8
-1 -5 -8 -1 -8 17 0 13 7 22 15 20 19 -3 5 0 8 5 8 6 0 11 -5 11 -12 0 -9 3
-9 12 0 16 16 41 16 33 0 -4 -7 3 -2 14 12 12 15 21 19 21 11 0 -11 3 -11 15
-1 8 6 20 8 26 4 8 -5 10 -2 7 8 -7 17 23 21 34 4 5 -7 8 -7 8 3 0 7 6 11 15
7 8 -3 15 -1 15 5 0 6 7 8 16 5 13 -5 14 -4 5 7 -9 12 -7 13 14 9 14 -2 33 2
42 9 12 10 14 10 9 2 -4 -7 -3 -13 2 -13 6 0 13 7 16 16 3 8 10 12 16 9 5 -3
10 0 10 7 0 8 3 9 8 3 13 -18 35 -17 28 1 -4 12 -2 15 9 10 20 -7 46 4 38 17
-3 6 -1 7 6 3 6 -4 18 -3 26 4 9 7 15 8 20 1 4 -7 12 -7 25 1 10 7 17 15 15
18 -2 3 8 6 23 7 48 1 53 3 46 14 -5 8 3 10 24 7 23 -3 29 -1 24 11 -3 9 -1
12 6 7 7 -4 12 -2 12 6 0 9 3 9 10 -2 8 -13 10 -12 10 4 0 15 3 16 14 7 11 -9
16 -9 22 0 5 8 3 9 -6 4 -8 -5 -11 -4 -7 2 4 6 18 11 32 11 14 0 32 7 39 17 8
12 18 15 26 10 9 -6 12 -4 8 7 -5 11 -1 14 16 11 13 -3 29 1 37 9 8 7 21 14
29 16 8 2 18 9 22 15 6 9 8 8 8 -1 0 -7 5 -10 10 -7 6 4 8 10 5 15 -3 4 5 6
17 2 17 -4 20 -2 15 12 -6 14 -4 15 14 5 17 -9 20 -8 14 2 -6 9 -3 11 9 6 9
-4 15 -3 13 1 -3 4 6 15 18 25 22 16 25 16 33 1 8 -15 10 -15 15 0 4 10 3 15
-3 11 -6 -3 -10 -4 -10 -1 0 3 10 10 21 17 17 9 20 8 14 -3 -3 -7 0 -5 8 5 11
14 16 15 20 5 4 -9 6 -7 6 4 1 9 6 20 13 24 6 4 8 3 4 -4 -3 -6 -2 -14 4 -17
6 -4 10 -3 9 2 -4 26 1 35 15 24 11 -9 16 -9 22 0 5 8 3 9 -6 4 -9 -5 -11 -4
-6 3 4 7 14 12 22 12 8 0 13 4 9 9 -3 6 4 8 15 6 21 -4 45 26 32 40 -4 5 -1 5
6 1 7 -4 10 -13 6 -19 -3 -7 5 0 18 15 18 21 27 25 41 17 9 -6 17 -7 16 -2 -3
20 2 34 11 28 6 -3 10 -1 10 4 0 6 3 10 8 10 21 -4 32 2 26 13 -5 8 -2 9 9 5
11 -4 17 -1 17 8 0 9 8 12 20 10 15 -3 20 1 18 12 -2 9 3 18 11 21 9 3 11 0 6
-8 -5 -9 -4 -11 3 -6 7 4 12 15 12 24 0 15 2 15 10 2 8 -13 10 -12 10 2 0 10
4 17 9 15 5 -1 17 7 26 18 9 11 13 13 9 5 -7 -13 -6 -13 11 0 33 25 64 58 60
62 -2 2 6 10 18 17 18 11 20 11 10 0 -7 -7 -13 -18 -13 -23 0 -6 8 1 17 14 10
14 17 27 16 30 -2 7 39 24 51 21 5 -1 4 5 -3 13 -11 13 -10 15 7 11 13 -2 19
2 18 13 0 9 4 16 11 15 7 -2 10 6 8 18 -4 17 -2 19 10 9 8 -7 15 -8 15 -3 0 6
9 20 20 33 11 12 17 26 14 31 -3 5 3 6 12 2 11 -4 15 -3 10 5 -3 6 3 16 14 22
11 6 20 18 20 26 0 8 4 13 9 10 5 -3 12 6 15 20 5 18 11 24 23 20 14 -6 14 -4
2 11 -12 15 -12 16 4 10 12 -5 16 -3 11 4 -4 7 4 21 17 31 13 11 18 17 12 13
-9 -4 -11 -1 -7 9 3 9 10 13 15 11 5 -3 11 6 15 20 4 15 11 22 18 18 6 -4 5 1
-3 11 -10 12 -11 16 -2 14 7 -2 20 8 29 22 9 13 12 21 5 17 -6 -4 -15 -2 -19
4 -4 7 -3 9 2 6 6 -3 16 -2 24 4 13 7 13 9 0 9 -13 0 -13 1 0 10 13 8 15 124
15 905 0 493 -3 899 -8 902 -4 3 -3 11 4 19 9 11 8 14 -2 14 -12 0 -12 2 0 9
9 6 10 11 2 15 -6 4 -9 12 -6 17 4 5 1 9 -4 9 -6 0 -11 9 -11 21 0 15 -4 19
-16 15 -14 -5 -15 -4 -5 8 8 10 9 16 1 21 -5 3 -10 11 -10 16 0 6 5 7 12 3 7
-4 8 -3 4 5 -4 6 -12 9 -17 6 -5 -4 -10 -1 -10 4 -1 6 -2 17 -3 24 -1 6 -8 11
-15 9 -7 -1 -10 2 -7 7 4 5 0 12 -6 14 -10 4 -10 6 0 6 10 1 10 4 0 15 -7 8
-16 12 -20 10 -3 -2 -4 5 -1 16 4 15 2 19 -10 14 -11 -4 -15 0 -13 13 4 21
-12 45 -24 38 -5 -3 -12 0 -16 6 -4 8 -3 9 4 5 20 -12 13 9 -8 24 -11 8 -20
20 -20 28 0 7 -4 10 -10 7 -5 -3 -10 1 -10 10 0 9 -9 19 -20 22 -10 3 -25 18
-32 34 -7 16 -19 29 -27 29 -8 0 -12 3 -8 6 8 8 -16 33 -25 27 -5 -2 -8 3 -8
11 0 19 -16 21 -24 4 -3 -7 -3 -2 0 11 4 16 3 21 -5 17 -6 -4 -11 0 -11 10 0
10 -3 15 -6 11 -7 -7 -44 24 -39 33 3 4 -5 7 -17 6 -15 -1 -24 7 -29 24 -4 14
-7 19 -8 13 -1 -7 -5 -13 -11 -13 -5 0 -7 7 -4 15 5 11 2 13 -12 8 -10 -4 -15
-2 -11 3 9 15 -7 35 -31 37 -11 0 -20 6 -19 12 1 5 -4 9 -12 7 -8 -2 -11 3 -8
12 4 10 1 13 -7 10 -8 -3 -17 0 -22 7 -5 8 -3 10 6 4 8 -5 11 -4 6 3 -4 6 -13
9 -21 5 -9 -3 -15 1 -15 11 0 10 -5 13 -17 9 -11 -4 -14 -3 -9 5 4 7 1 12 -9
12 -19 0 -47 25 -38 33 3 4 -4 4 -16 2 -13 -2 -19 0 -15 6 3 6 -3 13 -15 16
-12 3 -21 9 -21 14 0 5 -7 9 -16 9 -9 0 -25 10 -35 22 -13 14 -19 17 -19 7 -1
-8 -7 -3 -14 10 -10 17 -15 20 -18 10 -5 -12 -7 -12 -19 0 -12 12 -12 13 1 6
13 -8 13 -6 1 8 -7 9 -17 15 -21 12 -13 -8 -40 6 -40 20 0 8 -8 11 -22 8 -19
-4 -20 -3 -8 7 13 10 11 11 -7 7 -14 -3 -27 2 -35 12 -12 15 -11 15 7 1 19
-14 19 -14 6 3 -10 12 -17 15 -25 7 -7 -7 -19 -2 -40 18 -16 15 -26 20 -22 12
6 -12 4 -11 -6 1 -7 9 -21 15 -31 13 -10 -1 -14 2 -10 9 4 6 0 8 -10 4 -13 -5
-17 -1 -17 16 0 12 -4 18 -8 12 -11 -15 -51 -14 -45 2 3 8 -2 13 -12 13 -9 0
-23 7 -31 15 -8 8 -21 12 -29 9 -8 -4 -15 -1 -15 6 0 6 -4 9 -9 5 -6 -3 -14 3
-20 12 -6 10 -11 12 -11 6 0 -18 -20 -16 -20 2 0 8 -5 15 -11 15 -5 0 -7 -4
-4 -10 3 -6 -1 -7 -9 -4 -9 3 -16 10 -16 14 0 4 -7 11 -16 14 -10 4 -13 2 -8
-7 4 -6 -2 -4 -13 6 -11 9 -29 17 -41 17 -14 0 -22 6 -23 18 0 11 -2 12 -6 4
-4 -10 -11 -9 -31 4 -14 9 -35 18 -46 19 -35 4 -37 5 -32 13 2 4 -7 8 -22 7
-15 0 -27 6 -27 13 0 6 -4 11 -10 10 -5 -2 -8 -10 -7 -18 2 -8 -4 -5 -13 7 -9
13 -22 20 -30 17 -9 -4 -15 0 -15 7 0 11 -3 11 -10 -1 -8 -13 -10 -13 -10 2 0
11 -7 15 -25 13 -18 -2 -23 1 -15 10 7 8 0 11 -25 10 -26 -2 -35 2 -36 14 0
10 -2 11 -6 4 -3 -10 -8 -9 -19 2 -12 12 -20 13 -37 3 -21 -10 -21 -10 -7 7
14 17 13 18 -13 13 -18 -4 -30 -1 -34 8 -2 7 -13 11 -24 9 -10 -2 -18 -1 -18
3 3 20 -2 25 -11 12 -6 -10 -10 -11 -10 -2 0 6 -6 12 -14 12 -17 0 -75 29 -61
31 6 1 14 1 19 0 5 -1 1 10 -9 25 -9 14 -12 23 -6 20 6 -4 11 0 11 8 0 9 -6
16 -12 16 -8 0 -9 3 -3 8 16 11 19 46 3 36 -10 -6 -10 -4 -2 7 16 21 18 82 2
73 -9 -6 -9 -3 1 9 7 9 10 17 6 17 -4 0 -1 8 6 17 10 11 10 14 2 9 -8 -4 -13
-1 -13 9 0 9 4 13 10 10 6 -3 7 1 4 9 -3 9 -11 16 -16 16 -7 0 -7 5 -1 13 14
18 15 70 2 62 -6 -4 -5 2 2 13 11 17 10 24 -2 38 -9 11 -9 15 -1 10 6 -4 12
-3 12 1 0 5 -6 15 -12 22 -10 11 -10 13 0 7 7 -4 12 -2 12 6 0 8 -6 20 -12 27
-9 9 -9 12 -1 7 13 -7 12 41 -1 63 -6 10 -5 12 2 7 8 -5 12 0 12 13 0 11 -4
22 -9 25 -5 4 -8 14 -6 24 1 9 -1 22 -6 28 -5 7 -3 11 6 11 8 0 11 -5 8 -10
-3 -6 -1 -7 5 -3 6 4 9 13 6 21 -4 8 -11 12 -17 8 -6 -3 -7 -1 -3 5 13 22 15
52 3 52 -8 0 -8 3 -2 8 13 9 15 102 2 102 -5 0 -4 7 4 16 10 13 10 17 -2 26
-11 7 -11 11 -1 15 6 2 12 9 12 14 0 6 -4 7 -10 4 -5 -3 -10 -2 -10 4 0 5 4
12 10 16 11 7 4 75 -10 89 -6 6 -3 15 8 23 9 8 11 12 5 8 -14 -7 -18 7 -6 19
11 10 12 37 2 30 -5 -3 -9 2 -9 11 0 10 -5 14 -12 10 -7 -4 -5 0 5 8 12 10 15
17 7 22 -7 4 -9 19 -5 36 4 19 3 29 -5 29 -6 0 -9 4 -6 9 3 5 -1 12 -10 15
-13 5 -14 9 -5 20 9 11 8 17 -6 28 -23 17 -28 39 -11 51 10 6 8 7 -4 3 -10 -3
-20 -1 -23 4 -4 6 -1 10 6 10 7 0 4 7 -7 16 -10 8 -12 12 -4 8 13 -7 13 -5 1
9 -7 9 -18 14 -24 10 -6 -3 -7 -1 -3 6 4 6 11 9 15 7 4 -3 8 1 8 9 0 8 -4 12
-8 10 -3 -3 -13 3 -20 12 -10 12 -10 14 -1 9 6 -4 12 -3 12 2 0 6 -7 12 -15
15 -8 3 -12 15 -10 25 2 12 -7 28 -21 41 -14 12 -22 26 -19 31 3 6 1 10 -5 10
-6 0 -8 5 -4 12 5 8 2 9 -11 4 -16 -6 -16 -4 -4 11 9 11 10 14 2 9 -12 -7 -18
5 -14 27 1 5 -3 6 -9 2 -5 -3 -10 -1 -10 5 0 6 -5 8 -12 4 -8 -5 -8 -2 1 10 8
9 10 16 5 15 -27 -5 -36 1 -24 16 10 12 8 13 -10 10 -18 -4 -20 -2 -9 11 7 8
8 14 3 13 -27 -5 -36 1 -24 16 10 12 9 15 -6 16 -11 1 -22 1 -25 1 -4 -1 -4 8
-1 20 4 16 2 19 -8 13 -10 -6 -12 -4 -7 9 4 9 3 15 -1 12 -10 -6 -43 30 -35
38 4 3 1 6 -6 6 -16 0 -42 26 -34 34 4 3 1 6 -6 6 -7 0 -29 16 -49 35 -20 19
-40 35 -44 35 -5 0 -8 6 -8 14 0 8 -9 18 -20 21 -11 3 -20 11 -20 17 0 5 -7 7
-16 4 -8 -3 -13 -2 -10 2 3 5 -4 14 -14 22 -10 8 -17 17 -15 21 3 4 -3 6 -13
5 -9 0 -16 5 -14 12 1 8 -2 11 -7 8 -5 -4 -16 1 -24 9 -9 8 -24 15 -34 15 -15
0 -16 2 -3 10 13 8 12 10 -3 10 -11 0 -15 4 -11 12 4 7 3 8 -5 4 -6 -4 -8 -13
-5 -19 4 -7 -6 0 -23 16 -16 15 -35 27 -42 27 -7 0 -10 4 -7 8 3 5 -1 9 -9 10
-8 1 -22 3 -30 4 -8 1 -11 6 -8 11 4 6 -1 8 -11 4 -9 -4 -15 -3 -13 1 3 4 -1
13 -9 20 -11 10 -14 10 -14 0 -1 -8 -5 -7 -14 5 -7 9 -19 17 -25 17 -7 0 -9 5
-5 12 5 8 2 9 -9 5 -9 -3 -19 -2 -22 4 -4 5 -11 7 -16 4 -5 -4 -9 1 -9 10 0 9
-4 13 -10 10 -5 -3 -10 -1 -10 5 0 6 -4 9 -9 5 -5 -3 -17 3 -27 12 -10 10 -20
17 -23 17 -3 -1 -5 2 -3 8 1 5 -1 7 -6 4 -5 -3 -21 2 -37 10 -16 8 -35 12 -42
10 -11 -5 -11 -1 -2 15 8 17 8 20 -1 14 -7 -4 -16 -1 -21 6 -6 10 -9 11 -9 2
0 -7 -5 -13 -11 -13 -5 0 -7 5 -3 12 5 7 2 9 -9 5 -9 -3 -18 0 -21 9 -4 11
-11 12 -32 4 -23 -9 -25 -8 -15 4 9 11 8 15 -5 20 -23 9 -26 8 -18 -6 5 -9 3
-9 -9 1 -9 7 -15 17 -12 20 2 4 -2 8 -10 8 -8 0 -12 -5 -8 -10 3 -5 -4 -4 -15
2 -11 6 -23 16 -25 23 -3 8 -6 6 -6 -4 -1 -10 -5 -18 -11 -18 -5 0 -6 8 -3 17
5 12 2 15 -10 10 -10 -4 -17 -1 -17 6 0 8 -4 6 -10 -3 -8 -13 -10 -12 -10 4 0
16 -2 16 -16 6 -8 -8 -14 -9 -13 -4 3 20 -2 28 -10 16 -6 -11 -12 -10 -26 5
-10 10 -32 18 -49 18 -18 0 -30 5 -29 11 1 7 -6 10 -18 7 -12 -4 -25 0 -30 8
-7 12 -9 12 -10 -1 0 -10 -3 -8 -9 5 l-9 20 -1 -20 c0 -18 -2 -18 -10 -3 -6
10 -20 15 -35 14 -13 -2 -22 0 -19 5 2 4 -9 6 -25 4 -21 -2 -28 0 -25 9 3 8
-6 13 -26 14 -59 4 -70 6 -70 14 0 4 -16 8 -35 8 -21 0 -35 5 -35 13 0 8 -4 7
-10 -3 -6 -10 -10 -11 -10 -2 0 7 -15 12 -41 12 -29 0 -38 3 -33 13 5 8 2 8
-9 -2 -15 -12 -21 -9 -19 10 1 3 -10 4 -22 2 -13 -3 -32 -1 -42 5 -11 5 -28 6
-39 2 -12 -4 -31 0 -49 11 -23 14 -33 16 -44 7 -8 -7 -16 -8 -20 -2 -4 5 -15
10 -26 12 -13 2 -16 -1 -10 -10 6 -10 5 -10 -7 -2 -8 6 -24 10 -36 9 -13 -1
-23 2 -23 6 0 4 -7 10 -16 13 -14 5 -15 4 -5 -8 10 -12 9 -14 -8 -9 -12 3 -19
8 -16 12 2 4 -21 7 -51 6 -30 -1 -57 3 -60 7 -3 4 -15 3 -26 -3 -18 -10 -20
-9 -15 4 4 11 2 14 -8 10 -8 -3 -12 -10 -8 -17 4 -6 -1 -4 -12 4 -19 15 -67
22 -59 8 3 -4 0 -8 -5 -8 -6 0 -11 5 -11 12 0 9 -3 9 -12 0 -9 -9 -16 -8 -32
6 -11 9 -16 12 -13 6 4 -7 0 -15 -9 -18 -10 -4 -13 -2 -8 6 5 7 2 9 -8 5 -9
-3 -21 0 -28 6 -10 9 -11 9 -6 0 5 -10 -1 -11 -25 -6 -26 5 -30 3 -24 -8 8
-12 6 -12 -8 0 -10 8 -31 12 -52 9 -19 -2 -37 1 -39 7 -2 5 -5 4 -5 -4 -1 -11
-4 -11 -16 -1 -8 7 -15 8 -15 3 0 -5 -24 -6 -56 -3 -30 3 -57 4 -59 0 -5 -8
-48 -5 -65 5 -9 5 -11 4 -6 -3 10 -16 -7 -15 -23 1 -8 6 -11 7 -8 1 7 -12 -63
-11 -83 1 -8 5 -11 4 -7 -2 4 -7 -2 -11 -16 -11 -12 0 -32 -2 -45 -5 -15 -4
-20 -2 -16 5 4 6 1 9 -7 6 -8 -3 -13 -12 -11 -19 1 -10 -2 -9 -11 3 -10 12
-17 14 -31 6 -10 -5 -29 -8 -42 -5 -13 2 -24 1 -24 -3 0 -8 -31 -6 -47 3 -6 4
-15 2 -18 -4 -4 -5 -13 -8 -20 -5 -8 3 -16 0 -19 -7 -3 -8 -5 -8 -5 2 -1 11
-4 11 -18 0 -9 -8 -14 -9 -11 -4 8 13 -58 13 -69 0 -5 -4 -2 -5 5 -1 6 4 12 2
12 -3 0 -14 -6 -14 -32 0 -15 8 -19 8 -14 0 4 -7 -1 -11 -13 -11 -12 0 -21 5
-21 11 0 5 -5 7 -10 4 -6 -4 -8 -10 -6 -14 3 -3 -4 -7 -14 -7 -10 0 -16 5 -13
10 4 5 -1 7 -11 3 -10 -4 -20 -7 -22 -7 -3 0 -3 -4 0 -8 2 -4 -4 -8 -14 -8
-10 0 -17 4 -14 7 2 4 0 10 -6 14 -5 3 -10 -1 -10 -9 0 -8 -5 -18 -12 -22 -6
-4 -8 -3 -5 3 4 6 -4 11 -18 11 -14 0 -23 -4 -20 -8 7 -12 -29 -7 -37 5 -5 6
-8 6 -8 -1 0 -6 -11 -11 -25 -11 -14 0 -22 4 -18 10 4 6 1 7 -6 3 -7 -5 -10
-14 -8 -20 3 -7 -1 -13 -9 -13 -9 0 -13 6 -9 16 4 11 0 10 -16 -5 -14 -11 -19
-13 -14 -4 7 12 6 13 -6 3 -12 -10 -18 -10 -29 0 -10 10 -11 9 -5 -2 7 -11 2
-13 -25 -8 -27 6 -31 4 -26 -9 5 -14 4 -15 -9 -4 -12 10 -15 10 -15 -1 0 -11
-2 -11 -10 1 -9 13 -14 7 -11 -12 0 -4 -10 -3 -24 2 -16 6 -27 6 -31 -1 -4 -8
-9 -7 -15 2 -7 11 -9 11 -9 1 0 -7 -8 -12 -17 -10 -10 2 -17 -2 -16 -7 1 -6
-17 -9 -44 -6 -31 2 -48 -1 -54 -10 -6 -9 -9 -10 -9 -2 0 13 -25 12 -37 -2 -4
-4 -3 -5 4 -1 6 3 14 3 17 -2 2 -4 -17 -7 -42 -7 -26 1 -55 -4 -66 -11 -10 -7
-25 -10 -32 -7 -8 3 -14 -1 -14 -8 0 -11 -3 -11 -10 1 -5 8 -10 10 -10 4 0 -6
-16 -10 -39 -9 -22 1 -39 -3 -38 -8 1 -5 -15 -11 -37 -12 -21 -1 -42 -8 -47
-16 -5 -8 -9 -10 -9 -6 0 4 -8 3 -18 -2 -13 -7 -23 -6 -32 2 -7 7 -10 8 -8 2
3 -5 0 -15 -7 -22 -11 -10 -15 -10 -18 0 -4 9 -6 9 -6 0 -1 -7 -8 -10 -16 -7
-8 4 -15 1 -15 -6 0 -6 -4 -8 -10 -5 -5 3 -10 2 -10 -3 0 -6 -9 -8 -20 -5 -12
3 -20 0 -20 -7 0 -8 -9 -11 -25 -8 -16 3 -30 -1 -41 -13 -14 -16 -20 -17 -32
-6 -10 7 -13 8 -9 1 4 -7 0 -15 -9 -18 -10 -4 -13 -2 -8 7 5 8 2 7 -9 -2 -10
-8 -20 -11 -24 -7 -3 3 -12 -3 -20 -14 -11 -15 -18 -17 -38 -10 -14 5 -24 6
-24 2 3 -19 -2 -25 -11 -12 -6 10 -10 11 -10 3 0 -7 -9 -13 -21 -13 -13 0 -18
-4 -13 -12 5 -8 0 -7 -11 2 -11 9 -16 10 -11 3 5 -9 0 -14 -13 -14 -12 -1 -27
-2 -33 -3 -7 -1 -16 -6 -21 -13 -4 -6 -16 -10 -27 -8 -13 2 -20 -1 -18 -8 2
-7 -1 -12 -7 -12 -5 0 -9 3 -8 6 1 3 -4 6 -12 6 -8 0 -12 -4 -10 -8 6 -9 -24
-21 -35 -14 -5 3 -12 0 -16 -6 -5 -8 -3 -9 6 -4 8 5 11 4 6 -3 -4 -6 -14 -8
-23 -5 -10 4 -14 2 -10 -4 4 -6 -3 -8 -18 -5 -16 3 -25 0 -25 -8 0 -7 -7 -10
-15 -6 -10 3 -15 -1 -15 -12 0 -15 -2 -15 -10 -2 -7 12 -10 12 -10 1 0 -7 -6
-11 -15 -7 -10 3 -15 -1 -15 -12 0 -15 -2 -15 -10 -2 -8 13 -14 8 -12 -11 1
-4 -12 -5 -29 -3 -20 3 -32 -1 -36 -11 -3 -9 -13 -14 -21 -13 -9 2 -17 -2 -17
-9 0 -6 -4 -15 -9 -20 -5 -5 -6 -3 -2 5 10 17 -9 15 -24 -3 -10 -12 -16 -13
-28 -3 -13 10 -14 10 -8 1 4 -8 1 -13 -8 -13 -9 0 -16 -6 -16 -12 0 -9 -4 -8
-10 2 -8 13 -10 13 -10 -2 0 -12 -5 -15 -17 -11 -11 5 -14 3 -8 -6 6 -10 2
-11 -15 -6 -18 6 -22 4 -17 -7 4 -11 -1 -14 -19 -12 -13 1 -24 -2 -24 -7 0 -6
-6 -9 -12 -8 -27 3 -38 -2 -38 -17 0 -8 -4 -13 -9 -9 -6 3 -25 -3 -43 -13 -18
-10 -39 -17 -46 -15 -7 3 -10 -1 -7 -9 4 -9 -2 -14 -17 -15 -12 -1 -27 -8 -33
-16 -5 -8 -16 -12 -22 -10 -7 3 -13 -1 -13 -7 0 -7 -7 -10 -16 -6 -8 3 -12 2
-9 -4 3 -6 2 -10 -4 -10 -5 0 -17 -7 -25 -16 -12 -12 -16 -12 -16 -2 -1 7 -8
2 -16 -12 -11 -18 -14 -20 -10 -5 5 17 3 16 -14 -5 -17 -21 -19 -22 -14 -5 l5
20 -13 -20 c-7 -11 -20 -20 -28 -20 -8 0 -14 -8 -14 -18 2 -14 -1 -15 -12 -6
-11 9 -14 9 -14 -1 0 -7 -7 -10 -15 -6 -8 3 -14 0 -12 -6 1 -5 -6 -12 -16 -13
-10 -2 -24 -11 -31 -21 -7 -9 -18 -14 -25 -10 -6 4 -10 4 -9 -1 2 -5 -8 -20
-21 -33 -13 -14 -21 -20 -17 -13 3 6 2 15 -4 18 -6 4 -10 3 -9 -2 1 -4 -1 -16
-6 -26 -6 -14 -10 -15 -23 -5 -14 12 -14 10 -2 -12 11 -21 11 -23 -1 -14 -11
9 -17 9 -26 -1 -6 -7 -9 -17 -5 -21 4 -5 -2 -2 -12 6 -13 10 -17 10 -12 2 4
-7 1 -15 -8 -18 -9 -3 -14 -10 -11 -15 3 -4 -3 -6 -14 -4 -13 2 -22 -3 -26
-15 -4 -12 -13 -17 -27 -15 -11 3 -18 1 -14 -2 10 -10 -35 -53 -55 -53 -10 0
-25 -9 -33 -21 -8 -12 -19 -18 -25 -14 -7 4 -10 1 -9 -7 2 -7 -5 -12 -14 -12
-10 1 -17 -1 -16 -5 2 -20 -3 -31 -14 -25 -8 5 -9 2 -4 -11 5 -15 4 -16 -9 -5
-10 8 -15 9 -15 1 0 -6 -7 -11 -15 -11 -14 0 -20 -12 -16 -33 1 -4 -8 -3 -20
3 -18 10 -19 10 -10 -8 8 -14 7 -19 -5 -20 -7 -1 -20 -3 -28 -4 -8 -1 -12 -7
-9 -14 2 -7 -5 -15 -16 -19 -12 -3 -19 -10 -16 -15 3 -5 -6 -12 -21 -16 -19
-5 -22 -9 -12 -15 10 -7 9 -9 -5 -9 -11 0 -15 -4 -11 -12 5 -8 2 -9 -9 -5 -11
4 -17 1 -17 -9 0 -8 -4 -12 -10 -9 -5 3 -10 1 -10 -5 0 -6 -5 -8 -12 -4 -8 5
-7 0 2 -11 9 -11 10 -16 3 -11 -8 4 -13 2 -13 -4 0 -7 -7 -10 -15 -6 -8 3 -14
2 -14 -2 3 -20 -2 -33 -11 -27 -5 3 -10 2 -10 -4 0 -5 6 -12 13 -15 6 -2 1 -4
-13 -3 -13 1 -25 -4 -26 -10 -3 -26 -5 -28 -14 -13 -8 13 -10 12 -11 -5 -1
-11 -1 -23 0 -27 0 -4 -7 -4 -16 -1 -13 5 -15 2 -10 -12 7 -16 5 -16 -10 -4
-11 9 -14 10 -9 2 4 -8 1 -13 -9 -13 -9 0 -19 -9 -22 -20 -3 -11 -10 -20 -15
-20 -10 0 -43 -34 -85 -87 -15 -18 -35 -35 -44 -38 -10 -4 -18 -12 -16 -18 1
-7 -4 -11 -12 -9 -8 2 -11 -3 -8 -12 4 -9 1 -15 -6 -13 -7 1 -11 -4 -9 -11 1
-8 -2 -11 -7 -8 -5 3 -12 -1 -15 -10 -3 -9 -11 -12 -18 -8 -9 5 -8 2 1 -9 12
-15 12 -17 -1 -12 -8 3 -21 -2 -29 -11 -9 -12 -10 -15 -1 -10 6 4 12 2 12 -3
0 -6 -7 -11 -15 -11 -8 0 -15 -7 -15 -16 0 -8 -4 -12 -10 -9 -5 3 -10 1 -10
-5 0 -6 -5 -8 -12 -4 -7 4 -8 3 -4 -4 11 -18 -3 -35 -18 -23 -9 8 -13 7 -13
-4 0 -8 5 -15 10 -15 14 0 -2 -15 -16 -15 -7 0 -11 -8 -11 -17 1 -10 -3 -16
-10 -15 -6 1 -10 -3 -9 -10 2 -8 -4 -10 -14 -6 -12 5 -15 2 -10 -10 4 -11 1
-17 -8 -17 -14 0 -20 -12 -16 -33 1 -5 -3 -6 -9 -2 -9 6 -14 -8 -11 -28 1 -5
-2 -7 -6 -5 -5 2 -24 -11 -43 -31 -19 -19 -30 -31 -23 -27 6 3 15 2 18 -4 4
-6 3 -10 -2 -9 -23 4 -35 -2 -29 -16 3 -8 2 -14 -2 -14 -23 4 -34 -3 -28 -17
3 -8 2 -12 -3 -9 -6 3 -13 -1 -18 -8 -4 -8 -17 -19 -28 -26 -19 -11 -18 -12 5
-6 24 6 24 5 -3 -10 -16 -9 -25 -21 -21 -27 4 -6 3 -9 -2 -6 -5 3 -18 -4 -29
-15 -11 -11 -14 -16 -6 -12 10 6 12 4 7 -4 -5 -7 -14 -10 -21 -7 -8 3 -11 -2
-8 -13 2 -10 -3 -24 -12 -31 -19 -16 -62 -20 -62 -5 0 30 -4 46 -11 41 -5 -3
-9 1 -9 9 0 8 4 12 9 9 4 -3 8 0 8 5 0 6 -4 11 -9 11 -10 0 -9 25 2 36 3 4 1
16 -5 28 -10 19 -10 20 6 7 14 -12 16 -12 10 3 -3 9 -11 16 -18 16 -6 0 -4 5
4 10 11 7 11 10 2 10 -7 0 -10 5 -7 10 4 6 11 7 17 4 7 -4 8 -2 4 5 -4 6 -11
9 -16 6 -4 -3 -10 2 -13 10 -4 9 -1 12 7 9 8 -3 17 0 21 6 3 6 3 10 -2 9 -20
-3 -23 2 -12 22 9 17 8 20 -2 14 -9 -6 -11 -2 -7 13 4 13 1 22 -5 23 -7 0 -3
4 8 9 11 5 15 9 9 9 -20 1 -25 41 -6 42 14 0 13 2 -3 9 -11 5 -14 9 -7 9 7 1
10 5 7 11 -3 5 -6 46 -7 91 0 48 -4 75 -9 67 -12 -19 -11 0 1 23 8 13 7 19 0
19 -7 0 -8 5 -3 13 4 6 6 20 4 31 -2 12 1 16 10 11 8 -5 10 -4 5 3 -4 7 -15
12 -24 12 -13 0 -14 2 -3 9 11 7 11 9 0 14 -10 4 -10 6 -1 6 6 1 12 6 12 12 0
5 -4 8 -8 5 -5 -3 -7 31 -7 75 2 52 -2 79 -9 79 -6 0 -4 5 4 10 13 9 13 10 0
10 -12 0 -12 2 -2 9 11 6 10 10 -4 15 -16 6 -16 7 0 25 17 18 16 20 -1 30 -10
6 -12 11 -6 11 9 0 10 7 2 26 -5 15 -7 29 -5 31 3 3 1 15 -4 28 -5 13 -6 26
-2 29 10 10 9 46 -1 46 -5 0 -4 7 3 15 9 10 9 15 1 15 -6 0 -11 5 -11 11 0 5
6 7 13 3 9 -6 9 -4 -1 8 -9 11 -10 18 -2 23 6 3 8 11 5 16 -4 5 -8 17 -10 26
-2 10 -7 27 -11 37 -5 13 -4 17 4 12 8 -5 10 -2 6 8 -3 9 -11 13 -18 9 -6 -4
-6 0 2 9 10 13 10 17 0 21 -10 4 -10 6 1 6 11 1 11 4 0 18 -12 14 -12 16 0 8
11 -6 12 -5 5 6 -13 22 -16 51 -3 44 6 -4 5 2 -2 13 -10 16 -10 24 -1 35 10
11 9 17 -1 26 -8 6 -16 9 -19 6 -2 -3 -5 1 -5 9 0 8 7 12 16 9 13 -4 13 -2 -1
10 -13 10 -15 16 -6 25 9 9 9 12 -1 12 -11 0 -11 3 -1 15 7 8 8 15 3 15 -5 0
-9 23 -9 50 1 28 -2 50 -6 50 -5 0 -8 -5 -8 -12 0 -6 -3 -8 -6 -5 -4 4 -1 13
6 22 10 12 10 15 -1 15 -11 0 -11 2 1 10 13 8 9 13 -10 12 -5 0 -8 22 -10 70
-1 10 -6 21 -12 24 -6 4 -5 10 3 15 8 5 9 9 3 9 -6 0 -10 11 -9 25 2 14 0 23
-5 20 -4 -3 -11 2 -14 11 -9 24 -7 31 4 14 6 -9 10 -10 10 -3 0 6 -6 18 -13
25 -8 7 -13 21 -11 31 1 10 -4 21 -13 24 -12 5 -12 7 -1 14 10 7 10 9 1 9 -7
0 -13 9 -13 21 0 13 -4 18 -12 13 -7 -5 -9 -2 -5 9 3 8 0 21 -8 27 -7 6 -14
19 -14 28 -2 45 -4 52 -17 41 -9 -8 -11 -5 -7 12 4 14 0 25 -10 30 -9 5 -14
19 -13 34 2 13 -5 33 -15 44 -10 10 -15 22 -11 27 4 4 -1 4 -11 1 -15 -6 -16
-4 -7 13 9 16 7 22 -5 26 -9 4 -14 13 -11 21 4 9 2 11 -6 7 -8 -5 -9 -2 -5 9
4 10 2 16 -6 14 -7 -1 -11 6 -9 17 2 11 -1 15 -7 11 -13 -8 -31 34 -23 55 3 8
2 12 -3 8 -12 -11 -35 11 -35 34 0 10 -4 17 -9 14 -4 -3 -13 6 -20 20 -9 20
-8 24 1 19 7 -3 3 2 -9 11 -13 9 -23 23 -23 31 0 9 -5 11 -12 7 -8 -5 -7 0 2
11 9 11 10 16 3 11 -8 -4 -13 -1 -13 8 0 9 -7 16 -16 16 -8 0 -12 5 -9 10 3 6
1 10 -4 10 -6 0 -11 8 -11 18 0 26 -46 68 -54 50 -3 -7 -3 -3 0 10 4 15 1 22
-10 22 -8 0 -18 9 -21 20 -3 11 -12 20 -18 20 -7 0 -6 4 3 10 13 8 12 10 -3
10 -10 0 -15 5 -12 10 3 6 -1 10 -9 10 -8 0 -18 5 -22 12 -4 6 -3 8 4 4 6 -3
14 -1 18 5 4 8 3 9 -4 5 -14 -8 -55 31 -47 45 4 5 3 9 -2 8 -23 -4 -32 2 -26
18 4 11 3 14 -5 9 -7 -4 -12 -2 -12 6 0 7 -25 37 -55 66 -33 30 -53 57 -49 64
4 7 3 8 -4 4 -11 -7 -17 6 -13 27 1 5 -3 6 -9 2 -5 -3 -20 1 -32 9 -12 9 -17
16 -10 16 6 0 12 4 12 9 0 5 -8 8 -17 7 -11 0 -17 5 -15 13 3 12 1 12 -14 0
-15 -12 -16 -12 -10 9 4 12 4 22 -1 21 -20 -3 -27 2 -13 12 12 8 10 9 -7 4
-17 -5 -23 -2 -23 9 0 9 -7 16 -17 16 -9 0 -14 3 -10 6 8 8 -18 34 -33 34 -6
0 -13 7 -16 15 -4 8 -11 12 -17 8 -6 -3 -7 -1 -3 6 4 6 0 14 -8 17 -9 3 -13
10 -10 15 3 5 -2 6 -10 3 -11 -4 -16 0 -16 12 0 9 -3 15 -6 11 -7 -7 -34 15
-28 24 2 3 -3 6 -11 7 -8 1 -22 3 -29 4 -8 1 -14 4 -14 7 1 3 -2 14 -7 24 -6
15 -10 16 -16 5 -6 -9 -9 -6 -9 11 0 17 -4 22 -16 17 -8 -3 -12 -2 -9 4 3 6
-1 10 -10 10 -9 0 -13 5 -10 10 3 6 -1 10 -9 10 -19 0 -66 46 -57 57 3 4 -2 1
-11 -6 -18 -13 -23 -8 -20 20 1 3 -5 6 -13 6 -8 0 -11 -5 -8 -10 3 -6 1 -7 -5
-3 -7 4 -12 13 -12 21 0 8 -8 11 -22 8 -15 -3 -19 -2 -11 4 9 6 1 15 -25 28
-20 11 -40 24 -43 28 -3 5 -10 9 -15 10 -5 1 -8 5 -7 9 2 4 -6 5 -17 3 -12 -2
-20 2 -20 10 0 8 -7 11 -20 8 -14 -4 -20 0 -20 12 0 12 -6 16 -20 12 -13 -3
-20 0 -20 10 0 8 -4 11 -10 8 -5 -3 -10 -2 -10 3 0 6 -7 13 -16 16 -10 4 -13
2 -8 -7 4 -6 -3 -2 -15 11 -18 18 -26 21 -37 11 -12 -10 -13 -9 -9 4 7 17 -10
33 -20 18 -3 -5 -17 1 -30 15 -14 14 -30 22 -35 19 -6 -3 -10 -1 -10 4 0 6 -5
11 -11 11 -5 0 -7 -6 -3 -12 5 -9 3 -9 -9 1 -9 7 -14 18 -10 25 3 6 3 8 -2 4
-4 -4 -15 -2 -23 5 -9 6 -13 7 -10 2 4 -6 -2 -11 -12 -11 -10 0 -16 6 -13 13
3 7 -2 13 -11 13 -9 0 -24 4 -34 9 -45 24 -87 39 -94 35 -4 -3 -8 -1 -8 4 0 6
-14 15 -30 21 -17 5 -29 7 -26 3 2 -4 -4 -8 -14 -8 -15 0 -17 3 -7 15 9 12 9
13 0 7 -8 -4 -13 -2 -13 6 0 9 -3 9 -10 -2 -5 -8 -10 -10 -10 -5 0 15 -43 32
-79 31 -22 -1 -30 3 -26 12 3 7 1 10 -4 7 -5 -3 -12 -1 -15 4 -3 5 -19 7 -36
6 -22 -2 -30 2 -30 14 0 14 -2 14 -10 1 -7 -11 -10 -11 -10 -2 0 7 -5 10 -10
7 -6 -4 -18 -1 -27 7 -14 11 -16 11 -8 -2 6 -12 5 -13 -6 -2 -7 6 -21 12 -32
12 -10 0 -16 4 -13 8 6 10 -24 9 -41 -1 -6 -4 -15 -2 -19 4 -5 8 -3 9 6 4 9
-5 11 -4 6 4 -6 9 -11 9 -22 0 -9 -7 -14 -8 -13 -3 4 21 -2 28 -11 14 -6 -9
-10 -10 -10 -3 0 7 -10 10 -26 7 -17 -3 -23 -1 -19 7 5 8 1 9 -14 4 -13 -4
-21 -2 -21 5 0 7 -12 9 -30 7 -18 -3 -34 0 -41 9 -6 8 -17 14 -23 14 -7 0 -6
-4 2 -9 11 -6 9 -9 -6 -13 -14 -4 -19 -2 -16 7 4 9 -4 12 -26 11 -17 -1 -33 1
-36 6 -3 4 -10 8 -15 8 -6 0 -7 -4 -4 -10 3 -6 -1 -7 -9 -4 -9 3 -14 9 -11 13
2 4 -2 8 -10 8 -8 0 -15 -4 -15 -8 0 -4 -9 -7 -19 -6 -11 0 -19 4 -19 7 2 18
-4 23 -12 10 -6 -10 -10 -11 -10 -2 0 6 -5 12 -11 12 -5 0 -7 -5 -3 -11 4 -8
0 -8 -15 0 -11 7 -21 9 -21 5 0 -3 -6 -1 -14 5 -11 9 -15 9 -19 -1 -4 -10 -7
-10 -15 1 -8 11 -10 11 -15 0 -4 -11 -6 -11 -6 1 -1 12 -19 15 -101 15 -60 0
-100 4 -100 10 0 5 -5 3 -10 -5 -9 -13 -10 -13 -10 0 0 13 -1 13 -10 0 -5 -8
-10 -10 -10 -4 0 6 -10 10 -22 8 -13 -1 -23 -3 -23 -4 0 -1 -8 -3 -18 -5 -9
-2 -15 1 -11 6 3 5 -2 9 -11 9 -10 0 -13 -5 -9 -12 5 -9 2 -9 -9 1 -9 7 -17
10 -17 6 0 -4 -8 -1 -17 6 -9 8 -14 9 -10 3 4 -7 0 -15 -9 -18 -8 -3 -13 -2
-10 3 3 5 -1 12 -10 15 -8 3 -12 2 -9 -4 3 -6 3 -10 -2 -11 -4 0 -18 -2 -30
-3 -17 -2 -20 0 -12 10 7 8 6 14 -2 20 -7 4 -9 3 -6 -3z m-2070 -538 c-3 -9
-8 -14 -10 -11 -3 3 -2 9 2 15 9 16 15 13 8 -4z m-787 -650 c-1 -8 -5 -17 -8
-21 -5 -4 -4 16 1 34 3 9 9 -1 7 -13z m5715 -52 c13 -16 12 -17 -3 -4 -10 7
-18 15 -18 17 0 8 8 3 21 -13z m228 -287 c-3 -3 -11 5 -18 17 -13 21 -12 21 5
5 10 -10 16 -20 13 -22z m6131 -266 c0 -5 -2 -10 -4 -10 -3 0 -8 5 -11 10 -3
6 -1 10 4 10 6 0 11 -4 11 -10z m-1026 -18 c3 -5 -1 -9 -9 -9 -8 0 -12 4 -9 9
3 4 7 8 9 8 2 0 6 -4 9 -8z m1417 -29 c13 -16 12 -17 -3 -4 -17 13 -22 21 -14
21 2 0 10 -8 17 -17z m-6247 -141 c3 -5 -1 -9 -9 -9 -8 0 -12 4 -9 9 3 4 7 8
9 8 2 0 6 -4 9 -8z m8360 -1030 c3 -5 -1 -9 -9 -9 -8 0 -12 4 -9 9 3 4 7 8 9
8 2 0 6 -4 9 -8z m141 -572 c-3 -5 -12 -10 -18 -10 -7 0 -6 4 3 10 19 12 23
12 15 0z m0 -188 c-3 -3 -11 0 -18 7 -9 10 -8 11 6 5 10 -3 15 -9 12 -12z
m560 -1000 c-3 -3 -11 0 -18 7 -9 10 -8 11 6 5 10 -3 15 -9 12 -12z m-20842
-1627 c-3 -9 -8 -14 -10 -11 -3 3 -2 9 2 15 9 16 15 13 8 -4z m21940 -2010
c-3 -9 -8 -14 -10 -11 -3 3 -2 9 2 15 9 16 15 13 8 -4z m-3723 -1069 c0 -3 -4
-8 -10 -11 -5 -3 -10 -1 -10 4 0 6 5 11 10 11 6 0 10 -2 10 -4z m-20085 -734
c-3 -3 -11 0 -18 7 -9 10 -8 11 6 5 10 -3 15 -9 12 -12z m9725 -2408 c0 -8
-19 -13 -24 -6 -3 5 1 9 9 9 8 0 15 -2 15 -3z m10980 -898 c0 -8 -7 -16 -15
-20 -12 -4 -13 -2 -2 14 14 24 17 25 17 6z m-15380 -60 c0 -2 -7 -9 -15 -16
-13 -11 -14 -10 -9 4 5 14 24 23 24 12z m14881 -259 c-10 -9 -11 -8 -5 6 3 10
9 15 12 12 3 -3 0 -11 -7 -18z m-3021 -311 c0 -3 -4 -8 -10 -11 -5 -3 -10 -1
-10 4 0 6 5 11 10 11 6 0 10 -2 10 -4z m-1130 -460 c0 -2 -8 -10 -17 -17 -16
-13 -17 -12 -4 4 13 16 21 21 21 13z m-890 -542 c0 -8 -19 -13 -24 -6 -3 5 1
9 9 9 8 0 15 -2 15 -3z m-2585 -276 c5 4 5 1 1 -6 -5 -9 -12 -9 -27 -2 -10 6
-19 13 -19 16 0 2 8 0 19 -5 10 -6 22 -7 26 -3z m-215 -7718 c-6 -11 -13 -20
-16 -20 -2 0 0 9 6 20 6 11 13 20 16 20 2 0 0 -9 -6 -20z"/>
<path d="M9840 23309 c0 -5 5 -7 10 -4 6 3 10 8 10 11 0 2 -4 4 -10 4 -5 0
-10 -5 -10 -11z"/>
<path d="M8846 22935 c-11 -8 -15 -15 -9 -15 6 0 16 7 23 15 16 19 11 19 -14
0z"/>
<path d="M13360 22706 c0 -2 8 -10 18 -17 15 -13 16 -12 3 4 -13 16 -21 21
-21 13z"/>
<path d="M7960 22100 c-6 -11 -8 -20 -6 -20 3 0 10 9 16 20 6 11 8 20 6 20 -3
0 -10 -9 -16 -20z"/>
<path d="M3870 21609 c0 -5 5 -7 10 -4 6 3 10 8 10 11 0 2 -4 4 -10 4 -5 0
-10 -5 -10 -11z"/>
<path d="M17630 21359 c0 -5 5 -7 10 -4 6 3 10 8 10 11 0 2 -4 4 -10 4 -5 0
-10 -5 -10 -11z"/>
<path d="M14405 21340 c3 -5 8 -10 11 -10 2 0 4 5 4 10 0 6 -5 10 -11 10 -5 0
-7 -4 -4 -10z"/>
<path d="M14505 21041 c-3 -5 -2 -12 3 -15 5 -3 9 1 9 9 0 17 -3 19 -12 6z"/>
<path d="M16002 20554 c-7 -8 -8 -14 -3 -14 10 0 25 19 20 25 -2 1 -10 -3 -17
-11z"/>
<path d="M22830 20119 c0 -5 5 -7 10 -4 6 3 10 8 10 11 0 2 -4 4 -10 4 -5 0
-10 -5 -10 -11z"/>
<path d="M14700 19230 c-9 -6 -10 -10 -3 -10 6 0 15 5 18 10 8 12 4 12 -15 0z"/>
<path d="M3710 18446 c0 -2 7 -7 16 -10 8 -3 12 -2 9 4 -6 10 -25 14 -25 6z"/>
<path d="M24700 17926 c0 -2 8 -10 18 -17 15 -13 16 -12 3 4 -13 16 -21 21
-21 13z"/>
<path d="M1595 16810 c3 -5 8 -10 11 -10 2 0 4 5 4 10 0 6 -5 10 -11 10 -5 0
-7 -4 -4 -10z"/>
<path d="M22036 14128 c3 -5 10 -6 15 -3 13 9 11 12 -6 12 -8 0 -12 -4 -9 -9z"/>
<path d="M21556 12937 c3 -10 9 -15 12 -12 3 3 0 11 -7 18 -10 9 -11 8 -5 -6z"/>
<path d="M1870 12650 c0 -5 5 -10 11 -10 5 0 7 5 4 10 -3 6 -8 10 -11 10 -2 0
-4 -4 -4 -10z"/>
<path d="M20275 9440 c-3 -5 -1 -10 4 -10 6 0 11 5 11 10 0 6 -2 10 -4 10 -3
0 -8 -4 -11 -10z"/>
<path d="M19050 9256 c0 -2 8 -10 18 -17 15 -13 16 -12 3 4 -13 16 -21 21 -21
13z"/>
<path d="M15067 8093 c-12 -12 -7 -19 12 -19 15 0 17 3 9 13 -12 15 -13 15
-21 6z"/>
</g>
</svg>
