<?xml version="1.0" standalone="no"?>
<!DOCTYPE svg PUBLIC "-//W3C//DTD SVG 20010904//EN"
 "http://www.w3.org/TR/2001/REC-SVG-20010904/DTD/svg10.dtd">
<svg version="1.0" xmlns="http://www.w3.org/2000/svg"
 width="2500.000000pt" height="2500.000000pt" viewBox="0 0 2500.000000 2500.000000"
 preserveAspectRatio="xMidYMid meet">

<g transform="translate(0.000000,2500.000000) scale(0.100000,-0.100000)"
fill="rgb(255,255,255)" stroke="none">
<path d="M10264 24405 c-302 -312 -550 -569 -551 -573 -1 -4 245 -239 547
-522 301 -283 546 -518 543 -522 -2 -5 -13 -8 -23 -8 -42 0 -491 -96 -735
-157 -752 -188 -1399 -427 -2111 -779 -1150 -569 -2163 -1333 -3067 -2314
-514 -558 -1019 -1261 -1407 -1960 -542 -976 -926 -2041 -1134 -3150 -108
-575 -162 -1125 -173 -1755 -15 -937 88 -1820 318 -2725 383 -1503 1079 -2878
2067 -4080 400 -487 1002 -1081 1507 -1487 385 -309 1198 -864 1225 -836 11
11 801 1386 797 1388 -1 1 -83 50 -182 110 -562 337 -1024 684 -1488 1119
-945 885 -1663 1930 -2161 3143 -303 739 -520 1621 -601 2438 -54 559 -49
1189 15 1746 97 851 315 1679 643 2449 456 1070 1074 1987 1887 2800 586 586
1195 1047 1948 1471 609 344 1342 640 2043 823 l173 46 -319 -320 -319 -319
134 -138 c74 -76 323 -333 554 -571 l420 -432 346 343 c190 188 719 714 1176
1168 572 568 847 848 882 898 174 248 178 591 10 848 -46 71 -655 683 -2184
2195 l-230 229 -550 -566z"/>
<path d="M17702 21283 c-49 -82 -233 -387 -410 -680 -177 -293 -322 -536 -322
-541 0 -5 64 -48 143 -97 592 -368 1067 -744 1547 -1225 352 -351 559 -588
836 -956 752 -999 1280 -2153 1548 -3382 144 -657 201 -1192 200 -1872 -1
-741 -67 -1318 -231 -2030 -129 -564 -341 -1177 -598 -1731 -299 -643 -731
-1327 -1188 -1877 -1196 -1442 -2777 -2449 -4597 -2926 l-135 -36 319 319 319
320 -139 144 c-76 79 -326 336 -554 570 l-415 427 -370 -368 c-1358 -1348
-2001 -1993 -2027 -2030 -47 -67 -104 -200 -122 -279 -20 -92 -20 -233 0 -326
8 -40 41 -124 71 -187 l56 -115 886 -879 c487 -484 1026 -1019 1196 -1188
l310 -308 569 569 569 569 -26 24 c-15 12 -269 246 -566 518 -417 382 -536
497 -523 502 9 4 76 16 147 28 434 70 1001 213 1485 373 898 298 1709 692
2495 1212 1399 926 2541 2162 3367 3645 308 553 559 1124 763 1735 295 881
452 1670 527 2650 20 267 17 1153 -5 1425 -63 760 -169 1368 -359 2050 -294
1062 -784 2118 -1406 3030 -699 1025 -1534 1879 -2557 2616 -208 150 -679 454
-703 454 -6 0 -51 -66 -100 -147z"/>
<path d="M11890 18063 c-1067 -57 -1962 -210 -2723 -464 -1108 -370 -1835
-887 -2169 -1545 -134 -263 -189 -501 -189 -809 0 -300 49 -518 178 -784 362
-745 1283 -1353 2588 -1710 236 -64 308 -82 535 -130 1561 -332 3426 -305
4925 70 909 228 1622 549 2160 973 109 85 309 284 403 399 175 214 320 494
383 740 39 154 51 256 52 437 1 300 -49 518 -178 786 -279 578 -885 1065
-1761 1418 -874 351 -1872 550 -3094 616 -163 9 -964 11 -1110 3z m1275 -1577
c902 -64 1704 -242 2364 -523 318 -136 649 -344 786 -496 68 -75 115 -165 115
-221 -1 -90 -76 -199 -218 -317 -492 -408 -1481 -740 -2587 -868 -471 -55
-1023 -77 -1515 -61 -451 14 -661 31 -1075 86 -1067 141 -2075 514 -2478 915
-188 188 -193 287 -26 464 493 518 1851 950 3229 1025 107 6 222 12 255 14
142 9 956 -4 1150 -18z"/>
<path d="M6806 12428 c8 -128 25 -250 50 -354 149 -636 696 -1214 1551 -1639
1261 -626 3094 -912 4943 -770 1301 100 2523 432 3335 906 840 490 1282 1075
1345 1779 5 63 10 123 10 133 0 16 -45 17 -805 17 l-805 0 0 -23 c0 -75 -133
-235 -295 -357 -521 -390 -1489 -703 -2550 -824 -1225 -140 -2573 -49 -3590
244 -426 123 -806 278 -1087 443 -267 157 -498 386 -498 494 l0 23 -804 0
-805 0 5 -72z"/>
<path d="M6807 9668 c8 -171 49 -381 103 -527 222 -603 772 -1120 1607 -1510
923 -431 2111 -685 3463 -741 682 -29 1455 13 2145 116 647 96 1303 263 1805
459 686 267 1209 593 1550 966 116 126 163 184 219 267 207 308 311 605 336
965 l6 87 -805 0 c-776 0 -806 -1 -806 -18 0 -32 -57 -135 -107 -191 -61 -70
-215 -192 -334 -267 -608 -377 -1559 -647 -2614 -744 -378 -34 -626 -43 -1095
-37 -683 8 -1141 52 -1725 168 -896 178 -1667 504 -2005 848 -74 76 -140 179
-140 220 l0 21 -803 0 -804 0 4 -82z"/>
</g>
</svg>
