<?xml version="1.0" standalone="no"?>
<!DOCTYPE svg PUBLIC "-//W3C//DTD SVG 20010904//EN"
 "http://www.w3.org/TR/2001/REC-SVG-20010904/DTD/svg10.dtd">
<svg version="1.0" xmlns="http://www.w3.org/2000/svg"
 width="2500.000000pt" height="2500.000000pt" viewBox="0 0 2500.000000 2500.000000"
 preserveAspectRatio="xMidYMid meet">

<g transform="translate(0.000000,2500.000000) scale(0.100000,-0.100000)"
fill="rgb(255,255,255)" stroke="none">
<path d="M12269 23792 c-144 -53 -245 -141 -310 -271 -33 -64 -34 -70 -34
-181 0 -111 2 -117 35 -184 58 -116 150 -201 275 -257 102 -45 145 -50 520
-59 198 -5 430 -16 515 -24 251 -24 341 -28 410 -18 247 38 432 211 461 432
26 206 -116 416 -335 497 -77 28 -111 33 -416 59 -235 20 -390 27 -675 30
l-370 4 -76 -28z"/>
<path d="M8990 23271 c-268 -74 -918 -325 -1186 -457 -173 -85 -274 -259 -261
-449 7 -91 18 -129 60 -200 60 -100 137 -161 273 -216 62 -24 99 -33 170 -37
87 -4 217 10 239 27 5 5 21 12 35 16 24 7 137 55 225 95 22 11 72 31 110 45
39 15 97 37 130 50 184 72 256 99 310 116 33 11 74 26 90 33 17 8 57 21 90 31
89 25 209 91 261 144 38 38 108 142 109 161 0 3 4 11 8 18 17 25 25 151 15
222 -13 91 -20 112 -57 168 -101 151 -263 238 -466 247 -67 3 -107 0 -155 -14z"/>
<path d="M16695 22889 c-27 -6 -87 -28 -132 -49 -304 -147 -376 -517 -144
-747 47 -46 89 -74 183 -122 68 -33 126 -61 131 -61 21 0 648 -322 737 -379
64 -41 180 -83 257 -93 83 -12 250 0 276 20 7 4 39 19 72 32 119 47 224 157
269 285 28 77 30 206 4 280 -40 113 -109 198 -218 267 -198 126 -904 478
-1095 545 -80 29 -252 40 -340 22z"/>
<path d="M5265 21110 c-95 -13 -184 -48 -255 -99 -148 -107 -804 -750 -879
-861 -85 -126 -107 -227 -75 -350 41 -163 117 -256 269 -332 39 -20 94 -41
123 -47 80 -17 258 -14 323 5 127 38 162 64 389 293 225 226 417 412 510 494
155 136 202 204 229 331 19 90 19 89 -11 221 -8 34 -29 73 -67 124 -75 99 -68
92 -137 135 -122 75 -274 106 -419 86z"/>
<path d="M20225 20404 c-53 -9 -162 -54 -222 -93 -78 -50 -146 -131 -183 -219
-26 -62 -30 -82 -30 -166 0 -164 22 -202 281 -491 103 -115 351 -411 453 -540
85 -108 127 -145 222 -194 151 -78 393 -80 536 -6 184 96 288 253 288 435 0
123 -47 216 -210 420 -303 378 -594 701 -683 758 -106 69 -185 93 -312 97 -60
2 -123 1 -140 -1z"/>
<path d="M10595 19065 c-310 -31 -572 -90 -805 -183 -41 -17 -98 -39 -126 -50
-54 -22 -217 -109 -319 -170 -317 -190 -632 -504 -800 -797 -113 -198 -169
-331 -227 -540 -47 -171 -47 -170 -60 -352 -13 -194 0 -471 28 -578 8 -32 11
-62 7 -66 -4 -4 -55 -1 -113 6 -350 48 -742 36 -1035 -31 -395 -91 -648 -198
-970 -410 -366 -241 -692 -629 -840 -999 -5 -11 -9 -23 -10 -27 -2 -5 -4 -10
-5 -13 -1 -3 -3 -8 -5 -12 -1 -5 -7 -21 -13 -36 -7 -16 -12 -35 -12 -43 0 -8
-5 -14 -11 -14 -6 0 -8 -7 -5 -17 4 -9 3 -19 -2 -22 -8 -5 -38 -114 -57 -206
-22 -104 -29 -201 -30 -395 0 -211 16 -409 35 -435 4 -5 16 -47 25 -92 10 -46
22 -83 27 -83 5 0 8 -6 7 -12 -1 -7 3 -26 9 -41 7 -16 12 -35 12 -43 0 -8 5
-14 11 -14 6 0 9 -7 5 -15 -3 -8 -2 -15 2 -15 5 0 16 -25 26 -55 44 -142 222
-427 363 -585 99 -110 183 -190 199 -190 16 0 19 -7 19 -40 0 -34 -2 -39 -17
-34 -20 6 -146 -117 -243 -236 -122 -151 -271 -394 -311 -507 -10 -29 -22 -53
-26 -53 -4 0 -5 -6 -2 -14 3 -8 1 -17 -5 -20 -6 -4 -8 -13 -4 -21 3 -8 0 -15
-5 -15 -6 0 -14 -16 -18 -35 -3 -19 -10 -35 -14 -35 -5 0 -6 -10 -3 -22 4 -13
2 -19 -3 -15 -7 7 -35 -88 -59 -198 -33 -153 -43 -478 -21 -655 8 -69 17 -134
20 -145 3 -11 16 -64 27 -117 12 -53 26 -95 31 -91 5 3 9 -3 7 -13 -2 -17 4
-38 28 -94 3 -8 5 -21 4 -27 -1 -7 2 -13 7 -13 4 0 16 -26 26 -57 40 -128 229
-427 356 -563 18 -19 60 -64 94 -100 160 -171 412 -357 636 -471 285 -144 491
-213 875 -289 168 -34 625 -36 835 -4 58 8 116 16 130 17 29 2 28 9 4 -133
-30 -180 -20 -717 15 -765 4 -5 13 -37 21 -70 25 -119 100 -318 170 -455 240
-465 695 -878 1205 -1092 39 -16 102 -40 140 -54 39 -13 79 -28 90 -34 40 -19
306 -81 432 -101 215 -33 347 -41 563 -35 407 10 790 102 1170 280 30 14 82
41 115 60 33 20 76 44 96 55 47 26 154 99 247 169 57 43 72 60 68 75 -4 17 -1
18 25 13 17 -3 38 0 49 6 23 15 38 4 22 -15 -9 -11 -8 -18 6 -31 30 -29 115
-92 199 -147 347 -229 661 -351 1103 -430 250 -45 659 -51 865 -14 17 3 89 16
160 29 215 39 412 96 542 156 24 11 46 20 50 20 3 0 63 29 132 63 199 101 415
245 536 358 118 111 145 138 210 209 80 88 207 256 241 320 156 289 195 382
249 601 60 243 75 440 51 686 -9 88 -20 173 -26 188 -12 32 -13 82 -1 89 4 3
39 -1 77 -9 218 -44 730 -42 944 5 25 5 81 17 125 25 123 25 384 103 475 143
534 233 907 541 1178 972 71 114 96 163 152 295 23 55 48 114 55 130 7 17 20
64 30 105 9 41 21 84 25 95 26 59 45 256 44 460 -2 293 -38 494 -131 725 -101
253 -224 458 -394 655 -86 100 -177 191 -198 197 -7 2 -15 20 -17 40 -2 30 0
35 15 31 29 -7 216 191 327 348 153 217 288 497 336 699 68 288 83 536 49 795
-12 88 -28 178 -36 200 -8 22 -14 48 -15 57 0 9 -14 58 -30 107 -117 349 -357
707 -637 949 -199 173 -349 274 -565 380 -236 116 -385 170 -643 231 -319 75
-808 85 -1142 25 -31 -6 -33 -5 -33 24 0 17 6 59 14 94 8 35 20 126 26 202 22
272 -16 558 -115 850 -26 76 -128 292 -183 387 -35 58 -133 196 -175 245 -128
150 -183 205 -317 317 -201 170 -362 269 -645 398 -203 92 -479 165 -775 204
-122 17 -526 20 -670 5 -200 -20 -512 -92 -680 -156 -172 -67 -420 -184 -460
-219 -8 -7 -31 -21 -50 -30 -76 -39 -290 -202 -290 -222 0 -18 -57 -17 -67 1
-4 8 -26 28 -48 45 -22 16 -66 49 -97 73 -253 191 -601 354 -933 438 -216 55
-260 62 -530 85 -152 13 -291 13 -420 0z m410 -746 c149 -11 197 -20 370 -67
298 -81 536 -228 880 -541 134 -122 214 -166 331 -183 68 -10 95 -9 160 4 110
22 185 71 400 261 305 270 515 389 832 472 139 37 230 51 397 60 114 7 348 -7
445 -26 86 -17 272 -68 307 -85 18 -8 52 -22 75 -30 66 -23 240 -119 336 -184
144 -99 290 -244 428 -427 84 -111 199 -386 225 -538 19 -110 17 -383 -4 -487
-45 -229 -155 -455 -313 -643 -80 -95 -231 -238 -489 -461 -44 -38 -161 -141
-260 -229 -98 -88 -236 -209 -306 -270 -128 -111 -396 -346 -524 -460 -38 -34
-171 -151 -295 -260 -124 -108 -259 -227 -300 -264 -41 -37 -165 -146 -275
-241 -110 -96 -202 -177 -205 -180 -3 -4 -79 -71 -170 -150 -175 -152 -199
-173 -233 -206 -50 -47 -155 -134 -162 -134 -8 0 -100 77 -195 164 -31 28
-121 107 -200 176 -80 69 -172 150 -205 180 -34 30 -128 113 -210 185 -83 71
-191 166 -240 210 -182 161 -323 285 -450 395 -71 63 -164 144 -205 180 -41
37 -133 118 -205 181 -71 62 -132 116 -135 119 -3 3 -57 51 -120 105 -63 55
-171 150 -240 211 -69 61 -179 157 -244 214 -66 57 -127 110 -136 119 -9 9
-30 27 -46 41 -335 286 -452 417 -574 643 -132 245 -186 588 -135 852 49 254
158 483 314 665 205 237 442 406 721 512 284 109 528 142 855 117z m-3081
-2710 c391 -29 764 -182 1046 -429 36 -31 117 -101 180 -155 63 -54 117 -101
120 -106 3 -4 39 -36 81 -71 42 -34 118 -101 170 -147 52 -46 110 -98 129
-115 19 -17 107 -94 195 -170 88 -77 165 -144 170 -150 6 -7 80 -72 165 -146
85 -74 157 -137 160 -141 3 -3 82 -72 175 -154 94 -81 172 -151 175 -155 4 -5
213 -188 480 -420 79 -69 181 -160 254 -225 6 -6 67 -59 136 -119 69 -60 157
-137 195 -171 39 -34 113 -100 165 -146 52 -45 95 -89 95 -97 0 -7 -50 -57
-112 -110 -231 -200 -558 -487 -568 -498 -5 -6 -64 -57 -130 -114 -66 -57
-127 -111 -136 -119 -9 -9 -40 -36 -69 -61 -29 -25 -60 -52 -69 -61 -9 -9 -70
-63 -136 -120 -66 -57 -125 -108 -131 -114 -6 -5 -35 -30 -64 -55 -29 -25 -61
-52 -69 -61 -9 -9 -56 -52 -106 -94 -49 -43 -121 -106 -160 -140 -38 -34 -128
-113 -200 -175 -71 -62 -139 -121 -150 -131 -11 -10 -45 -40 -75 -67 -30 -27
-116 -102 -190 -167 -74 -64 -166 -145 -205 -180 -38 -34 -131 -115 -205 -180
-74 -65 -156 -136 -181 -159 -164 -148 -260 -217 -409 -298 -105 -57 -293
-131 -386 -153 -38 -9 -96 -23 -129 -31 -155 -36 -434 -45 -638 -19 -65 8
-121 16 -126 19 -4 3 -43 12 -86 21 -151 32 -439 157 -558 243 -29 20 -70 50
-92 64 -22 15 -60 46 -85 69 -25 23 -65 60 -89 82 -191 176 -354 454 -403 687
-10 52 -24 110 -30 129 -13 44 -13 349 0 392 6 19 18 75 28 124 9 50 24 108
34 130 10 22 21 51 25 65 38 122 259 440 363 520 15 12 50 43 77 69 28 26 97
88 155 138 132 115 156 142 193 222 59 126 33 267 -71 374 -26 27 -101 96
-167 154 -265 233 -407 398 -497 578 -75 148 -100 226 -138 430 -23 122 -18
302 14 468 87 464 468 897 978 1114 270 114 566 158 902 132z m9797 0 c445
-35 812 -202 1125 -514 156 -156 234 -261 309 -421 26 -55 53 -110 60 -124 7
-14 19 -53 25 -87 7 -35 16 -63 20 -63 3 0 5 -13 2 -30 -2 -16 0 -30 6 -30 15
0 22 -80 22 -245 0 -166 -8 -255 -23 -255 -5 0 -7 -13 -5 -30 3 -16 1 -30 -2
-30 -4 0 -13 -28 -20 -62 -6 -35 -16 -68 -20 -73 -5 -6 -18 -37 -31 -70 -12
-33 -27 -67 -33 -75 -7 -8 -19 -31 -28 -51 -28 -61 -102 -170 -172 -252 -60
-71 -183 -189 -430 -411 -116 -105 -151 -172 -151 -291 0 -69 4 -89 32 -145
36 -75 56 -97 219 -240 188 -165 353 -336 416 -430 92 -138 180 -323 200 -420
6 -32 15 -57 19 -54 4 2 5 -12 2 -32 -4 -24 -3 -35 4 -31 15 9 24 -76 24 -243
1 -159 -8 -250 -24 -250 -6 0 -7 -15 -4 -37 4 -21 3 -32 -2 -25 -4 8 -12 -13
-19 -52 -7 -36 -19 -78 -26 -93 -8 -15 -36 -73 -61 -128 -99 -211 -220 -360
-440 -545 -108 -91 -198 -148 -335 -213 -280 -132 -523 -187 -830 -187 -206 0
-317 14 -520 67 -146 38 -390 150 -520 238 -72 49 -172 126 -190 145 -5 6
-267 236 -580 510 -189 165 -299 262 -420 370 -75 68 -252 223 -580 510 -213
186 -320 280 -420 370 -41 37 -131 116 -200 175 -69 59 -161 140 -205 180 -44
40 -157 139 -251 221 -335 292 -374 328 -374 339 0 11 80 85 264 244 28 24 83
72 121 106 39 35 131 116 205 180 74 65 169 148 210 185 41 37 93 82 115 101
62 53 209 182 215 189 3 3 61 55 130 115 69 61 130 114 136 120 6 5 26 23 45
39 19 16 52 45 75 65 41 37 48 43 194 170 47 41 87 77 90 80 3 4 77 69 165
146 88 76 167 146 176 154 9 9 45 41 80 72 35 31 145 128 244 215 99 88 227
200 283 249 57 50 134 116 170 148 115 101 253 210 311 246 95 58 244 137 296
156 28 10 55 22 61 26 6 5 53 20 105 35 271 75 467 95 740 73z m-5019 -3705
c23 -20 54 -46 68 -59 114 -104 161 -145 270 -240 69 -60 130 -114 136 -119 7
-6 38 -34 70 -62 33 -28 120 -105 194 -171 74 -65 209 -184 300 -262 91 -79
201 -176 245 -216 44 -39 98 -87 120 -105 43 -36 69 -60 126 -112 19 -18 116
-102 215 -187 98 -85 191 -166 205 -180 14 -14 52 -48 85 -76 32 -27 82 -70
109 -95 28 -26 68 -62 91 -81 22 -18 83 -72 135 -118 52 -46 123 -109 159
-140 35 -31 87 -76 115 -102 27 -25 91 -80 140 -124 232 -202 378 -351 476
-485 91 -125 203 -389 230 -545 19 -111 17 -383 -4 -490 -74 -375 -315 -720
-681 -972 -191 -132 -542 -262 -786 -293 -111 -14 -431 -11 -530 5 -335 54
-624 175 -859 360 -61 48 -272 232 -374 326 -58 54 -216 109 -311 109 -72 0
-207 -46 -268 -91 -25 -18 -124 -103 -220 -187 -95 -85 -204 -174 -243 -199
-38 -26 -82 -55 -98 -65 -51 -35 -218 -117 -310 -152 -111 -43 -304 -91 -418
-106 -178 -22 -524 -9 -644 25 -27 7 -79 21 -115 30 -97 24 -251 82 -348 132
-169 86 -308 188 -447 327 -266 268 -393 528 -435 897 -11 92 -8 168 11 299
46 314 191 587 445 835 72 71 406 369 544 485 41 35 95 83 120 106 58 54 280
250 446 395 73 63 221 193 329 289 109 96 275 243 369 325 95 83 243 213 331
290 87 77 179 158 205 180 51 43 272 239 330 292 83 75 416 362 422 362 3 1
26 -15 50 -35z"/>
<path d="M12277 16723 c-4 -3 -7 -377 -7 -830 l0 -823 530 0 530 0 0 150 0
150 -352 2 -353 3 -3 678 -2 677 -168 0 c-93 0 -172 -3 -175 -7z"/>
<path d="M7970 12450 l0 -832 423 5 c395 4 427 5 502 26 295 80 495 273 575
553 33 113 38 306 11 425 -75 340 -289 547 -643 625 -81 17 -142 21 -480 25
l-388 5 0 -832z m820 495 c185 -56 305 -188 344 -378 20 -94 20 -152 1 -242
-42 -199 -184 -345 -380 -390 -48 -12 -113 -15 -253 -13 l-187 3 -3 510 c-1
281 0 516 3 524 8 21 398 9 475 -14z"/>
<path d="M16524 13272 c-6 -4 -134 -326 -284 -717 -150 -390 -292 -759 -316
-820 l-42 -110 181 -3 c100 -1 186 -1 193 2 6 2 33 65 60 140 l49 136 374 -2
374 -3 50 -137 50 -138 189 0 c103 0 188 2 188 3 0 2 -75 199 -166 438 -91
239 -202 529 -245 644 -130 342 -211 549 -222 563 -7 9 -62 12 -216 12 -113 0
-211 -4 -217 -8z m251 -404 c16 -46 75 -211 132 -368 57 -157 103 -288 103
-292 0 -9 -534 -11 -543 -2 -6 6 18 76 161 464 111 300 103 280 111 280 4 0
20 -37 36 -82z"/>
<path d="M12020 8990 l0 -830 170 0 170 0 0 550 c0 326 4 550 9 550 16 0 -9
34 628 -867 l165 -233 169 0 169 0 0 830 0 830 -170 0 -170 0 -2 -527 c-2
-394 -6 -527 -15 -530 -6 -2 -94 112 -196 254 -101 142 -264 371 -362 508 -98
138 -187 260 -198 273 -20 21 -27 22 -194 22 l-173 0 0 -830z"/>
<path d="M2742 17819 c-46 -5 -104 -22 -160 -46 -72 -31 -99 -50 -158 -108
-75 -75 -102 -122 -272 -490 -67 -145 -70 -154 -172 -400 -111 -272 -105 -249
-105 -371 0 -108 1 -112 38 -187 46 -93 108 -159 202 -215 83 -49 159 -70 275
-78 150 -10 278 30 403 125 78 60 113 112 176 261 30 69 69 161 88 205 19 44
41 98 49 120 8 22 25 63 38 90 48 98 96 207 102 231 3 13 10 24 15 24 5 0 9 5
9 11 0 6 13 39 29 73 88 186 104 260 77 364 -20 78 -53 144 -105 206 -121 144
-312 211 -529 185z"/>
<path d="M22415 16925 c-192 -36 -327 -139 -405 -310 -17 -38 -24 -74 -27
-145 l-4 -95 66 -190 c106 -301 199 -581 234 -700 35 -122 91 -242 135 -293
48 -54 147 -119 227 -148 198 -71 410 -41 576 83 116 87 173 195 181 340 4 82
1 103 -38 248 -18 66 -177 555 -197 605 -4 8 -7 17 -7 20 -1 3 -4 10 -7 15 -4
6 -14 37 -24 70 -9 33 -20 65 -25 70 -4 6 -19 42 -34 82 -15 39 -41 92 -58
117 -74 112 -222 206 -366 232 -94 16 -136 16 -227 -1z"/>
<path d="M1625 13960 c-197 -48 -339 -159 -406 -319 -30 -72 -31 -83 -44 -320
-16 -290 -22 -421 -31 -671 -6 -171 -5 -191 15 -265 12 -44 31 -95 43 -113 38
-62 106 -134 160 -168 53 -34 146 -74 173 -74 8 0 16 -4 19 -8 5 -9 60 -15
141 -16 195 -2 383 93 482 245 57 86 83 212 84 399 0 74 5 232 10 350 6 118
11 303 12 410 l2 195 -35 68 c-67 131 -174 220 -320 267 -75 24 -242 35 -305
20z m632 -1142 c-3 -8 -6 -5 -6 6 -1 11 2 17 5 13 3 -3 4 -12 1 -19z"/>
<path d="M23125 12981 c-190 -47 -360 -211 -394 -381 -6 -30 -16 -197 -21
-370 -6 -173 -15 -378 -21 -455 -6 -77 -9 -189 -7 -250 4 -98 8 -117 36 -178
69 -150 243 -272 422 -296 201 -27 423 55 536 197 81 102 98 158 109 352 3 63
9 133 12 155 4 22 6 75 4 118 -1 60 1 77 10 71 10 -6 11 47 7 237 -3 134 -2
233 2 219 5 -17 8 5 9 63 1 48 -2 87 -7 87 -4 0 -6 18 -4 40 3 26 0 40 -7 40
-7 0 -11 6 -10 13 2 14 -13 56 -39 105 -9 19 -43 60 -76 92 -133 134 -360 191
-561 141z"/>
<path d="M2005 10003 c-234 -52 -389 -191 -439 -394 -26 -108 -36 -63 126
-604 16 -55 37 -118 45 -140 8 -22 49 -134 89 -249 72 -203 119 -304 166 -356
63 -69 183 -140 279 -164 82 -20 236 -21 312 -1 156 41 285 143 352 279 35 70
40 88 43 170 3 84 1 100 -36 211 -22 66 -54 158 -72 205 -53 144 -120 341
-120 356 0 8 -5 14 -11 14 -6 0 -8 7 -5 17 4 9 3 19 -2 22 -5 3 -19 47 -31 96
-12 50 -32 117 -45 150 -29 74 -34 89 -33 95 3 11 -70 108 -111 147 -95 92
-258 154 -403 152 -46 -1 -93 -3 -104 -6z"/>
<path d="M22450 9084 c-158 -24 -316 -128 -389 -257 -26 -47 -103 -227 -176
-412 -15 -38 -55 -126 -87 -195 -215 -451 -226 -491 -186 -675 6 -27 27 -74
46 -104 103 -161 277 -250 488 -251 171 0 304 53 419 167 50 50 70 82 137 223
104 216 110 230 153 330 21 47 47 108 60 135 12 28 28 68 35 90 7 22 19 51 26
65 17 33 57 132 99 250 41 112 44 172 15 270 -66 223 -283 372 -535 368 -44 0
-91 -2 -105 -4z"/>
<path d="M3865 6369 c-166 -17 -324 -106 -405 -230 -79 -120 -99 -259 -56
-382 32 -89 67 -143 203 -312 111 -137 146 -179 283 -340 38 -44 78 -91 90
-105 11 -14 38 -43 58 -65 21 -22 66 -72 101 -112 110 -126 230 -195 379 -214
278 -37 519 87 615 317 49 116 45 232 -13 348 -38 76 -63 111 -149 206 -140
153 -256 290 -389 455 -75 94 -159 196 -186 229 -134 157 -314 227 -531 205z"/>
<path d="M20270 5596 c-162 -32 -238 -84 -455 -312 -88 -92 -265 -266 -394
-388 -129 -121 -246 -237 -262 -259 -51 -70 -81 -167 -81 -261 0 -70 5 -94 30
-154 55 -131 136 -216 262 -275 85 -39 136 -50 250 -50 159 -1 253 27 363 107
109 80 663 617 816 791 108 123 150 237 138 372 -13 130 -117 285 -240 357
-121 71 -290 100 -427 72z"/>
<path d="M7047 3570 c-234 -40 -404 -181 -452 -375 -48 -195 19 -368 192 -490
110 -78 656 -367 903 -478 30 -13 93 -41 139 -62 49 -22 128 -46 188 -58 l103
-20 102 21 c194 42 323 134 396 282 37 74 37 76 37 200 0 118 -2 128 -29 180
-76 146 -134 193 -386 311 -207 96 -509 250 -705 359 -154 86 -198 104 -298
124 -82 17 -115 18 -190 6z"/>
<path d="M16795 3084 c-92 -20 -162 -45 -320 -118 -27 -13 -61 -27 -75 -31
-14 -4 -29 -11 -35 -15 -5 -4 -41 -19 -80 -33 -38 -14 -104 -39 -145 -55 -163
-63 -270 -102 -381 -140 -186 -62 -283 -124 -360 -229 -131 -177 -113 -405 47
-581 30 -32 123 -102 137 -102 4 0 26 -9 50 -19 23 -11 62 -25 87 -32 61 -16
232 -13 300 5 64 17 202 62 245 81 17 7 41 16 55 20 31 9 173 64 305 117 55
22 132 53 170 68 105 41 281 117 365 158 120 59 194 131 249 242 35 73 36 78
36 190 -1 110 -2 118 -34 182 -41 83 -137 185 -215 227 -83 46 -191 71 -295
70 -47 -1 -95 -3 -106 -5z"/>
<path d="M11225 2189 c-178 -38 -312 -138 -382 -285 -37 -77 -38 -82 -38 -189
1 -100 3 -115 29 -170 59 -123 125 -190 252 -254 57 -29 110 -42 299 -71 147
-23 933 -55 1130 -47 72 3 153 12 181 20 129 36 254 133 307 238 14 30 36 92
47 138 22 88 21 111 -16 230 -33 105 -138 217 -259 276 -132 64 -166 68 -685
85 -162 6 -376 17 -475 25 -196 16 -328 18 -390 4z"/>
</g>
</svg>
