<?xml version="1.0" standalone="no"?>
<!DOCTYPE svg PUBLIC "-//W3C//DTD SVG 20010904//EN"
 "http://www.w3.org/TR/2001/REC-SVG-20010904/DTD/svg10.dtd">
<svg version="1.0" xmlns="http://www.w3.org/2000/svg"
 width="2500.000000pt" height="2500.000000pt" viewBox="0 0 2500.000000 2500.000000"
 preserveAspectRatio="xMidYMid meet">
<metadata>
Created by potrace 1.14, written by Peter Selinger 2001-2017
</metadata>
<g transform="translate(0.000000,2500.000000) scale(0.100000,-0.100000)"
fill="#000000" stroke="none">
<path d="M10995 23474 c3 -9 -15 -11 -65 -10 -41 1 -71 -2 -74 -8 -3 -7 -5 -7
-5 0 -1 7 -14 10 -33 7 -18 -3 -39 -5 -45 -6 -7 0 -13 -4 -13 -9 0 -4 -5 -8
-11 -8 -5 0 -8 3 -5 8 2 4 -10 8 -27 8 -18 1 -26 -1 -19 -3 6 -3 12 -9 12 -14
0 -6 -8 -5 -20 1 -15 8 -20 8 -20 -2 0 -9 -3 -9 -10 2 -5 8 -10 10 -10 3 0
-12 -17 -12 -37 0 -6 4 -14 3 -18 -2 -3 -6 -23 -9 -45 -8 -22 2 -41 -2 -43 -7
-2 -5 -13 -10 -26 -11 -14 -1 -20 3 -17 11 4 11 1 11 -14 2 -10 -7 -17 -15
-14 -19 2 -4 -9 -4 -25 1 -21 6 -31 5 -35 -3 -3 -8 -5 -7 -5 2 -1 11 -5 10
-17 -5 -8 -10 -13 -13 -9 -6 4 7 0 12 -9 12 -9 0 -16 -6 -16 -12 0 -9 -4 -8
-10 2 -9 13 -10 13 -10 0 0 -12 -2 -13 -9 -1 -7 11 -9 11 -14 0 -4 -12 -7 -11
-16 1 -9 13 -11 13 -11 0 0 -13 -11 -16 -50 -15 -39 1 -47 -2 -38 -12 13 -16
-4 -17 -20 -1 -9 9 -12 9 -12 1 0 -7 -9 -10 -20 -8 -11 2 -22 -1 -26 -6 -4 -6
-10 -6 -19 1 -9 8 -15 8 -20 0 -3 -6 -11 -7 -17 -4 -6 4 -8 2 -5 -3 4 -6 0
-14 -9 -17 -8 -3 -12 -2 -9 4 3 6 1 10 -4 10 -6 0 -11 -4 -11 -9 0 -5 -11 -8
-25 -6 -17 1 -25 -3 -26 -14 0 -10 -2 -12 -6 -3 -2 6 -10 9 -16 5 -20 -12 -41
-13 -48 -1 -4 6 -10 2 -14 -11 -3 -11 -11 -21 -16 -21 -6 0 -7 4 -4 10 3 6 -1
7 -9 4 -9 -3 -16 -11 -16 -18 0 -6 -5 -4 -10 4 -8 13 -10 13 -10 -2 0 -11 -5
-15 -15 -12 -8 4 -22 1 -29 -5 -10 -9 -16 -9 -21 -1 -5 8 -11 8 -19 1 -7 -6
-16 -8 -19 -4 -4 3 -9 -2 -13 -11 -3 -9 -10 -16 -16 -16 -5 0 -6 6 -2 13 6 9
5 9 -8 0 -8 -7 -18 -10 -21 -6 -4 3 -9 -1 -13 -10 -3 -9 -14 -14 -25 -12 -10
2 -19 0 -19 -4 0 -5 -11 -7 -24 -6 -17 2 -23 -1 -20 -10 3 -8 -3 -12 -18 -11
-13 1 -29 -5 -36 -14 -8 -8 -11 -9 -7 -2 9 18 -6 15 -21 -5 -8 -11 -13 -13
-14 -5 0 6 -4 12 -10 12 -5 0 -9 -6 -7 -12 1 -7 -6 -12 -15 -12 -10 1 -18 -2
-18 -7 0 -5 -7 -6 -15 -3 -8 4 -17 -1 -21 -10 -3 -9 -10 -16 -16 -16 -5 0 -6
5 -2 11 5 8 1 8 -13 0 -11 -6 -24 -7 -29 -3 -5 4 -3 -1 4 -10 11 -14 10 -16
-6 -11 -11 2 -23 0 -26 -6 -10 -15 -29 -14 -21 2 4 6 0 4 -8 -5 -8 -10 -17
-15 -20 -11 -4 3 -7 1 -7 -6 0 -8 -5 -9 -19 -1 -14 7 -22 7 -27 -2 -4 -7 -3
-8 4 -4 7 4 12 1 12 -7 0 -9 -11 -13 -34 -12 -24 0 -32 -3 -29 -13 4 -9 -2
-11 -22 -8 -22 4 -25 3 -14 -10 10 -12 9 -13 -5 -8 -9 3 -16 1 -16 -5 0 -6 -7
-8 -15 -5 -8 4 -15 1 -15 -6 0 -7 -6 -10 -13 -7 -7 3 -19 -4 -26 -15 -7 -11
-19 -17 -26 -14 -8 3 -18 -2 -23 -10 -5 -8 -18 -16 -30 -17 -12 -1 -22 -8 -23
-17 0 -9 -2 -11 -6 -3 -3 9 -11 7 -26 -7 -11 -11 -28 -19 -36 -18 -9 2 -15 -1
-14 -7 0 -5 -6 -17 -15 -25 -14 -13 -15 -12 -9 5 6 18 6 18 -6 4 -6 -9 -22
-19 -35 -23 -12 -4 -20 -11 -17 -16 8 -13 -22 -19 -35 -7 -10 10 -10 7 -1 -10
10 -19 9 -21 -9 -18 -13 3 -20 -2 -20 -12 0 -9 -6 -13 -14 -10 -8 3 -17 -1
-20 -9 -3 -8 -11 -13 -18 -12 -7 2 -12 -4 -12 -13 1 -12 -4 -15 -19 -11 -15 4
-19 1 -14 -10 4 -12 0 -15 -19 -13 -21 2 -22 0 -12 -13 10 -13 10 -14 1 -8 -8
4 -13 2 -13 -4 0 -6 -4 -8 -10 -5 -5 3 -10 -1 -10 -9 0 -10 -6 -13 -15 -9 -10
3 -15 0 -13 -8 2 -8 -3 -13 -11 -11 -8 2 -11 -3 -8 -12 4 -10 0 -14 -13 -11
-14 3 -18 -1 -15 -17 4 -17 2 -18 -12 -6 -12 9 -15 9 -9 1 4 -7 2 -13 -3 -13
-6 0 -11 -8 -11 -17 0 -10 -4 -14 -8 -8 -4 6 -13 11 -21 13 -12 3 -12 0 -2
-12 14 -16 -2 -32 -21 -20 -7 4 -8 3 -4 -4 3 -6 -3 -16 -15 -22 -11 -7 -18
-14 -15 -17 7 -8 -65 -83 -78 -80 -6 1 -10 -6 -8 -15 1 -9 -3 -20 -9 -24 -8
-5 -9 -3 -4 6 6 9 4 11 -4 5 -7 -4 -10 -16 -8 -27 4 -16 3 -17 -9 -7 -11 9
-14 8 -14 -5 0 -9 -5 -16 -12 -16 -6 0 -8 -3 -5 -7 4 -3 -2 -13 -14 -21 -11
-8 -18 -20 -15 -29 3 -8 1 -11 -4 -8 -6 3 -10 1 -10 -4 0 -6 -5 -11 -11 -11
-5 0 -7 5 -3 12 4 7 3 8 -5 4 -9 -6 -9 -11 0 -22 9 -11 8 -15 -5 -20 -10 -4
-15 -13 -12 -20 3 -8 -1 -14 -10 -14 -11 0 -14 -6 -10 -16 3 -8 2 -12 -4 -9
-6 3 -10 0 -10 -7 0 -9 -3 -9 -10 2 -13 20 -13 4 0 -20 9 -16 8 -18 -6 -13
-13 5 -15 3 -9 -7 6 -9 4 -12 -6 -8 -11 4 -15 -1 -13 -22 1 -22 -2 -27 -14
-23 -10 4 -13 2 -8 -5 8 -14 -24 -53 -37 -45 -6 4 -8 -1 -4 -11 5 -13 3 -17
-7 -13 -8 3 -17 -1 -20 -9 -6 -16 -26 -19 -26 -3 0 5 5 7 12 3 7 -5 8 -3 4 5
-6 9 -13 8 -27 -5 -16 -14 -19 -15 -14 -3 4 11 0 15 -17 15 -13 -1 -27 -5 -31
-11 -5 -6 -7 0 -4 13 5 19 3 21 -9 11 -8 -7 -14 -7 -14 -1 0 5 -7 13 -16 16
-15 6 -15 4 -3 -10 13 -16 12 -16 -7 -6 -12 6 -24 8 -28 5 -3 -3 -6 2 -6 13 0
16 -2 17 -10 4 -7 -12 -10 -12 -10 -1 0 7 -6 11 -15 8 -8 -4 -17 -1 -21 4 -3
6 -17 8 -31 4 -15 -3 -22 -2 -19 4 3 5 -5 8 -19 6 -14 -1 -25 1 -25 5 0 3 -18
6 -41 6 -25 -1 -44 4 -49 13 -4 8 -14 12 -22 8 -8 -3 -21 -1 -29 3 -8 5 -19 4
-26 -2 -11 -8 -12 -7 -7 7 6 14 4 16 -7 9 -20 -12 -39 -14 -39 -3 0 5 -18 9
-41 9 -22 0 -38 4 -35 8 3 5 -1 9 -9 9 -8 0 -12 -3 -10 -7 2 -3 -7 -6 -20 -6
-13 0 -21 4 -19 8 3 5 11 5 17 2 7 -4 9 -3 4 1 -4 5 -32 8 -62 8 -30 0 -55 4
-55 8 0 12 -23 7 -32 -6 -5 -6 -8 -5 -8 3 0 6 -5 12 -11 12 -5 0 -7 -5 -3 -12
4 -7 3 -8 -4 -4 -6 4 -9 13 -5 21 3 8 0 15 -6 15 -6 0 -11 -8 -11 -17 0 -13
-3 -14 -12 -5 -16 16 -31 15 -22 0 5 -9 2 -9 -9 1 -9 7 -17 10 -17 7 0 -4 -8
-2 -18 3 -11 6 -24 6 -35 0 -12 -7 -19 -6 -23 4 -2 7 -11 14 -19 14 -8 0 -12
-4 -9 -8 2 -4 0 -10 -6 -14 -5 -3 -10 0 -10 8 0 7 -7 14 -15 14 -11 0 -12 -4
-4 -13 8 -10 6 -11 -15 -1 -17 8 -21 14 -13 20 8 6 5 7 -6 3 -10 -3 -21 -6
-23 -6 -3 0 -2 -6 2 -12 6 -10 5 -10 -7 -1 -12 10 -18 10 -29 0 -9 -8 -11 -9
-6 0 3 6 2 14 -4 18 -5 3 -10 2 -10 -3 0 -5 -7 -9 -15 -9 -8 0 -15 4 -15 9 0
11 -23 6 -32 -7 -5 -6 -8 -4 -8 5 0 13 -1 13 -10 0 -5 -8 -10 -10 -10 -4 0 6
-10 10 -22 9 -13 -1 -29 3 -37 9 -11 8 -13 8 -8 -1 4 -6 3 -14 -3 -18 -5 -3
-10 -1 -10 5 0 6 -4 9 -9 5 -6 -3 -14 2 -19 11 -7 13 -10 14 -14 2 -6 -14 -45
-16 -93 -4 -15 4 -25 2 -25 -4 0 -6 5 -8 12 -4 7 4 8 3 4 -5 -6 -9 -11 -9 -21
-1 -8 6 -22 10 -32 8 -10 -1 -24 1 -32 6 -10 6 -12 5 -7 -2 5 -8 2 -10 -8 -6
-9 3 -13 11 -9 17 3 6 1 7 -6 3 -6 -4 -9 -11 -6 -16 3 -4 -2 -11 -11 -14 -9
-3 -12 -2 -8 5 4 7 -6 9 -30 5 -19 -3 -47 -1 -61 4 -17 7 -24 7 -20 0 7 -11
-23 -9 -42 3 -9 6 -11 3 -6 -9 5 -13 2 -15 -13 -7 -22 10 -44 10 -61 0 -6 -4
-15 -3 -18 3 -5 8 -11 7 -21 -1 -11 -9 -14 -9 -14 0 0 9 -5 9 -21 0 -17 -9
-23 -8 -30 2 -6 9 -9 10 -9 2 0 -12 -17 -12 -37 0 -17 10 -17 -5 0 -23 10 -12
9 -12 -6 -1 -9 8 -20 11 -24 8 -3 -4 -12 -2 -20 4 -8 7 -13 8 -13 1 0 -5 -9
-12 -20 -15 -11 -3 -18 -1 -14 4 7 12 -17 11 -35 0 -9 -6 -22 -6 -31 -1 -9 5
-22 5 -30 0 -8 -5 -21 -5 -31 1 -12 6 -20 5 -25 -3 -5 -7 -3 -8 6 -3 9 6 11 4
6 -4 -6 -9 -12 -9 -25 3 -18 16 -31 12 -31 -8 0 -6 5 -4 10 4 6 9 10 10 10 3
0 -16 -17 -26 -25 -13 -4 6 -13 7 -23 2 -9 -4 -43 -8 -74 -8 -45 1 -58 -2 -58
-14 0 -13 -1 -13 -10 0 -9 13 -11 13 -20 0 -9 -13 -10 -13 -10 0 0 10 -3 11
-8 3 -4 -6 -22 -10 -40 -9 -25 2 -31 -1 -27 -13 4 -10 -1 -9 -16 5 -12 10 -19
14 -16 7 10 -17 -33 -29 -44 -12 -7 11 -9 11 -9 -3 0 -11 -6 -15 -20 -11 -12
3 -29 -2 -42 -13 -12 -11 -18 -14 -15 -7 4 6 3 14 -3 18 -6 3 -13 -1 -16 -9
-3 -9 -10 -16 -16 -16 -5 0 -7 4 -3 9 3 5 1 13 -5 16 -6 4 -9 1 -8 -6 2 -7 -1
-13 -7 -14 -5 0 -16 -4 -22 -8 -8 -5 -13 -4 -13 3 0 6 -5 8 -10 5 -6 -4 -8
-10 -5 -14 2 -5 -7 -6 -20 -3 -14 2 -33 -2 -42 -9 -14 -12 -16 -12 -8 0 6 11
2 10 -16 -2 -13 -9 -33 -17 -46 -17 -12 0 -25 -5 -28 -10 -4 -6 -11 -7 -17 -4
-6 4 -18 -2 -26 -12 -10 -13 -13 -14 -9 -3 4 12 0 15 -19 11 -13 -2 -21 -8
-19 -13 3 -4 -4 -6 -15 -4 -11 2 -20 -1 -20 -7 0 -6 -11 -8 -25 -6 -14 3 -25
1 -25 -4 0 -6 -6 -8 -14 -5 -8 3 -16 1 -18 -5 -2 -6 -17 -11 -34 -12 -17 -1
-43 -9 -58 -20 -18 -11 -26 -13 -21 -5 3 8 0 6 -8 -3 -11 -14 -16 -15 -26 -5
-10 9 -12 9 -9 -3 2 -10 -4 -15 -20 -14 -12 1 -22 -2 -22 -7 0 -5 -7 -5 -17
-2 -12 5 -14 3 -8 -7 5 -8 3 -11 -6 -8 -8 3 -20 -2 -27 -11 -8 -9 -11 -10 -7
-3 3 6 1 12 -4 12 -6 0 -11 -5 -11 -11 0 -6 -7 -9 -15 -5 -8 3 -15 1 -15 -5 0
-6 -4 -7 -10 -4 -5 3 -10 1 -10 -5 0 -6 -4 -8 -10 -5 -5 3 -10 1 -10 -5 0 -7
-8 -9 -21 -5 -15 5 -19 4 -15 -4 7 -11 -1 -14 -37 -14 -12 0 -14 -3 -8 -11 7
-8 4 -12 -10 -13 -11 -1 -17 3 -13 8 3 6 -3 5 -14 -2 -12 -7 -18 -18 -14 -24
3 -5 -3 -3 -13 5 -11 9 -16 10 -11 3 4 -7 2 -14 -3 -14 -6 -1 -16 -2 -21 -3
-6 0 -14 -7 -19 -14 -4 -7 -14 -12 -22 -10 -8 2 -13 -3 -11 -10 2 -10 -2 -10
-18 -2 -16 9 -18 8 -14 -5 5 -11 2 -14 -12 -8 -12 4 -15 3 -10 -5 4 -7 1 -12
-10 -12 -9 0 -25 -10 -35 -22 -13 -14 -19 -17 -19 -7 -1 8 -8 2 -16 -13 -8
-16 -17 -28 -20 -28 -3 0 -3 4 0 9 3 5 -1 11 -9 14 -9 4 -12 1 -9 -7 3 -8 0
-17 -7 -22 -8 -5 -10 -3 -4 6 6 9 4 11 -4 6 -7 -5 -10 -14 -7 -21 2 -7 -3 -12
-12 -11 -10 0 -16 -5 -14 -13 3 -12 1 -12 -14 0 -10 8 -16 10 -13 4 3 -5 -6
-21 -19 -35 -14 -14 -22 -18 -18 -10 4 8 1 7 -8 -4 -8 -10 -19 -15 -25 -11 -6
3 -9 0 -5 -8 3 -8 0 -18 -7 -23 -7 -4 -10 -3 -5 4 3 6 2 14 -4 17 -6 4 -10 3
-9 -2 4 -22 -2 -43 -11 -38 -5 3 -10 1 -10 -5 0 -6 -5 -8 -12 -4 -8 5 -9 2 -5
-10 4 -10 3 -15 -3 -11 -6 3 -13 -1 -16 -9 -3 -9 -10 -14 -14 -11 -5 3 -12 -4
-15 -16 -4 -12 -12 -18 -20 -15 -9 3 -12 0 -8 -10 3 -9 -1 -14 -13 -14 -16 0
-17 -2 -4 -10 12 -8 11 -10 -7 -10 -12 0 -25 -5 -29 -12 -4 -7 -3 -8 4 -4 7 4
12 2 12 -3 0 -6 -4 -11 -8 -11 -18 0 -49 -36 -46 -53 2 -14 -1 -16 -11 -7 -10
8 -13 7 -11 -7 0 -10 -5 -17 -12 -15 -7 1 -12 -5 -10 -15 2 -10 -3 -18 -9 -19
-26 -3 -28 -5 -13 -14 13 -8 11 -11 -7 -16 -13 -4 -20 -11 -16 -20 3 -8 -1
-14 -10 -14 -10 0 -14 -9 -13 -29 1 -22 -2 -27 -13 -23 -9 3 -12 1 -7 -6 4 -7
2 -12 -4 -12 -6 0 -8 -4 -5 -10 3 -5 2 -10 -3 -10 -5 0 -12 -13 -15 -29 -3
-16 -13 -36 -22 -44 -8 -9 -15 -25 -15 -36 0 -11 -4 -23 -10 -26 -5 -3 -10
-11 -10 -16 0 -6 4 -7 10 -4 6 3 7 -1 4 -9 -3 -9 -13 -16 -21 -16 -8 0 -11 -5
-8 -10 4 -6 11 -8 16 -5 11 7 0 -24 -15 -44 -9 -12 -7 -13 9 -8 17 6 18 5 5
-5 -16 -14 -19 -45 -6 -67 6 -10 5 -12 -2 -7 -7 4 -12 2 -12 -3 0 -6 5 -11 11
-11 8 0 7 -5 -2 -16 -10 -13 -10 -17 2 -25 8 -5 9 -9 4 -9 -6 0 -10 -19 -10
-42 1 -24 -2 -50 -7 -59 -4 -9 -4 -19 -1 -23 9 -9 10 -86 1 -86 -4 0 -3 -12 2
-26 9 -23 8 -25 -7 -20 -15 5 -15 4 1 -9 20 -15 20 -15 0 -16 -15 0 -16 -2 -4
-7 19 -9 22 -85 3 -78 -7 3 -10 -1 -6 -9 3 -8 8 -13 12 -11 10 6 6 -42 -4 -51
-4 -5 -5 -2 0 6 5 9 4 12 -3 7 -8 -5 -8 -15 -2 -32 6 -14 9 -38 8 -53 -1 -14
2 -33 7 -40 5 -9 4 -12 -3 -7 -6 3 -13 2 -17 -4 -3 -5 0 -10 8 -10 11 0 16
-34 7 -47 -5 -8 -2 -72 3 -86 4 -10 1 -17 -6 -17 -7 0 -8 -3 -2 -8 14 -10 17
-64 3 -56 -7 4 -7 0 -1 -12 5 -11 9 -47 8 -81 -1 -34 2 -60 6 -57 9 5 6 -17
-5 -34 -5 -8 -2 -20 8 -31 9 -10 16 -22 16 -27 0 -5 -4 -2 -10 6 -5 8 -12 11
-16 7 -4 -3 -2 -12 4 -20 16 -19 26 -80 11 -72 -8 5 -8 2 -1 -12 6 -10 9 -33
8 -51 -1 -18 1 -35 6 -38 5 -3 5 -10 1 -17 -10 -17 -10 -58 1 -64 5 -3 6 -2 3
4 -3 5 0 10 8 10 13 0 13 -3 -1 -18 -14 -16 -14 -18 3 -28 12 -7 13 -10 4 -11
-10 0 -11 -3 -2 -14 9 -10 9 -16 1 -21 -8 -5 -8 -11 1 -21 6 -8 8 -14 3 -14
-5 0 0 -8 11 -17 20 -15 20 -15 -3 -10 -23 5 -23 5 -7 -13 13 -14 13 -19 3
-23 -8 -3 -5 -6 7 -6 17 -1 17 -3 5 -11 -8 -5 -10 -10 -4 -10 7 0 11 -21 11
-52 1 -56 10 -91 23 -83 4 2 5 -7 2 -22 -4 -20 -2 -24 9 -18 11 7 12 6 2 -6
-9 -11 -8 -18 3 -33 7 -10 11 -23 8 -28 -3 -4 2 -11 11 -14 10 -4 13 -13 9
-26 -4 -15 -3 -18 7 -13 9 6 11 3 6 -8 -4 -10 -2 -16 6 -14 7 1 11 -6 9 -16
-2 -9 4 -20 12 -23 9 -3 12 -12 9 -21 -4 -11 -2 -14 5 -9 7 4 13 2 13 -3 1 -6
2 -17 3 -23 1 -7 8 -12 15 -10 8 2 10 -4 7 -16 -4 -12 0 -24 11 -33 17 -13 17
-13 3 6 -15 20 -14 20 8 1 23 -20 30 -32 11 -20 -7 4 -10 1 -7 -7 3 -8 10 -13
16 -12 5 1 8 -7 5 -17 -4 -14 0 -20 12 -20 9 0 19 -9 22 -20 3 -11 10 -20 16
-20 6 0 7 -3 4 -7 -4 -3 5 -15 20 -26 16 -10 20 -17 10 -13 -9 3 -17 1 -17 -4
0 -6 3 -10 8 -10 4 0 18 -10 32 -21 14 -11 19 -18 13 -14 -9 4 -11 1 -7 -10 4
-9 13 -14 20 -11 7 3 16 0 20 -6 4 -7 3 -8 -4 -4 -7 4 -12 4 -12 1 0 -11 28
-35 41 -35 7 0 9 -3 6 -6 -4 -4 2 -15 14 -25 15 -13 17 -19 7 -23 -7 -3 -4 -5
8 -2 17 3 20 -1 18 -19 -1 -16 3 -22 15 -21 9 0 15 -6 15 -15 -1 -12 5 -15 20
-13 11 2 16 2 9 -2 -19 -9 -3 -34 23 -34 13 0 23 -3 23 -7 -4 -23 2 -43 11
-38 6 3 10 1 10 -5 0 -6 5 -8 12 -4 7 5 9 2 5 -8 -4 -11 2 -18 20 -23 18 -4
24 -11 20 -25 -4 -14 0 -18 14 -15 11 2 17 0 14 -6 -4 -5 -1 -9 4 -9 6 0 11
-7 11 -16 0 -8 3 -13 8 -11 9 6 72 -59 65 -67 -4 -3 4 -6 16 -6 12 0 19 -4 16
-10 -3 -5 1 -10 9 -10 8 0 18 -9 21 -20 4 -11 10 -18 15 -15 5 3 15 -3 22 -13
7 -10 22 -24 33 -31 16 -10 17 -11 2 -7 -11 3 -15 2 -12 -4 3 -6 13 -10 21
-10 18 0 46 -25 37 -34 -4 -3 4 -6 16 -6 12 0 19 -4 16 -10 -3 -5 1 -10 10
-10 9 0 14 -4 11 -9 -4 -5 7 -15 23 -22 16 -7 27 -17 25 -21 -3 -4 2 -8 11 -8
9 0 14 -4 11 -9 -7 -11 22 -23 35 -15 5 3 8 0 7 -7 -2 -7 7 -18 19 -24 13 -7
20 -15 16 -18 -3 -4 -1 -7 6 -7 7 0 19 -7 28 -16 9 -8 22 -13 29 -10 9 3 11
-1 7 -12 -3 -9 -3 -14 1 -10 4 3 21 -8 37 -25 16 -17 39 -31 49 -32 11 -1 23
-5 27 -10 5 -4 0 -5 -10 -2 -12 4 -16 3 -11 -4 3 -6 17 -9 30 -6 19 3 22 1 14
-8 -8 -10 -7 -15 1 -21 8 -4 9 -3 5 4 -4 7 -2 12 3 12 11 0 15 -15 12 -34 -1
-5 4 -5 11 1 9 8 16 7 25 -2 6 -7 9 -15 7 -18 -3 -3 4 -8 17 -12 17 -6 19 -9
8 -16 -12 -7 -12 -9 0 -9 11 0 11 -3 1 -15 -6 -8 -9 -19 -5 -24 4 -7 -1 -8
-11 -4 -13 5 -15 3 -9 -8 7 -10 1 -9 -18 4 -20 13 -25 14 -21 3 6 -16 -12 -16
-35 -2 -10 6 -12 5 -7 -2 4 -7 2 -12 -4 -12 -6 0 -8 -5 -4 -12 6 -10 4 -10 -8
0 -11 9 -23 10 -41 3 -22 -9 -25 -8 -20 6 5 12 2 13 -13 5 -10 -5 -39 -9 -64
-8 -29 1 -50 -4 -58 -14 -8 -8 -11 -9 -7 -2 4 7 -1 12 -12 12 -11 0 -25 -6
-32 -12 -11 -11 -12 -10 -6 1 6 10 4 13 -7 8 -9 -3 -21 0 -27 6 -9 9 -11 8 -6
-5 6 -15 1 -17 -30 -14 -20 1 -38 0 -40 -3 -5 -9 -89 -6 -104 4 -9 5 -12 4 -8
-2 4 -6 0 -13 -8 -17 -8 -3 -15 -1 -15 5 0 6 -7 6 -19 -1 -25 -13 -34 -13 -26
0 3 6 -1 7 -9 4 -9 -3 -16 -10 -16 -16 0 -5 -5 -6 -10 -3 -6 4 -18 1 -27 -7
-13 -10 -15 -10 -9 0 6 9 1 12 -18 10 -14 -2 -28 -7 -32 -11 -4 -4 -14 -1 -22
6 -13 10 -15 9 -8 -7 7 -20 7 -20 -15 0 -18 15 -21 16 -17 3 5 -12 1 -15 -18
-11 -13 2 -32 -2 -41 -9 -10 -8 -14 -9 -10 -2 5 8 -1 11 -20 8 -16 -2 -30 -4
-33 -5 -3 -1 -13 -1 -24 0 -13 1 -16 -2 -10 -12 6 -10 4 -10 -9 1 -15 12 -17
11 -17 -5 -1 -17 -1 -18 -11 -2 -5 9 -16 15 -24 12 -8 -4 -12 -11 -9 -16 4 -6
-2 -5 -14 1 -14 8 -23 8 -27 1 -4 -6 -14 -10 -23 -8 -10 1 -28 -4 -41 -11 -13
-7 -21 -8 -17 -3 4 6 -2 10 -13 9 -11 0 -17 -5 -14 -10 3 -5 -9 -6 -26 -4 -19
3 -37 0 -44 -7 -9 -11 -14 -10 -23 2 -9 12 -13 12 -19 2 -6 -9 -4 -11 5 -5 9
5 11 4 6 -4 -6 -9 -11 -9 -24 1 -12 10 -14 10 -8 1 4 -7 2 -13 -3 -13 -6 0
-11 6 -12 13 0 6 -4 3 -9 -8 -5 -11 -9 -15 -9 -8 -1 15 -31 5 -49 -16 -8 -9
-11 -11 -8 -6 2 6 1 17 -5 25 -7 12 -9 11 -9 -5 0 -16 -2 -17 -10 -5 -8 13
-10 12 -15 -1 -4 -11 -16 -15 -36 -13 -22 3 -28 0 -23 -9 5 -9 4 -9 -6 0 -10
9 -18 8 -36 -4 -22 -14 -24 -14 -24 3 0 16 -2 16 -9 4 -6 -8 -7 -19 -3 -25 3
-5 -1 -4 -9 2 -12 10 -18 10 -29 0 -10 -10 -11 -9 -5 3 8 13 6 13 -8 1 -9 -7
-28 -11 -42 -9 -22 5 -23 3 -13 -10 11 -13 10 -14 -10 -3 -16 9 -22 9 -22 0 0
-8 -5 -7 -17 2 -15 12 -16 12 -10 -4 4 -11 3 -16 -3 -12 -5 3 -19 8 -31 10
-15 3 -18 1 -11 -8 8 -9 4 -12 -14 -13 -15 -1 -21 2 -17 10 4 7 1 6 -9 -1 -8
-7 -18 -10 -21 -6 -4 3 -7 2 -7 -4 0 -6 -9 -9 -22 -5 -16 4 -19 2 -13 -8 5 -8
4 -11 -3 -6 -6 3 -13 2 -17 -4 -4 -6 -12 -7 -18 -3 -17 10 -47 11 -41 1 3 -4
-7 -8 -21 -8 -15 0 -24 -4 -20 -10 3 -6 -1 -7 -10 -4 -8 4 -23 0 -32 -7 -15
-12 -16 -12 -10 5 6 16 5 17 -7 7 -8 -7 -21 -9 -28 -5 -10 6 -11 5 -1 -7 11
-13 9 -15 -10 -14 -12 1 -28 -3 -36 -9 -11 -8 -15 -8 -18 1 -4 10 -8 9 -19 -1
-8 -8 -24 -13 -36 -11 -12 3 -31 -3 -42 -13 -11 -9 -16 -11 -12 -4 4 6 2 12
-3 12 -6 0 -11 -5 -11 -11 0 -5 -4 -8 -9 -5 -5 4 -12 0 -14 -6 -4 -10 -8 -9
-16 2 -8 11 -11 12 -11 2 0 -7 -5 -10 -10 -7 -6 3 -17 -1 -26 -9 -12 -13 -20
-14 -36 -5 -15 8 -19 8 -14 0 5 -7 -2 -11 -18 -11 -14 0 -28 -4 -31 -10 -3 -5
-19 -10 -34 -10 -15 0 -33 -6 -40 -12 -8 -7 -11 -8 -8 -2 3 6 -1 11 -9 11 -8
0 -13 -6 -10 -14 3 -7 1 -13 -4 -13 -6 0 -10 6 -10 13 0 9 -3 8 -9 -2 -5 -7
-17 -11 -27 -7 -11 3 -26 1 -34 -4 -8 -5 -10 -10 -5 -10 6 0 3 -4 -5 -10 -9
-5 -19 -5 -27 2 -9 7 -14 6 -19 -5 -3 -9 -14 -14 -25 -12 -10 2 -21 0 -24 -4
-2 -5 -16 -7 -29 -6 -19 2 -23 -1 -19 -13 4 -9 2 -13 -5 -8 -6 3 -13 2 -16 -2
-3 -5 -17 -8 -31 -7 -14 2 -23 -1 -19 -6 3 -5 -5 -9 -17 -9 -12 0 -28 -8 -35
-17 -12 -16 -13 -16 -8 -1 7 19 -16 19 -40 -1 -8 -7 -20 -10 -25 -6 -7 3 -8 0
-5 -9 4 -11 0 -14 -15 -11 -12 2 -21 -1 -21 -7 0 -5 -6 -8 -14 -5 -8 3 -24 -5
-37 -19 -16 -17 -26 -21 -35 -13 -8 7 -14 7 -19 -1 -3 -6 -11 -8 -16 -5 -5 4
-9 1 -9 -6 0 -8 -5 -7 -17 2 -15 13 -15 12 -3 -11 12 -22 11 -23 -2 -13 -11
10 -22 9 -51 -7 -20 -11 -37 -17 -37 -14 0 3 -7 -1 -15 -10 -9 -8 -22 -13 -30
-10 -9 4 -15 0 -15 -7 0 -11 -3 -11 -10 1 -8 13 -10 12 -10 -3 0 -10 -4 -15
-10 -12 -5 3 -10 1 -10 -4 0 -6 -9 -11 -19 -11 -11 0 -23 -4 -26 -10 -3 -5
-11 -10 -16 -10 -6 0 -7 5 -3 12 4 7 3 8 -4 4 -7 -4 -12 -15 -12 -24 0 -15 -2
-15 -10 -2 -5 8 -10 10 -10 5 0 -6 -15 -15 -33 -20 -23 -7 -32 -15 -30 -30 1
-19 1 -19 -12 -2 -7 10 -15 13 -16 8 -2 -6 -14 -12 -26 -14 -12 -2 -26 -7 -30
-12 -5 -4 -2 -5 5 -1 6 4 12 3 12 -2 0 -15 -28 -22 -34 -9 -2 7 -5 4 -5 -7 -1
-16 -3 -16 -17 -6 -8 8 -14 9 -13 4 4 -21 -2 -28 -11 -14 -8 13 -10 12 -10 -2
0 -10 -7 -19 -15 -19 -29 -3 -33 -4 -42 -13 -5 -5 -2 -6 6 -1 9 5 12 4 7 -3
-4 -7 -13 -12 -20 -12 -23 0 -87 -36 -79 -45 4 -4 0 -5 -10 -2 -22 8 -49 -2
-40 -16 4 -6 -2 -8 -16 -4 -16 4 -21 2 -17 -8 4 -12 -9 -23 -36 -30 -5 -2 -11
-4 -15 -5 -5 -1 -12 -2 -17 -1 -5 1 -6 -5 -3 -12 4 -11 0 -13 -14 -10 -14 4
-19 0 -19 -13 0 -16 -2 -17 -10 -4 -8 13 -10 12 -10 -3 0 -9 -6 -16 -12 -15
-7 2 -12 -2 -11 -8 1 -7 -5 -11 -15 -10 -9 0 -16 -4 -15 -11 1 -6 -4 -14 -13
-17 -10 -4 -13 -2 -8 6 4 7 3 8 -4 4 -7 -4 -12 -14 -12 -22 0 -8 -3 -13 -7
-11 -10 6 -34 -19 -26 -27 3 -3 -4 -4 -15 -1 -16 3 -19 0 -15 -13 6 -14 4 -15
-9 -4 -13 11 -16 10 -14 -5 0 -10 -5 -17 -12 -15 -6 1 -11 -4 -10 -10 2 -7 -3
-12 -11 -10 -9 2 -11 -3 -7 -13 3 -9 2 -13 -4 -10 -6 3 -10 1 -10 -5 0 -6 -5
-8 -12 -4 -7 5 -9 2 -5 -9 4 -11 1 -15 -13 -12 -12 2 -17 -1 -14 -9 3 -7 -6
-18 -20 -25 -16 -9 -23 -20 -21 -33 4 -17 2 -18 -12 -6 -15 11 -16 11 -10 -6
5 -13 3 -17 -7 -13 -8 3 -17 -1 -20 -9 -4 -10 -2 -12 6 -8 7 4 8 3 4 -4 -4 -7
-14 -12 -21 -12 -9 0 -12 -6 -8 -17 4 -11 3 -14 -5 -9 -7 4 -12 2 -12 -4 0 -6
-4 -9 -9 -6 -5 3 -8 -2 -7 -12 0 -10 -5 -16 -13 -14 -12 3 -12 1 -1 -13 7 -9
9 -15 4 -14 -23 4 -33 -3 -29 -21 2 -11 0 -18 -6 -15 -5 4 -9 0 -9 -7 0 -9 -3
-9 -10 2 -5 8 -10 10 -10 4 0 -5 5 -15 12 -22 9 -9 7 -12 -13 -12 -17 0 -20
-3 -10 -9 9 -6 10 -11 2 -15 -6 -4 -8 -13 -4 -19 4 -7 -2 -5 -12 3 -10 8 -16
10 -12 3 4 -6 3 -15 -3 -18 -8 -5 -8 -11 0 -20 8 -10 8 -15 -1 -21 -8 -5 -10
-3 -5 7 4 8 0 5 -8 -6 -9 -11 -14 -25 -12 -31 3 -7 -2 -15 -9 -18 -9 -3 -12
-12 -8 -22 5 -13 2 -16 -9 -11 -12 4 -14 1 -11 -13 3 -10 0 -21 -7 -25 -8 -5
-7 -11 2 -23 10 -12 10 -14 1 -8 -9 5 -13 0 -13 -13 0 -12 -4 -21 -9 -21 -4 0
-7 -10 -7 -22 1 -13 -2 -29 -8 -36 -13 -18 -15 -142 -2 -142 7 0 8 -3 1 -8 -5
-4 -11 -13 -13 -21 -2 -11 0 -12 10 -3 11 8 14 7 14 -9 0 -11 -5 -18 -13 -15
-7 3 -10 -1 -6 -9 3 -8 10 -12 17 -8 6 4 5 -1 -3 -11 -8 -9 -10 -16 -5 -15 20
4 28 -2 15 -10 -12 -8 -12 -12 -2 -25 8 -9 9 -16 4 -16 -5 0 -10 -7 -10 -15 0
-8 4 -15 9 -15 5 0 4 -8 -1 -18 -7 -13 -6 -23 2 -32 10 -10 9 -11 -3 -5 -13 8
-13 6 -2 -7 10 -13 10 -17 0 -21 -10 -4 -10 -6 1 -6 11 -1 11 -4 1 -16 -10
-12 -10 -15 0 -15 9 0 9 -4 -1 -17 -10 -11 -10 -14 -1 -9 15 9 15 1 1 -26 -9
-16 -8 -19 3 -12 11 6 11 5 -1 -9 -11 -14 -11 -17 0 -17 10 0 10 -3 2 -11 -8
-8 -8 -20 -3 -35 6 -14 6 -24 1 -24 -11 0 -9 -19 3 -39 6 -9 5 -12 -1 -8 -13
8 -12 -66 2 -75 6 -5 6 -8 -2 -8 -7 0 -13 -9 -13 -19 0 -11 -4 -23 -10 -26 -6
-4 -4 -16 6 -31 9 -13 12 -24 7 -24 -5 0 -8 -12 -7 -27 0 -16 -3 -40 -7 -55
-6 -22 -4 -28 9 -28 13 0 13 -2 -3 -14 -15 -11 -17 -17 -7 -28 6 -8 9 -18 5
-22 -10 -10 -11 -46 -1 -46 5 0 6 -6 1 -12 -4 -7 -8 -19 -9 -26 -2 -11 0 -11
14 0 12 10 14 10 8 1 -4 -7 -9 -21 -11 -30 -2 -10 -4 -22 -5 -28 -5 -21 0 -36
10 -30 7 4 7 -2 0 -19 -5 -15 -6 -28 0 -31 5 -3 6 -13 3 -22 -5 -11 -3 -14 6
-8 10 6 11 3 1 -15 -8 -15 -8 -20 -1 -16 6 4 11 3 11 -3 0 -5 -5 -13 -10 -16
-6 -4 -3 -13 8 -23 10 -9 12 -13 5 -8 -11 7 -12 4 -3 -18 5 -15 7 -32 4 -38
-5 -7 -2 -8 6 -3 10 6 12 4 7 -9 -9 -22 10 -59 25 -50 7 4 8 3 4 -5 -4 -6 -12
-8 -18 -5 -5 4 -2 -5 7 -19 9 -15 14 -31 10 -37 -3 -5 -1 -10 5 -10 7 0 10 -6
7 -12 -2 -7 3 -19 12 -26 9 -8 10 -11 4 -7 -8 4 -13 0 -13 -9 0 -9 6 -16 14
-16 9 0 13 -7 11 -20 -2 -12 2 -20 9 -20 7 0 12 -10 12 -22 -1 -13 4 -22 11
-21 7 2 12 0 12 -5 -1 -4 0 -9 1 -12 1 -3 3 -14 5 -25 2 -11 9 -21 14 -23 6
-2 11 -10 11 -18 0 -9 5 -12 11 -9 6 4 9 0 7 -11 -2 -12 2 -18 11 -16 8 2 11
-3 8 -12 -4 -9 -3 -15 1 -15 20 3 23 -3 11 -18 -8 -9 -9 -14 -3 -10 7 4 15 0
18 -9 3 -9 12 -14 20 -11 9 4 12 -2 10 -19 -2 -21 0 -23 12 -13 8 7 14 8 13 3
-3 -19 3 -58 8 -46 2 6 9 12 14 12 6 0 7 -4 4 -10 -3 -5 0 -10 7 -10 10 0 9
-3 -2 -11 -12 -9 -11 -10 8 -6 12 3 20 1 17 -3 -3 -5 -2 -15 1 -24 5 -12 10
-14 19 -6 9 8 12 5 11 -12 -1 -18 4 -22 19 -20 11 2 17 1 14 -2 -9 -9 51 -76
68 -76 7 0 13 -4 13 -10 0 -5 6 -10 14 -10 10 0 13 -7 11 -21 -4 -17 -2 -19
10 -9 12 10 15 9 15 -3 0 -11 5 -14 17 -10 11 4 14 3 9 -5 -4 -7 -1 -12 8 -12
9 0 16 -6 16 -14 0 -8 7 -17 16 -20 9 -3 12 -11 8 -18 -6 -10 -5 -10 7 -2 11
9 17 9 26 -1 6 -7 9 -16 6 -19 -4 -3 3 -6 15 -6 12 0 22 -6 22 -14 0 -9 8 -13
23 -10 12 2 16 2 10 -2 -21 -10 -14 -23 9 -16 18 4 20 2 15 -17 -4 -18 -3 -20
9 -10 11 9 14 9 14 0 0 -7 4 -9 10 -6 5 3 10 -1 10 -9 0 -9 6 -15 13 -13 6 1
11 -4 9 -12 -3 -12 -1 -12 14 0 10 8 15 9 11 3 -4 -7 0 -17 8 -24 13 -11 15
-10 10 6 -5 16 -4 15 7 -2 7 -12 19 -19 27 -16 10 3 12 0 8 -11 -4 -11 -2 -14
9 -10 8 3 23 -5 35 -20 11 -15 26 -24 34 -20 8 3 15 0 15 -7 0 -6 4 -8 10 -5
5 3 10 1 10 -5 0 -6 4 -8 10 -5 5 3 10 1 10 -5 0 -6 5 -8 10 -5 6 3 10 -2 10
-12 0 -15 2 -16 10 -3 6 10 10 11 10 3 0 -7 6 -13 14 -13 8 0 17 -7 20 -16 3
-8 11 -12 17 -8 6 3 14 3 18 -2 9 -12 54 -38 47 -26 -3 5 1 9 8 9 7 0 13 -6
13 -14 0 -7 -5 -13 -10 -13 -6 0 -8 -3 -5 -6 4 -3 15 -1 26 5 16 8 23 7 33 -7
13 -16 12 -16 -6 -2 -18 14 -19 14 -7 -2 7 -9 22 -15 33 -13 10 2 19 -1 19 -6
0 -5 8 -9 18 -7 9 2 16 -2 15 -8 -1 -8 6 -10 19 -6 16 4 20 2 15 -10 -4 -12
-1 -14 14 -11 10 3 19 0 19 -6 0 -6 14 -11 31 -11 21 0 28 -4 23 -12 -6 -9 -3
-9 9 0 14 12 16 11 12 -9 -3 -17 -2 -20 7 -11 9 9 16 8 32 -6 14 -12 17 -13
11 -2 -4 8 3 5 16 -7 18 -16 28 -20 36 -12 8 8 13 7 18 -2 6 -8 4 -10 -5 -4
-9 5 -11 4 -6 -4 6 -9 11 -9 22 0 11 9 14 8 14 -7 0 -16 2 -17 10 -4 9 13 10
13 10 0 0 -9 9 -16 20 -17 11 -1 34 -9 50 -17 20 -9 28 -11 24 -3 -3 7 2 3 10
-7 9 -11 16 -14 16 -7 0 7 5 9 10 6 6 -4 8 -10 5 -15 -3 -5 0 -12 6 -16 8 -4
9 -3 5 4 -5 8 0 11 16 9 13 -2 24 -9 24 -15 3 -22 4 -23 24 -12 16 9 22 8 26
-5 5 -12 10 -13 20 -4 11 9 15 8 20 -5 3 -9 10 -16 16 -16 5 0 6 6 3 13 -4 6
2 2 13 -11 14 -15 22 -18 25 -10 4 10 6 10 6 1 1 -7 10 -13 21 -13 11 0 20 -5
20 -11 0 -6 9 -9 20 -6 14 4 20 0 20 -11 0 -15 2 -15 10 -2 7 11 10 11 10 2 0
-7 5 -10 10 -7 6 3 10 2 10 -3 0 -6 9 -8 20 -5 12 3 20 0 20 -6 0 -7 -5 -9
-12 -5 -6 4 -8 3 -5 -4 4 -5 16 -8 27 -5 23 6 28 -12 32 -115 2 -43 -1 -72 -7
-72 -5 0 -3 -5 5 -10 13 -9 13 -10 0 -10 -9 0 -11 -3 -5 -8 6 -4 10 -37 10
-75 0 -53 -3 -66 -14 -62 -10 4 -11 2 -3 -7 11 -15 21 -118 10 -118 -3 0 -3
-12 1 -27 5 -20 3 -32 -8 -41 -9 -8 -11 -11 -5 -8 7 3 14 -5 16 -19 4 -18 1
-25 -11 -25 -10 0 -12 -3 -5 -8 13 -8 24 -72 14 -72 -4 0 -4 -18 0 -40 4 -24
3 -43 -2 -46 -6 -4 -5 -10 3 -15 12 -8 12 -10 0 -18 -7 -5 -9 -11 -4 -14 5 -3
8 -34 7 -68 -2 -45 1 -58 8 -48 7 11 8 9 3 -6 -11 -29 -13 -85 -3 -79 4 3 9
-2 9 -10 2 -25 4 -30 13 -45 6 -9 5 -12 -1 -8 -7 4 -10 -5 -9 -23 0 -17 5 -30
11 -30 5 0 5 -4 -2 -8 -10 -6 -9 -14 2 -36 12 -23 13 -32 3 -44 -9 -11 -9 -14
-1 -9 15 9 24 -5 13 -22 -9 -15 8 -74 19 -66 12 7 9 -29 -3 -37 -7 -5 -5 -8 5
-8 9 0 20 -7 23 -16 3 -8 2 -13 -3 -10 -5 4 -7 -3 -4 -14 5 -18 15 -25 36 -21
5 1 6 -3 2 -9 -3 -6 -12 -7 -18 -3 -7 3 -3 -3 7 -15 11 -12 15 -22 11 -22 -5
0 0 -7 11 -16 10 -8 13 -13 7 -9 -18 9 -16 2 6 -23 10 -12 22 -18 27 -14 4 4
2 -1 -5 -10 -12 -17 -8 -23 12 -19 5 1 6 -3 3 -8 -4 -5 0 -12 6 -14 10 -4 10
-6 0 -6 -7 -1 3 -17 23 -36 35 -36 46 -55 22 -39 -7 5 -5 2 5 -7 9 -9 14 -19
11 -23 -4 -3 1 -6 9 -6 18 0 31 -26 21 -43 -3 -7 -3 -9 1 -5 10 8 36 -14 29
-24 -2 -5 3 -8 12 -8 11 0 15 -5 11 -15 -3 -9 0 -15 9 -15 8 0 15 -7 15 -15 0
-8 5 -15 11 -15 5 0 7 -6 3 -12 -5 -9 -2 -9 9 1 9 7 17 10 17 5 0 -5 12 -27
26 -49 14 -22 23 -32 20 -22 -3 9 -1 17 4 17 9 0 14 -22 11 -42 0 -5 4 -7 11
-5 7 1 13 -5 13 -13 0 -8 7 -14 13 -12 15 3 42 -21 42 -37 0 -6 6 -11 14 -11
8 0 21 -9 29 -21 8 -11 23 -22 33 -23 10 -2 21 -11 25 -22 4 -10 8 -15 8 -11
1 12 31 -19 31 -32 0 -6 5 -11 11 -11 5 0 7 5 4 11 -4 6 2 5 14 -3 12 -7 21
-16 21 -20 0 -4 7 -5 15 -1 9 3 15 2 14 -3 -1 -5 -1 -16 0 -24 1 -13 2 -13 11
0 7 10 10 11 10 2 0 -7 11 -17 25 -24 13 -6 22 -15 19 -19 -2 -4 5 -6 16 -4
13 3 18 0 14 -7 -5 -7 -2 -9 9 -5 12 4 14 2 10 -10 -5 -12 -2 -15 9 -10 10 3
19 0 22 -9 3 -8 13 -14 21 -14 9 0 13 -4 10 -10 -3 -6 1 -7 9 -4 9 4 16 1 16
-6 0 -7 7 -10 16 -6 12 5 15 2 10 -11 -4 -10 -4 -14 0 -10 4 4 14 1 22 -6 9
-6 13 -7 9 -1 -3 6 0 11 8 11 8 0 14 -3 13 -6 0 -3 0 -13 1 -21 1 -12 3 -12
10 -2 7 11 11 11 23 -2 9 -8 18 -12 22 -9 3 4 6 1 6 -5 0 -6 9 -9 21 -7 16 3
18 1 10 -8 -8 -10 -2 -14 26 -15 43 -3 56 -10 47 -24 -5 -7 -2 -8 6 -3 8 5 19
1 28 -11 13 -16 14 -17 9 -2 -4 10 -2 18 3 18 6 0 10 -6 10 -14 0 -8 9 -12 25
-11 14 2 28 -2 32 -7 3 -7 1 -8 -5 -4 -7 4 -12 3 -12 -3 0 -5 13 -8 30 -6 16
2 30 0 30 -5 0 -4 7 -11 16 -14 8 -3 13 -2 10 2 -2 4 4 8 14 8 15 0 17 -3 7
-16 -6 -8 -8 -12 -3 -8 5 4 18 2 30 -4 11 -6 39 -12 60 -13 22 -1 42 -7 44
-13 2 -7 16 -12 32 -12 16 0 30 -4 32 -10 2 -5 17 -10 35 -12 17 -1 29 -6 27
-10 -5 -7 65 -12 149 -10 15 0 27 -4 27 -9 0 -6 -4 -7 -10 -4 -5 3 -10 1 -10
-5 0 -7 8 -9 19 -5 11 3 22 1 26 -5 5 -8 12 -7 23 2 13 11 14 11 7 -1 -6 -11
-2 -13 18 -9 15 3 24 2 22 -3 -3 -4 -1 -10 5 -14 5 -3 10 0 10 7 0 8 3 9 8 3
4 -5 25 -11 47 -12 29 -2 36 0 25 7 -9 6 -10 10 -3 10 6 0 15 -5 18 -10 5 -8
11 -7 21 1 9 7 14 8 14 1 0 -6 11 -9 26 -6 16 3 23 1 19 -6 -6 -10 6 -14 39
-10 11 1 15 -3 12 -9 -4 -7 -1 -8 8 -5 9 3 16 2 16 -3 0 -4 17 -9 38 -10 69
-2 73 -3 67 -15 -4 -7 -1 -6 7 2 7 8 20 14 28 14 8 -1 21 -2 28 -3 7 0 10 -7
7 -13 -4 -7 1 -4 9 6 15 19 16 19 16 1 0 -18 0 -18 13 0 10 12 16 15 21 6 5
-8 13 -8 26 -1 13 7 20 6 23 -3 4 -9 6 -8 6 2 1 11 4 11 16 1 8 -7 15 -9 15
-4 0 5 18 9 40 9 22 0 40 -4 40 -9 0 -5 6 -4 13 3 10 8 17 7 27 -2 10 -9 11
-9 6 1 -4 6 -2 12 3 12 6 0 11 -5 11 -10 0 -7 6 -7 20 0 11 6 20 7 20 2 0 -5
21 -6 46 -2 35 6 47 4 51 -7 5 -12 7 -12 14 -1 6 8 9 9 9 2 0 -7 7 -15 16 -18
13 -5 14 -4 6 7 -9 11 -7 13 8 12 11 -1 23 -4 26 -8 12 -11 49 -8 63 5 9 8 11
8 8 2 -11 -19 21 -25 38 -8 8 9 15 11 15 5 0 -6 7 -11 16 -11 8 0 12 5 9 10
-3 6 -1 10 4 10 6 0 11 -4 11 -10 0 -5 7 -10 16 -10 9 0 12 5 8 13 -5 8 -2 8
9 -2 12 -10 17 -10 17 -2 0 8 6 7 16 -3 19 -20 25 -20 18 -2 -6 16 27 17 38 1
5 -6 8 -4 8 4 0 11 4 9 15 -5 8 -10 15 -14 14 -9 -3 22 2 29 11 15 8 -12 10
-12 10 -1 0 11 3 11 14 2 12 -10 20 -9 38 3 22 14 26 14 48 -1 13 -9 20 -12
17 -6 -8 12 12 22 31 16 6 -3 10 -10 6 -16 -3 -7 0 -5 8 3 9 11 29 15 68 13
37 -1 50 1 40 7 -9 6 -10 10 -3 10 6 0 14 -4 17 -8 6 -10 42 -9 52 1 4 4 13 2
21 -5 10 -8 12 -8 8 3 -4 11 5 14 37 13 24 -1 51 3 62 8 10 6 16 6 13 1 -3 -5
4 -9 16 -8 12 2 21 7 20 13 -2 6 4 9 12 6 8 -4 12 -11 8 -17 -4 -6 -1 -7 8 -1
8 5 17 9 21 9 3 0 10 4 15 9 4 5 3 6 -4 2 -6 -3 -14 -2 -17 3 -7 10 13 9 31
-2 6 -4 14 -3 17 1 6 10 36 9 53 -1 6 -4 15 -2 19 4 5 8 3 9 -6 4 -8 -5 -11
-4 -7 2 3 5 22 8 42 7 20 -2 33 0 31 5 -3 4 1 8 9 8 8 0 15 -5 15 -10 0 -6 5
-6 13 0 6 6 20 9 30 7 14 -2 17 2 12 14 -5 13 -4 14 6 5 8 -8 18 -9 31 -2 13
7 18 6 18 -3 0 -9 2 -10 8 -2 9 15 53 21 70 10 8 -4 11 -3 10 5 -2 6 3 14 11
17 9 3 11 0 6 -8 -5 -9 0 -8 14 2 16 12 31 14 51 8 22 -6 28 -5 23 5 -5 15 24
14 50 -1 9 -6 9 -4 -1 8 -10 13 -9 15 13 13 14 -2 25 2 25 8 0 8 3 7 9 -2 6
-10 10 -10 16 -1 6 9 10 9 16 -1 7 -11 9 -10 9 5 0 13 5 16 16 12 9 -4 22 -2
29 4 9 8 15 8 20 0 3 -6 11 -8 16 -4 5 3 7 10 4 15 -4 5 6 4 21 -1 22 -9 25
-8 16 3 -9 11 -8 13 6 12 9 0 23 -4 29 -8 6 -4 19 1 29 10 9 10 29 18 43 19
14 1 34 2 44 3 10 0 15 6 12 11 -3 6 -1 10 4 10 6 0 11 -6 11 -12 0 -9 3 -8
10 2 5 8 12 11 16 7 4 -4 12 1 19 10 9 13 14 13 20 3 6 -9 4 -11 -5 -5 -9 5
-11 4 -6 -4 4 -6 12 -9 17 -5 5 3 6 10 3 16 -5 7 0 9 14 6 12 -4 22 -2 22 3 0
4 7 6 15 3 14 -6 20 7 16 30 -1 5 4 4 12 -2 8 -7 18 -8 22 -4 5 4 5 1 1 -6 -4
-7 -12 -9 -18 -6 -7 5 -8 2 -3 -5 5 -9 14 -6 33 11 14 13 22 16 17 8 -5 -8 3
-5 16 7 20 18 28 20 37 11 9 -9 12 -9 12 1 0 11 3 11 17 0 11 -10 14 -10 9 -1
-4 7 -1 12 9 12 9 0 13 5 9 11 -4 7 1 7 16 -1 18 -10 21 -9 15 1 -6 9 -3 10 9
6 13 -5 17 -3 13 6 -3 8 1 14 9 14 7 0 10 -5 7 -11 -5 -8 -2 -7 8 0 8 6 24 10
36 9 13 -1 19 3 16 11 -3 8 3 11 14 10 10 -2 24 4 31 13 8 9 11 10 7 4 -4 -8
0 -13 10 -13 9 0 13 5 10 10 -3 6 2 10 12 10 11 0 25 6 32 13 11 10 12 9 6 -3
-8 -13 -6 -13 8 -2 9 8 21 11 26 8 5 -4 13 -1 17 5 5 8 3 9 -6 4 -9 -5 -11 -4
-6 3 5 9 13 9 29 0 21 -11 21 -10 7 7 -10 12 -10 16 -2 11 7 -4 20 -2 29 6 14
11 16 11 9 0 -7 -11 -4 -12 11 -3 11 6 23 7 27 3 4 -3 4 2 0 13 -7 18 -6 18 9
6 14 -11 18 -11 23 3 8 22 25 20 17 -1 -3 -12 1 -10 12 5 11 15 24 22 36 19
12 -3 17 -1 12 6 -4 7 0 8 12 3 14 -5 15 -4 7 6 -8 10 -3 13 21 13 21 0 31 4
29 13 -1 8 2 11 8 7 15 -10 51 5 44 17 -5 7 -1 9 9 5 10 -4 17 -1 17 6 0 8 4
6 10 -3 6 -10 10 -11 10 -2 0 6 9 12 21 12 11 0 18 4 15 9 -4 5 5 8 19 6 17
-1 25 3 25 13 0 10 8 13 29 10 24 -4 29 -1 25 15 -3 15 -1 17 11 7 10 -8 15
-9 15 -2 0 6 9 9 20 7 11 -2 19 -1 19 3 -3 19 3 22 21 12 16 -9 19 -8 13 6 -4
12 -3 15 5 10 7 -4 12 -2 12 4 0 6 5 8 10 5 6 -3 10 -1 10 4 0 6 5 11 11 11 5
0 7 -4 4 -10 -3 -6 1 -7 10 -4 12 5 13 9 4 20 -10 12 -8 13 6 8 12 -5 23 -1
33 12 12 16 14 16 9 2 -3 -10 -2 -20 4 -23 5 -4 8 -1 7 7 -2 7 3 12 10 10 8
-1 11 2 6 9 -5 9 0 10 15 6 13 -3 20 -3 17 0 -3 4 -1 12 5 20 8 9 15 10 24 3
10 -8 15 -8 21 1 4 8 3 9 -4 5 -7 -4 -12 -5 -12 -2 0 3 29 19 65 36 36 17 63
35 60 40 -3 4 5 6 17 2 15 -4 19 -2 14 7 -6 8 -2 11 10 9 11 -2 18 2 16 10 -1
6 1 11 5 11 29 -5 45 2 39 17 -5 14 -4 15 9 4 12 -10 15 -10 15 0 0 7 7 10 16
6 12 -5 14 -1 9 17 -6 18 -5 20 6 10 14 -14 33 -18 25 -5 -3 5 11 14 30 21 20
7 32 17 28 23 -5 8 -1 9 10 5 13 -5 19 -1 23 13 3 11 9 17 14 14 5 -3 19 5 31
18 13 13 33 23 46 22 19 -1 20 1 10 14 -11 13 -11 14 0 8 7 -4 19 0 30 11 9
11 13 12 7 4 -9 -12 -7 -12 12 -1 12 8 19 18 17 22 -3 4 2 8 10 8 9 0 16 5 16
11 0 5 4 8 8 5 5 -3 15 4 22 14 11 15 17 17 27 8 10 -8 12 -7 8 4 -7 18 58 64
75 53 6 -4 7 1 3 11 -4 12 -3 15 5 10 7 -4 12 -2 12 4 0 6 5 8 13 4 8 -5 7 -2
-2 9 -12 15 -12 17 1 12 9 -4 23 1 32 10 9 10 24 14 33 11 13 -5 14 -4 3 9
-12 15 -3 21 24 16 5 -1 4 5 -3 13 -10 12 -9 14 8 9 15 -4 21 -1 21 11 0 10 5
14 10 11 6 -3 13 1 16 10 4 10 13 14 28 10 17 -5 18 -4 6 4 -14 10 -7 15 13
12 4 -1 7 7 5 16 -2 10 2 17 10 15 6 -1 12 3 12 9 0 5 4 8 9 4 6 -3 15 4 21
15 6 11 15 18 21 15 5 -4 9 -1 9 5 0 7 7 10 14 7 11 -4 13 -1 9 10 -4 10 -2
14 4 10 6 -4 18 0 26 8 9 8 22 15 29 15 10 0 10 2 -1 9 -12 8 -9 11 12 16 15
4 24 11 21 16 -3 5 2 9 10 9 8 0 20 9 26 21 7 13 17 18 27 15 13 -5 13 -4 4 8
-9 11 -8 15 6 21 10 5 21 7 26 7 4 -1 8 2 8 8 1 5 2 16 3 23 1 6 9 11 19 9 9
-2 16 2 15 8 -2 5 8 16 22 23 14 8 24 19 22 25 -1 7 5 12 13 12 13 0 19 11 17
31 -1 4 9 5 21 2 18 -4 19 -3 7 6 -8 6 -12 11 -7 12 4 1 11 2 15 3 14 2 44 36
32 36 -6 0 -8 5 -5 11 4 6 9 8 12 5 9 -8 44 14 38 23 -3 5 2 12 11 15 9 4 14
13 10 22 -3 8 -2 12 4 9 6 -3 10 -1 10 5 0 6 4 9 9 5 12 -7 33 29 23 41 -4 5
0 3 9 -4 14 -11 17 -10 15 5 0 10 5 17 12 15 8 -1 11 2 8 7 -4 5 3 16 15 25
12 8 18 19 14 25 -4 7 -1 10 7 9 7 -2 12 2 11 9 -2 6 6 15 17 18 11 4 20 13
20 21 0 8 4 13 9 10 5 -3 14 1 21 9 11 13 10 14 -5 8 -17 -6 -17 -5 1 13 10
11 21 17 24 14 3 -3 13 2 23 13 19 19 18 19 -5 13 -18 -4 -17 -3 5 6 15 7 27
16 27 21 0 4 -5 5 -12 1 -7 -4 -8 -3 -4 5 4 6 12 9 17 6 5 -4 9 -1 9 5 0 6 5
8 12 4 8 -5 9 -2 5 9 -6 16 4 22 27 18 5 -1 3 5 -4 14 -11 14 -11 16 1 13 8
-2 13 3 11 11 -3 12 -1 12 14 0 10 -8 15 -9 11 -2 -4 6 -1 18 7 26 8 8 12 17
9 21 -6 6 22 10 41 7 5 -1 4 4 -3 13 -10 12 -8 16 9 21 13 4 19 12 16 20 -3 9
0 12 10 8 12 -4 19 7 15 29 0 4 12 0 27 -9 24 -14 27 -22 29 -75 2 -40 -1 -57
-8 -52 -6 3 -3 -6 7 -22 11 -15 14 -25 8 -22 -7 5 -10 -13 -10 -53 1 -32 5
-59 9 -59 5 0 5 -5 2 -10 -4 -6 -12 -7 -18 -3 -7 4 -6 0 2 -10 7 -9 11 -24 7
-32 -3 -9 -2 -13 3 -10 5 3 13 0 17 -6 4 -8 3 -9 -4 -5 -7 4 -12 2 -12 -4 0
-6 -5 -8 -12 -4 -7 5 -8 3 -2 -7 5 -8 7 -23 5 -34 -3 -17 -1 -18 16 -5 17 14
17 14 1 -6 -21 -24 -24 -49 -5 -38 8 5 7 2 -2 -9 -8 -10 -11 -20 -8 -24 4 -3
2 -12 -4 -20 -6 -7 -7 -13 -2 -13 16 0 10 -104 -7 -112 -13 -6 -13 -7 1 -7 9
-1 16 -8 16 -16 0 -8 -4 -12 -9 -9 -4 3 -8 0 -8 -5 0 -6 5 -11 11 -11 5 0 7
-5 4 -10 -4 -6 -11 -8 -16 -5 -5 3 -6 -1 -3 -9 3 -9 11 -13 18 -9 6 4 5 -1 -3
-10 -7 -9 -18 -14 -24 -10 -6 3 -7 1 -3 -6 4 -6 12 -9 17 -6 13 9 11 -9 -3
-24 -8 -9 -8 -11 -2 -8 7 4 15 0 18 -9 4 -10 2 -13 -6 -8 -8 5 -9 2 -5 -9 4
-10 2 -17 -5 -17 -7 0 -6 -5 2 -15 9 -10 9 -15 1 -15 -6 0 -11 -5 -11 -11 0
-5 6 -7 13 -3 6 4 9 4 5 -1 -4 -4 -2 -15 5 -24 10 -14 10 -14 -5 -3 -22 18
-30 -5 -11 -35 10 -15 11 -23 3 -28 -8 -5 -8 -11 1 -21 10 -12 9 -13 -7 -7
-16 6 -17 5 -6 -9 10 -13 10 -17 0 -21 -10 -4 -10 -6 0 -6 6 -1 12 -6 12 -12
0 -5 -6 -7 -12 -3 -9 5 -9 2 1 -9 11 -14 11 -17 0 -17 -12 0 -12 -2 -1 -9 17
-11 17 -21 0 -32 -11 -7 -11 -9 1 -9 11 0 11 -3 1 -15 -10 -12 -10 -15 0 -15
8 0 9 -4 4 -12 -11 -16 -11 -39 -1 -55 5 -8 3 -13 -5 -13 -10 0 -10 -2 1 -9 9
-6 10 -10 2 -16 -9 -5 -9 -10 -1 -20 8 -10 8 -15 -1 -20 -8 -6 -8 -10 2 -15
10 -7 10 -12 -2 -26 -13 -16 -12 -17 5 -11 16 6 17 5 6 -8 -7 -8 -9 -15 -5
-15 4 0 3 -6 -4 -13 -7 -10 -7 -17 0 -24 6 -6 12 -29 12 -51 2 -34 0 -39 -13
-29 -13 10 -13 10 -2 -5 8 -9 11 -22 8 -27 -4 -5 -2 -12 4 -16 6 -4 7 -11 4
-17 -4 -6 0 -14 7 -19 11 -7 11 -11 2 -17 -8 -5 -9 -13 -3 -22 13 -21 12 -53
-1 -45 -6 4 -5 -2 2 -13 7 -12 17 -18 22 -15 5 3 3 -5 -5 -16 -11 -18 -11 -23
1 -30 11 -7 11 -9 0 -14 -10 -4 -10 -6 -1 -6 6 -1 12 -6 12 -12 0 -5 -6 -7
-12 -3 -7 4 -4 -2 6 -14 11 -13 14 -22 7 -22 -8 0 -9 -5 -2 -19 6 -10 7 -21 4
-25 -3 -3 -1 -6 7 -6 10 0 10 -3 0 -15 -7 -9 -10 -18 -6 -22 3 -3 6 0 6 8 0
12 2 12 10 -1 6 -9 5 -17 -3 -22 -9 -6 -9 -8 0 -8 7 0 10 -7 6 -17 -5 -12 -3
-14 8 -8 11 7 11 5 -1 -10 -8 -10 -10 -16 -3 -12 6 4 14 3 18 -3 3 -5 -2 -10
-12 -10 -17 -1 -17 -1 -1 -10 10 -6 15 -19 13 -30 -2 -11 1 -20 7 -20 5 0 8
-7 5 -15 -4 -8 -2 -17 4 -20 5 -4 7 -11 4 -16 -4 -5 -1 -9 6 -9 8 0 8 -4 -1
-15 -11 -13 -10 -14 4 -9 12 5 15 2 9 -12 -4 -12 -3 -15 6 -9 10 6 11 3 1 -15
-7 -12 -8 -20 -3 -17 5 3 15 -4 23 -16 12 -20 12 -21 -4 -8 -14 12 -16 12 -10
-3 3 -9 10 -16 16 -16 5 0 6 -4 3 -10 -3 -5 -1 -10 6 -10 6 0 9 -8 6 -20 -3
-13 -1 -18 6 -13 6 4 8 -2 5 -15 -4 -12 -1 -25 4 -29 7 -4 8 -1 3 7 -5 9 -4
11 3 6 7 -4 12 -18 12 -32 0 -13 5 -24 10 -24 6 0 10 -9 10 -21 0 -11 4 -18 8
-15 4 2 9 -5 9 -16 1 -12 8 -25 15 -29 7 -5 9 -9 3 -9 -5 0 -2 -5 8 -11 15 -9
16 -13 5 -27 -7 -9 -8 -13 -2 -9 15 9 39 -37 28 -55 -6 -9 -2 -9 11 2 10 8 16
10 12 3 -4 -6 -3 -14 3 -18 6 -4 8 -11 5 -16 -4 -5 -1 -9 4 -9 6 0 11 -7 11
-15 0 -9 6 -18 14 -21 8 -3 12 -12 9 -20 -3 -8 0 -14 7 -14 6 0 8 -4 5 -10 -3
-6 1 -7 10 -4 9 4 15 3 14 -2 -4 -23 2 -35 14 -28 6 4 9 4 5 -1 -4 -4 -2 -15
5 -23 10 -13 9 -15 -3 -8 -9 4 -8 1 3 -7 9 -8 17 -19 17 -26 0 -6 5 -11 10
-11 6 0 10 -7 10 -15 0 -8 8 -15 18 -16 14 0 14 -2 -3 -8 -19 -8 -19 -8 3 -15
12 -4 22 -13 22 -19 0 -7 9 -19 19 -27 11 -7 18 -17 15 -21 -2 -4 2 -14 10
-22 8 -8 12 -18 8 -21 -3 -4 2 -4 12 0 14 5 17 4 12 -4 -4 -7 -2 -12 6 -12 9
0 9 -3 -2 -10 -13 -8 -13 -10 2 -10 9 0 19 6 22 13 2 6 3 1 2 -13 -2 -17 6
-33 24 -50 15 -14 25 -31 23 -37 -3 -7 2 -13 11 -13 9 0 13 -7 11 -19 -3 -14
1 -18 11 -14 10 3 12 0 8 -10 -3 -8 0 -18 6 -22 9 -6 9 -10 -1 -16 -11 -7 -10
-10 6 -15 17 -4 20 -12 18 -45 -1 -28 1 -38 10 -32 7 4 6 0 -2 -10 -11 -14
-11 -17 0 -17 9 0 10 -3 4 -8 -12 -8 -14 -52 -3 -68 4 -6 5 -14 1 -18 -3 -3
-8 -17 -9 -31 -2 -17 1 -23 9 -18 9 5 9 3 1 -8 -12 -17 -12 -108 0 -128 6 -9
5 -12 -1 -8 -11 7 -12 -92 -1 -109 4 -6 5 -14 1 -18 -3 -3 -8 -17 -9 -31 -2
-17 1 -23 9 -18 9 5 9 3 0 -8 -10 -12 -10 -18 0 -29 9 -10 9 -11 0 -6 -8 5
-13 1 -13 -9 0 -10 5 -13 12 -9 7 5 8 3 2 -7 -13 -20 -12 -179 1 -172 5 3 4 0
-2 -8 -7 -7 -13 -17 -13 -22 0 -4 6 -5 13 -1 8 5 8 2 -2 -9 -7 -9 -10 -17 -6
-17 4 0 2 -6 -4 -14 -9 -11 -9 -16 0 -22 8 -5 9 -3 4 6 -5 9 -4 11 4 6 6 -4 8
-13 4 -19 -11 -18 -13 -66 -2 -73 5 -3 6 -11 2 -17 -12 -20 -13 -58 0 -51 9 5
9 4 0 -6 -9 -9 -9 -19 -2 -33 7 -11 7 -17 1 -13 -5 3 -9 -6 -9 -19 0 -14 4
-25 10 -25 7 0 7 -4 -1 -12 -16 -16 -15 -31 1 -22 9 6 9 4 1 -7 -6 -8 -10 -22
-9 -31 2 -10 -2 -18 -8 -18 -7 0 -4 -5 6 -11 10 -6 14 -15 10 -22 -12 -18 -10
-186 2 -180 6 3 4 0 -2 -8 -7 -7 -13 -17 -13 -22 0 -4 6 -5 13 -1 8 5 8 2 -2
-9 -7 -9 -10 -17 -6 -17 4 0 2 -6 -4 -14 -9 -11 -9 -16 0 -22 8 -5 9 -3 4 6
-5 9 -4 11 4 6 6 -4 8 -13 4 -19 -11 -18 -13 -66 -2 -73 5 -3 6 -11 2 -17 -12
-20 -13 -58 0 -51 9 5 9 4 0 -6 -9 -9 -9 -19 -2 -33 7 -11 7 -17 1 -13 -5 3
-9 -6 -9 -19 0 -14 4 -25 10 -25 7 0 7 -4 -1 -12 -16 -16 -15 -31 1 -22 9 6 9
4 1 -7 -6 -8 -10 -22 -9 -32 2 -9 -2 -17 -8 -17 -7 0 -4 -5 6 -11 12 -7 15
-15 9 -22 -10 -14 -10 -177 0 -193 4 -6 5 -14 1 -18 -3 -3 -8 -17 -9 -31 -2
-17 1 -23 9 -18 9 5 9 3 1 -8 -12 -17 -12 -108 0 -128 6 -9 5 -12 -1 -8 -11 7
-12 -92 -1 -109 4 -6 5 -14 1 -18 -3 -3 -8 -17 -9 -31 -2 -17 1 -23 9 -18 9 5
9 3 0 -8 -10 -12 -10 -18 0 -29 9 -10 9 -11 0 -6 -8 5 -13 1 -13 -9 0 -10 5
-13 13 -9 9 6 9 4 1 -7 -13 -17 -13 -148 0 -168 6 -10 6 -12 -2 -7 -7 4 -12 1
-12 -9 0 -9 4 -14 9 -10 5 3 13 1 16 -5 4 -6 1 -9 -6 -8 -9 2 -13 -12 -14 -44
-2 -30 1 -45 8 -41 6 4 7 1 1 -8 -5 -8 -7 -22 -5 -33 2 -12 -1 -16 -9 -11 -9
6 -9 2 -1 -12 6 -11 8 -23 4 -26 -3 -4 0 -14 8 -24 9 -11 10 -14 2 -9 -7 4
-13 2 -13 -3 0 -6 5 -11 11 -11 5 0 7 -5 3 -12 -13 -21 -14 -59 -1 -52 8 5 8
3 0 -7 -17 -17 -17 -32 0 -23 8 5 8 2 -2 -9 -7 -9 -10 -17 -6 -17 4 0 2 -6 -4
-14 -9 -11 -9 -16 0 -22 8 -5 9 -3 4 6 -5 9 -4 11 4 6 6 -4 8 -13 4 -19 -11
-18 -13 -66 -2 -73 5 -3 6 -11 2 -17 -12 -20 -13 -58 0 -51 9 5 9 4 0 -6 -9
-9 -9 -19 -2 -33 7 -11 7 -17 1 -13 -5 3 -9 -6 -9 -19 0 -14 4 -25 10 -25 7 0
7 -4 -1 -12 -16 -16 -15 -31 1 -22 9 6 9 4 1 -7 -6 -8 -10 -22 -9 -31 2 -10
-2 -18 -8 -18 -7 0 -4 -5 6 -11 12 -7 15 -15 9 -22 -11 -15 -9 -157 2 -176 6
-10 5 -12 -2 -7 -7 4 -12 1 -12 -9 0 -9 4 -14 9 -10 5 3 13 1 16 -5 4 -6 1 -9
-6 -8 -9 2 -13 -12 -14 -44 -2 -30 1 -45 8 -41 6 4 7 1 1 -8 -5 -8 -7 -22 -5
-33 2 -12 -1 -16 -9 -11 -9 6 -9 2 -1 -12 6 -11 8 -23 4 -26 -3 -4 0 -14 8
-24 9 -11 10 -14 2 -9 -7 4 -13 2 -13 -3 0 -6 6 -11 13 -11 7 0 8 -3 2 -8 -12
-8 -14 -52 -3 -68 4 -6 5 -14 1 -18 -3 -3 -8 -17 -9 -31 -2 -17 1 -23 9 -18 9
5 9 3 1 -8 -12 -17 -12 -108 0 -128 6 -9 5 -12 -1 -8 -11 7 -12 -92 -1 -109 4
-6 5 -14 1 -18 -3 -3 -8 -17 -9 -31 -2 -17 1 -23 9 -18 9 5 9 3 0 -8 -10 -12
-10 -18 0 -29 9 -10 9 -11 0 -6 -8 5 -13 1 -13 -9 0 -10 5 -13 13 -9 9 6 9 4
1 -7 -13 -17 -13 -148 0 -168 6 -10 6 -12 -2 -7 -7 4 -12 1 -12 -9 0 -9 4 -14
9 -10 5 3 13 1 16 -5 4 -6 1 -9 -6 -8 -9 2 -13 -12 -14 -44 -2 -30 1 -45 8
-41 6 4 7 1 1 -8 -5 -8 -7 -22 -5 -33 2 -12 -1 -16 -9 -11 -9 6 -9 2 -1 -12 6
-11 8 -23 4 -26 -3 -4 0 -14 8 -24 9 -11 10 -14 2 -9 -7 4 -13 2 -13 -3 0 -6
5 -11 11 -11 5 0 7 -5 3 -12 -13 -21 -14 -59 -1 -52 8 5 8 3 0 -7 -7 -7 -13
-17 -13 -22 0 -4 6 -5 13 -1 8 5 8 2 -2 -9 -7 -9 -10 -17 -6 -17 4 0 2 -6 -4
-14 -9 -11 -9 -16 0 -22 8 -5 9 -3 4 6 -5 9 -4 11 4 6 6 -4 8 -13 4 -19 -11
-18 -13 -66 -2 -73 5 -3 6 -11 2 -17 -12 -20 -13 -58 0 -51 9 5 9 4 0 -6 -9
-9 -9 -19 -2 -33 7 -11 7 -17 1 -13 -5 3 -9 -6 -9 -19 0 -14 4 -25 10 -25 7 0
7 -4 -1 -12 -16 -16 -15 -31 1 -22 9 6 9 4 1 -7 -6 -8 -10 -22 -9 -31 2 -10
-2 -18 -8 -18 -7 0 -4 -5 6 -11 12 -7 15 -15 9 -22 -11 -15 -9 -157 2 -176 6
-10 5 -12 -2 -7 -7 4 -12 1 -12 -9 0 -10 5 -13 12 -9 7 5 8 3 2 -7 -14 -24
-16 -51 -2 -43 10 6 10 5 1 -7 -10 -12 -10 -18 0 -29 8 -8 8 -11 1 -7 -8 5
-11 -7 -10 -41 2 -26 -2 -53 -8 -61 -8 -11 -8 -13 0 -8 8 5 11 -12 9 -58 -2
-44 1 -63 8 -58 6 4 7 1 1 -8 -14 -24 -16 -51 -2 -43 10 6 10 5 1 -7 -10 -12
-10 -18 0 -29 10 -10 8 -12 -7 -6 -14 5 -16 3 -9 -6 5 -7 8 -28 8 -46 -1 -17
3 -32 9 -32 5 0 1 -7 -10 -16 -10 -8 -14 -13 -8 -10 7 3 14 -4 17 -15 4 -16 2
-19 -10 -15 -13 5 -14 4 -3 -9 7 -8 9 -15 6 -15 -4 0 -2 -10 5 -21 6 -12 7
-19 2 -16 -13 8 -11 -123 1 -142 6 -9 5 -12 -1 -8 -6 4 -10 -8 -10 -28 0 -19
4 -32 8 -30 4 3 5 -4 2 -15 -3 -11 -10 -17 -17 -13 -8 5 -8 3 0 -8 7 -8 10
-26 8 -42 -2 -19 1 -25 9 -20 9 5 9 3 0 -8 -10 -12 -10 -18 0 -29 6 -7 7 -10
1 -7 -6 4 -10 -8 -10 -33 0 -22 4 -36 10 -33 5 4 6 1 0 -8 -13 -21 -15 -101
-1 -92 6 4 7 1 1 -8 -5 -8 -10 -25 -12 -37 -2 -17 1 -22 10 -16 10 6 10 4 -1
-9 -11 -14 -11 -17 0 -17 11 0 11 -2 1 -8 -12 -8 -12 -45 1 -58 4 -4 0 -15 -9
-25 -12 -13 -12 -19 -3 -25 8 -5 10 -3 4 6 -6 9 -4 11 4 5 9 -5 9 -11 3 -17
-6 -6 -8 -17 -5 -26 5 -11 3 -13 -8 -7 -12 8 -12 6 0 -8 7 -9 11 -17 7 -17 -3
0 -1 -12 5 -26 8 -24 8 -25 -6 -14 -13 11 -14 10 -9 -4 3 -9 11 -16 18 -16 7
0 7 -3 -2 -8 -12 -8 -12 -45 1 -58 4 -4 -1 -16 -10 -27 -10 -11 -13 -17 -6
-14 6 4 14 3 18 -3 3 -5 2 -10 -4 -10 -11 0 -10 -68 1 -86 4 -6 4 -14 0 -18
-11 -12 -10 -76 2 -76 8 0 7 -3 0 -8 -14 -9 -13 -64 1 -74 6 -5 5 -8 -2 -8 -7
0 -13 -7 -13 -16 0 -9 5 -12 13 -8 8 5 8 2 -2 -9 -7 -9 -10 -17 -6 -17 4 0 2
-6 -4 -14 -9 -11 -9 -16 0 -22 8 -5 9 -3 4 6 -5 9 -4 11 4 6 7 -5 9 -12 3 -19
-5 -7 -8 -67 -8 -134 1 -67 -2 -120 -6 -117 -4 3 -4 -5 0 -18 5 -13 8 -44 7
-70 -1 -31 2 -45 9 -42 6 3 3 -1 -6 -9 -10 -8 -15 -17 -11 -21 4 -3 8 -24 9
-46 2 -29 -1 -38 -9 -33 -7 4 -6 0 2 -10 7 -9 10 -17 6 -17 -4 0 -2 -6 4 -14
10 -11 10 -20 0 -37 -9 -17 -9 -24 0 -27 6 -2 11 -8 11 -13 0 -6 -6 -7 -12 -3
-10 6 -10 4 0 -8 9 -11 10 -18 2 -23 -5 -3 -10 -11 -10 -16 0 -6 5 -7 10 -4 6
4 5 -5 -2 -20 -10 -22 -9 -28 3 -36 8 -5 9 -9 3 -9 -8 0 -11 -48 -11 -155 1
-98 4 -155 11 -155 6 0 5 -5 -2 -12 -18 -18 -15 -31 5 -24 15 6 14 4 -2 -14
-14 -16 -15 -19 -3 -15 12 5 15 0 13 -19 -2 -19 1 -23 13 -20 13 4 12 2 -3
-11 -20 -17 -20 -17 4 -10 16 5 21 4 17 -4 -4 -6 -2 -11 4 -11 6 0 9 -3 7 -7
-3 -5 1 -14 9 -21 8 -7 14 -10 14 -5 0 16 29 -34 30 -52 1 -11 4 -14 7 -8 3
10 8 10 19 -1 8 -8 14 -20 14 -26 0 -6 5 -8 10 -5 6 3 10 -1 10 -9 0 -15 12
-21 34 -17 5 1 6 -6 2 -15 -5 -14 -4 -15 9 -4 13 11 14 10 10 -3 -4 -8 -1 -18
6 -23 8 -4 10 -3 5 4 -4 7 -2 12 3 12 6 0 11 -9 11 -21 0 -11 4 -18 9 -14 5 3
12 1 16 -5 4 -6 10 -8 15 -5 5 3 13 -3 19 -12 6 -10 11 -14 11 -10 0 5 7 1 16
-7 8 -9 20 -14 25 -11 5 4 9 1 9 -6 0 -7 3 -9 7 -6 3 4 15 -1 26 -10 15 -13
18 -14 12 -3 -8 13 -6 13 8 1 9 -7 23 -11 32 -7 8 3 14 0 12 -7 -1 -7 10 -12
25 -13 14 -1 34 -8 43 -17 19 -20 29 -22 19 -4 -5 9 -4 9 6 0 7 -6 19 -9 26
-6 8 3 14 0 14 -7 0 -8 4 -9 13 -3 15 11 27 11 47 -2 9 -6 153 -10 358 -10
298 -1 345 1 352 15 7 11 9 12 10 1 0 -10 3 -11 13 -2 8 6 17 8 21 4 4 -4 11
-1 16 7 9 13 10 13 10 0 1 -12 3 -11 11 3 8 14 14 16 25 6 11 -9 15 -8 19 3 4
9 16 14 31 12 16 -1 24 2 21 9 -3 7 6 13 20 13 21 2 22 0 11 -15 -8 -10 -4 -9
12 4 14 11 28 24 31 28 3 4 11 7 17 5 6 -2 18 6 27 17 9 11 14 15 11 8 -4 -7
4 -6 24 3 16 9 30 20 30 25 0 5 6 8 13 6 6 -1 11 4 9 12 -3 12 -1 12 13 1 9
-7 15 -9 14 -4 -4 22 2 33 16 28 9 -4 15 0 15 10 0 9 5 16 11 16 5 0 7 -6 3
-12 -4 -8 -3 -10 2 -5 5 5 9 14 9 20 1 7 7 11 14 9 7 -1 10 2 6 8 -3 5 -1 10
5 10 7 0 9 7 6 16 -6 15 -4 15 11 3 11 -9 14 -10 9 -2 -4 8 -2 13 4 13 6 0 9
4 6 8 -3 5 4 14 14 22 10 8 16 18 13 24 -4 5 1 7 12 2 15 -5 16 -4 5 9 -7 9
-9 15 -4 14 21 -4 26 2 14 16 -11 13 -10 14 5 9 13 -5 16 -4 11 4 -4 7 -3 12
3 12 5 0 8 9 6 21 -3 17 -1 19 10 9 11 -9 13 -7 11 7 -2 10 2 21 8 25 7 5 7 8
-3 8 -11 0 -11 3 -1 15 6 8 8 20 4 26 -4 8 -3 9 4 5 7 -4 13 -2 13 3 1 6 2 17
3 24 1 6 -3 15 -9 19 -6 5 -6 8 0 8 8 0 12 64 5 80 -1 3 -1 10 0 15 8 32 5 81
-4 88 -7 5 -8 9 -1 15 14 10 15 62 1 62 -6 0 -5 4 2 9 17 11 17 21 0 32 -8 6
-9 12 -3 17 14 10 15 102 1 102 -7 0 -7 3 -1 8 14 10 14 65 1 75 -7 5 -8 9 -1
15 14 10 15 62 1 62 -6 0 -5 4 2 9 17 11 17 21 0 32 -9 6 -10 12 -3 17 14 9
14 95 0 104 -6 5 -5 8 4 8 10 0 11 3 2 13 -6 8 -8 17 -4 21 12 12 12 36 0 36
-8 0 -8 3 -2 8 14 10 17 32 4 32 -8 0 -8 4 0 13 8 10 7 17 -2 27 -9 10 -9 11
1 6 14 -8 16 3 3 24 -6 8 -7 19 -3 24 7 13 10 68 3 81 -8 15 -8 45 -1 45 3 0
6 14 6 30 0 17 -4 30 -10 30 -6 0 -5 4 2 9 17 11 17 21 0 32 -9 6 -10 12 -3
17 14 9 14 95 0 105 -7 5 -7 9 0 15 14 10 15 62 1 62 -6 0 -5 4 2 9 17 11 17
21 0 32 -9 6 -10 12 -3 17 14 9 14 95 0 105 -7 5 -7 9 0 15 14 10 15 62 1 62
-6 0 -5 4 2 9 8 4 14 12 14 16 0 4 -6 12 -14 16 -8 6 -9 12 -3 17 15 10 17 32
5 46 -5 7 -7 16 -3 20 12 12 12 36 0 36 -8 0 -8 3 -2 8 14 10 17 32 4 32 -8 0
-8 4 0 13 8 10 7 17 -2 27 -9 10 -9 11 1 6 14 -8 16 3 3 24 -6 8 -7 18 -4 24
10 15 10 77 1 82 -5 3 -5 10 -2 16 12 19 12 83 0 91 -7 5 -8 9 -1 15 14 10 15
62 1 62 -6 0 -5 4 2 9 17 11 17 21 0 32 -8 6 -9 12 -3 17 14 10 15 102 1 102
-7 0 -7 3 -1 8 14 10 14 65 1 74 -7 6 -8 10 -1 15 14 11 15 63 1 63 -6 0 -5 4
2 9 17 11 17 21 0 32 -9 6 -10 12 -3 17 14 9 14 95 0 104 -6 5 -5 8 4 8 10 0
11 3 2 13 -6 8 -8 17 -4 21 12 12 12 36 0 36 -8 0 -8 3 -2 8 14 10 17 32 4 32
-8 0 -8 4 0 13 8 10 7 17 -2 27 -9 10 -9 11 1 6 14 -8 16 3 3 24 -6 8 -7 19
-3 24 7 13 10 68 3 81 -8 15 -8 45 -1 45 3 0 6 14 6 30 0 17 -4 30 -10 30 -6
0 -5 4 2 9 17 11 17 21 0 32 -9 6 -10 12 -3 16 14 10 14 96 0 106 -7 5 -7 9 0
15 14 10 15 62 1 62 -6 0 -5 4 2 9 17 11 17 21 0 32 -9 6 -10 12 -3 16 14 10
14 96 0 106 -7 5 -7 9 0 15 14 10 15 62 1 62 -6 0 -5 4 2 9 17 11 17 21 0 32
-8 6 -9 12 -3 17 15 10 17 32 5 46 -5 7 -7 16 -3 20 12 12 12 36 0 36 -8 0 -8
3 -2 8 14 10 17 32 4 32 -8 0 -8 4 0 13 8 10 7 17 -2 27 -9 10 -9 11 1 6 14
-8 16 3 3 24 -6 8 -7 19 -3 24 7 13 10 68 3 81 -8 15 -8 45 -1 45 3 0 6 14 6
30 0 17 -4 30 -10 30 -6 0 -5 4 2 9 17 11 17 21 0 32 -9 6 -10 12 -3 17 14 9
14 95 0 105 -7 5 -7 9 0 15 14 10 15 62 1 62 -6 0 -5 4 2 9 17 11 17 21 0 32
-9 6 -10 12 -3 17 14 9 14 95 0 105 -7 5 -7 9 0 15 14 10 15 62 1 62 -6 0 -5
4 2 9 8 4 14 12 14 16 0 4 -6 12 -14 16 -11 8 -11 10 0 18 8 4 14 12 14 16 0
4 -6 12 -14 16 -7 5 -8 9 -2 9 6 0 10 14 10 30 0 17 -4 30 -10 30 -6 0 -5 4 2
9 8 4 14 12 14 16 0 4 -6 12 -14 16 -9 6 -10 12 -3 17 14 9 14 95 0 104 -7 6
-7 10 0 15 14 11 15 63 1 63 -6 0 -5 4 2 9 17 11 17 21 0 32 -9 6 -10 12 -3
17 14 9 14 95 0 105 -7 5 -7 9 0 15 14 10 15 62 1 62 -6 0 -5 4 2 9 8 4 14 12
14 16 0 4 -6 12 -14 16 -11 8 -11 10 0 18 8 4 14 12 14 16 0 4 -6 12 -14 16
-7 5 -8 9 -2 9 6 0 10 14 10 30 0 17 -4 30 -10 30 -6 0 -5 4 2 9 8 4 14 12 14
16 0 4 -6 12 -14 16 -9 6 -10 12 -3 16 14 10 14 96 0 105 -7 6 -7 10 0 15 14
11 15 63 1 63 -6 0 -5 4 2 9 17 11 17 21 0 32 -9 6 -10 12 -3 17 14 9 14 95 0
104 -7 6 -7 10 0 15 14 11 15 63 1 63 -6 0 -5 4 2 9 17 11 17 21 0 32 -11 8
-11 10 0 18 17 11 17 21 0 32 -7 5 -8 9 -2 9 6 0 10 14 10 30 0 17 -4 30 -10
30 -6 0 -5 4 2 9 17 11 17 21 0 32 -9 6 -10 12 -3 16 14 10 14 96 0 106 -7 5
-7 9 0 15 14 10 15 62 1 62 -6 0 -5 4 2 9 8 4 14 12 14 16 0 4 -6 12 -14 16
-9 6 -10 12 -3 17 14 9 14 95 0 104 -7 6 -7 10 0 15 14 11 15 63 1 63 -6 0 -5
4 2 9 17 11 17 21 0 32 -8 6 -9 12 -3 17 15 10 17 32 5 46 -5 7 -7 16 -3 20
12 12 12 36 0 36 -8 0 -8 3 -2 8 14 10 17 32 4 32 -8 0 -8 4 0 13 8 10 7 17
-2 27 -9 10 -9 11 1 6 14 -8 16 3 3 24 -6 8 -7 19 -3 24 7 13 10 68 3 81 -8
15 -8 45 -1 45 3 0 6 14 6 30 0 17 -4 30 -10 30 -6 0 -5 4 2 9 8 4 14 12 14
16 0 4 -6 12 -14 16 -9 6 -10 12 -3 17 14 9 14 95 0 105 -7 5 -7 9 0 15 14 10
15 62 1 62 -6 0 -5 4 2 9 8 4 14 12 14 16 0 4 -6 12 -14 16 -9 6 -10 11 -2 16
9 7 12 77 4 93 -6 13 -4 36 4 48 7 9 5 16 -5 23 -12 7 -12 9 0 9 9 0 7 6 -8
19 -19 16 -20 22 -10 39 8 12 20 18 33 15 17 -4 18 -3 6 6 -12 9 -13 11 -1 11
8 0 23 7 33 16 15 14 20 15 35 3 11 -9 14 -10 9 -1 -4 6 -2 12 3 12 6 0 11 -8
12 -17 0 -15 2 -15 9 2 6 14 9 15 9 5 1 -9 10 -16 21 -17 13 -1 18 2 13 10 -4
8 -2 8 9 -1 9 -7 20 -12 24 -11 25 4 44 -2 38 -12 -4 -8 0 -9 15 -4 13 4 21 2
21 -5 0 -6 5 -8 10 -5 6 4 7 11 4 17 -4 5 6 2 22 -8 15 -11 25 -13 21 -7 -6 9
-3 11 7 7 9 -3 13 -11 10 -16 -4 -6 2 -5 14 1 25 13 35 14 28 3 -3 -5 1 -9 8
-9 9 0 12 7 9 16 -5 14 -4 14 8 0 17 -20 93 -34 82 -16 -5 9 -3 9 8 1 8 -6 23
-10 33 -8 11 1 28 -2 39 -8 14 -7 17 -7 13 1 -5 7 2 10 19 9 21 -2 25 -7 21
-23 -5 -17 -3 -17 13 4 18 23 20 24 36 8 18 -18 30 -23 20 -8 -3 5 -1 12 5 16
5 3 10 1 10 -5 0 -7 7 -7 23 1 20 11 21 11 8 -5 -12 -14 -12 -16 4 -10 14 6
16 4 10 -7 -8 -12 -6 -12 8 0 19 15 23 26 5 15 -7 -4 -8 -3 -4 4 11 18 26 14
27 -5 0 -11 3 -13 6 -5 2 6 9 12 14 12 6 0 8 -3 6 -7 -3 -5 8 -8 23 -9 16 -1
31 5 34 13 4 11 10 11 26 3 11 -6 25 -8 30 -5 17 10 51 14 45 5 -9 -15 19 -17
54 -3 30 13 33 13 28 -1 -4 -10 -1 -13 8 -9 8 3 12 9 9 14 -3 5 0 9 5 9 6 0
11 -4 11 -10 0 -5 5 -10 11 -10 5 0 7 6 3 13 -6 9 -4 9 8 -1 11 -9 18 -10 23
-2 3 5 14 10 23 10 15 0 15 -2 2 -10 -8 -5 -10 -10 -4 -10 6 0 14 3 18 7 4 4
36 8 71 9 35 1 69 6 77 10 16 11 58 12 58 2 0 -4 7 -5 16 -1 13 5 13 7 2 14
-7 5 -8 9 -2 9 6 0 14 -3 18 -7 12 -13 61 -8 74 7 8 8 11 10 8 4 -3 -7 1 -15
10 -18 8 -3 13 -2 10 3 -3 5 1 11 9 15 8 3 15 0 15 -7 0 -7 5 -4 11 6 8 14 14
16 25 6 11 -9 14 -8 14 2 0 11 2 11 10 -1 7 -11 10 -11 10 -2 0 7 4 11 9 7 5
-3 12 -1 16 4 8 14 36 2 29 -13 -3 -6 4 0 16 14 12 14 19 20 16 13 -4 -6 -2
-14 4 -18 5 -3 10 1 10 10 0 9 5 13 10 10 6 -4 17 -2 25 5 9 7 15 8 20 0 3 -5
11 -10 16 -10 6 0 8 4 5 8 -3 5 8 8 24 7 17 -1 30 2 30 7 0 4 4 8 10 8 5 0 7
-8 4 -17 -4 -14 -2 -14 8 2 12 19 54 33 42 14 -3 -5 2 -6 10 -3 9 3 14 9 11
14 -2 4 7 5 22 2 14 -3 23 -1 20 4 -3 5 12 9 34 8 21 0 39 3 39 8 0 5 9 4 20
-2 16 -9 22 -8 26 4 4 10 16 14 35 12 23 -3 27 -1 19 10 -9 10 -6 11 10 7 13
-4 26 0 31 8 7 11 9 11 9 1 0 -9 5 -10 19 -3 10 6 22 7 27 3 5 -4 3 0 -4 9
-10 13 -6 15 28 12 26 -2 40 1 40 9 0 6 3 8 7 5 3 -4 12 1 20 11 8 9 11 11 8
4 -11 -22 28 -10 43 13 8 12 11 14 9 4 -3 -9 1 -16 8 -16 8 0 14 3 13 6 -2 19
4 22 19 10 14 -12 16 -12 8 0 -6 11 -3 13 14 8 17 -4 20 -2 12 7 -8 9 -2 12
27 12 23 0 36 4 35 12 -2 7 4 9 14 5 12 -5 14 -3 8 8 -7 12 -6 12 7 1 14 -11
18 -10 26 5 6 10 21 18 34 19 13 1 32 4 43 8 11 5 27 10 35 14 8 3 18 5 22 4
3 -1 12 5 18 13 15 18 34 20 24 3 -4 -7 -3 -8 4 -4 7 4 12 15 12 24 0 13 3 13
12 4 10 -10 16 -8 31 10 10 13 16 16 12 8 -4 -8 1 -6 9 4 9 11 16 14 16 8 0
-7 5 -12 12 -12 6 0 8 3 5 7 -10 10 13 32 28 27 7 -3 21 5 30 18 l17 23 -7
-25 c-7 -24 -7 -24 9 -5 8 11 16 16 16 11 0 -5 7 -3 15 4 8 7 12 16 9 21 -3 5
7 4 22 -1 24 -10 26 -9 14 5 -7 9 -9 15 -4 14 20 -3 35 1 30 10 -3 4 4 8 17 7
13 -1 21 4 19 12 -1 8 2 11 8 7 5 -3 10 -1 10 5 0 6 5 8 10 5 6 -4 8 -11 5
-16 -4 -5 -4 -9 0 -9 3 0 10 12 15 26 6 14 15 22 21 19 6 -4 17 2 25 13 9 13
21 19 31 15 9 -4 21 0 27 9 11 15 55 42 69 43 4 0 11 5 15 11 4 6 17 15 30 19
13 3 27 18 32 31 5 13 16 24 25 24 8 0 15 5 15 10 0 6 7 10 15 10 8 0 15 5 15
11 0 5 5 7 10 4 6 -3 10 2 10 11 0 10 3 15 6 11 3 -3 21 10 40 30 19 19 34 29
34 21 0 -7 6 -2 13 12 7 14 20 24 29 24 9 -1 22 9 29 22 7 13 16 24 21 24 5 0
6 5 3 10 -3 6 3 10 14 10 19 0 26 11 22 34 -1 5 5 6 14 3 11 -5 15 0 15 16 0
18 2 19 10 7 8 -13 10 -13 10 2 0 16 37 45 51 40 4 -1 4 8 1 20 -3 14 -1 19 6
14 7 -4 12 -2 12 4 0 6 5 8 13 4 9 -6 9 -4 -1 8 -10 13 -10 18 -1 24 8 5 9 3
4 -7 -8 -12 -6 -12 8 0 9 7 14 18 10 24 -4 6 2 8 16 4 17 -4 20 -3 11 8 -8 9
-7 17 4 28 8 8 12 18 8 23 -4 5 2 2 12 -6 13 -10 17 -10 12 -2 -4 7 -2 12 6
12 10 0 10 2 -1 9 -11 7 -9 11 8 20 12 7 19 17 15 23 -5 8 -1 9 11 4 16 -6 16
-4 4 11 -9 11 -10 14 -1 9 7 -4 12 -1 12 8 0 9 3 16 8 16 4 0 13 9 20 21 8 12
9 18 3 15 -5 -4 -13 -2 -16 4 -4 6 -3 10 2 9 24 -4 35 2 29 17 -4 11 -2 15 8
11 11 -4 13 -1 9 10 -4 11 -2 14 5 9 8 -5 10 -1 5 10 -4 12 -3 15 5 10 8 -5
10 -2 6 9 -9 21 26 61 38 43 4 -7 8 -8 8 -2 0 14 57 9 76 -6 12 -11 13 -10 8
6 -5 18 -5 18 6 2 7 -12 24 -18 46 -18 24 0 33 -4 28 -12 -5 -7 -3 -8 7 -2 23
14 42 14 30 0 -8 -9 -1 -12 29 -10 22 1 40 -3 40 -9 0 -5 5 -5 13 2 15 12 27
6 23 -12 -2 -7 -1 -9 1 -4 3 4 9 5 14 2 5 -4 6 2 3 12 -6 15 -4 15 9 -2 9 -11
17 -16 17 -11 0 4 11 1 24 -7 13 -9 33 -13 46 -10 18 5 21 3 15 -8 -8 -12 -6
-12 8 0 14 11 17 11 17 0 0 -11 2 -11 10 1 8 13 14 8 12 -11 -1 -3 12 -3 29
-1 18 3 29 0 29 -7 0 -7 5 -9 10 -6 6 4 18 1 27 -7 12 -9 15 -9 9 0 -4 6 -3
12 3 12 5 0 12 -6 14 -12 4 -10 6 -10 6 0 1 10 6 10 21 2 11 -6 20 -8 20 -6 0
3 12 1 28 -5 15 -7 38 -12 52 -14 14 -1 24 -7 22 -14 -1 -7 2 -10 8 -6 6 3 8
11 5 16 -11 16 7 10 22 -8 8 -10 12 -13 9 -7 -3 7 1 15 10 18 8 3 13 2 10 -3
-3 -5 1 -12 10 -15 23 -9 26 -8 18 7 -6 9 -5 9 8 0 8 -7 18 -10 21 -6 4 3 7 0
7 -8 0 -12 2 -11 10 1 9 13 11 13 20 0 9 -13 10 -13 10 0 0 13 1 13 10 0 8
-13 10 -13 10 -1 0 11 4 10 13 -4 11 -14 16 -15 22 -5 6 9 4 11 -5 5 -8 -5
-11 -4 -7 3 4 5 16 8 28 5 14 -4 17 -8 8 -13 -6 -4 9 -5 35 -3 35 4 46 2 46
-8 1 -10 4 -8 11 4 6 10 15 14 22 10 7 -4 32 -8 57 -9 25 -1 45 -3 45 -4 0 -7
58 -4 62 3 3 5 9 3 14 -4 7 -11 9 -11 9 1 0 12 2 13 9 1 6 -8 14 -10 22 -5 19
12 38 14 44 4 2 -4 18 -6 35 -4 16 2 42 -1 56 -6 22 -9 25 -8 21 4 -4 10 -1
13 8 9 8 -3 12 -10 8 -16 -3 -6 -1 -7 6 -3 6 4 20 2 29 -5 12 -10 11 -7 -3 10
l-20 23 30 -13 c17 -7 35 -17 42 -21 6 -6 14 -4 19 3 4 7 3 9 -4 5 -6 -3 -13
-2 -17 3 -6 10 17 8 49 -5 15 -6 17 -4 11 7 -8 12 -6 12 8 0 15 -12 17 -11 17
5 0 15 2 16 9 5 6 -10 20 -12 45 -8 20 3 34 2 32 -2 -3 -4 1 -8 9 -8 8 0 11 5
8 10 -4 6 0 8 10 4 9 -3 19 -2 22 2 3 5 14 7 26 4 16 -4 17 -8 7 -14 -10 -7
-10 -9 0 -9 7 0 15 7 19 16 4 11 8 12 13 4 6 -9 13 -9 29 -1 11 7 21 8 21 3 0
-4 9 -8 19 -8 11 0 17 4 15 8 -3 4 0 8 5 8 6 0 11 -4 11 -10 0 -6 10 -6 27 1
20 7 28 6 35 -3 5 -8 8 -9 8 -2 0 7 13 11 34 8 29 -2 34 0 30 14 -3 9 2 6 11
-8 16 -25 16 -25 11 -2 -3 17 -1 21 7 14 18 -13 47 -22 46 -14 -3 21 3 24 17
6 8 -10 13 -14 10 -7 -4 6 -2 14 4 18 5 3 10 0 10 -7 0 -10 2 -10 8 -1 4 7 19
11 32 8 13 -3 36 3 50 12 24 16 24 16 10 -2 -14 -17 -13 -17 10 -10 14 4 31
13 39 19 11 8 13 8 7 -1 -9 -16 6 -17 22 -1 9 9 12 9 12 -1 0 -7 5 -9 10 -6 6
4 7 11 4 17 -4 7 -2 8 5 4 25 -16 61 -14 61 3 0 14 2 14 11 1 8 -12 12 -12 16
-2 4 10 9 9 19 -5 11 -14 13 -14 9 -2 -7 18 26 23 37 5 5 -7 8 -6 8 4 0 12 11
16 49 15 40 -1 48 2 39 12 -13 16 -4 17 22 3 13 -7 21 -7 25 0 4 6 10 8 15 5
5 -3 12 -1 15 5 5 8 11 8 19 1 9 -8 19 -5 36 9 24 21 35 26 26 12 -3 -5 1 -9
9 -9 8 0 13 3 11 6 -2 3 3 13 12 21 14 13 15 13 10 -1 -4 -9 -1 -16 7 -16 8 0
14 3 13 6 -2 19 4 24 12 11 7 -11 10 -11 10 -2 0 7 5 10 10 7 6 -3 10 -2 10 4
0 6 7 8 15 5 8 -4 12 -11 8 -17 -3 -6 -1 -7 6 -3 6 4 9 12 6 17 -4 5 -1 9 5 9
6 0 9 4 6 8 -3 5 1 9 9 9 8 0 15 -5 15 -10 0 -5 6 -4 13 2 8 6 17 8 20 4 4 -3
7 -1 7 5 0 7 5 12 11 12 5 0 7 -6 3 -12 -6 -9 -3 -9 9 0 9 8 22 10 28 6 8 -4
9 -3 5 5 -5 8 0 10 19 7 17 -3 28 0 32 10 4 11 9 12 19 3 11 -9 14 -8 14 1 0
7 7 10 15 7 8 -4 17 -1 21 5 5 7 2 8 -6 3 -9 -5 -11 -4 -6 4 6 9 11 9 21 1 10
-8 16 -7 24 7 8 14 10 15 11 3 0 -13 1 -13 10 0 5 8 10 11 11 5 0 -5 4 -1 9
10 8 19 9 19 9 1 1 -20 1 -20 17 0 8 10 12 12 8 4 -7 -13 -5 -13 9 -1 9 7 17
10 17 5 0 -5 5 -1 10 8 7 11 19 15 35 12 19 -3 25 0 25 13 0 15 2 15 15 -3 11
-13 14 -14 13 -4 -2 8 4 15 12 15 8 0 21 7 28 15 12 13 13 13 6 0 -7 -13 -5
-13 9 -2 9 8 26 11 39 8 13 -3 17 -3 11 0 -18 8 -16 27 2 20 8 -3 15 -2 15 3
0 5 11 7 25 6 16 -2 30 4 39 17 10 14 15 16 19 6 4 -10 6 -10 6 0 1 6 8 12 17
12 8 0 13 4 10 9 -4 5 2 8 11 7 10 -2 21 2 25 8 4 6 12 12 18 12 5 1 15 2 21
3 5 0 7 6 3 13 -5 7 -2 9 9 5 9 -3 18 0 21 9 3 8 11 14 18 14 9 0 8 -3 -2 -10
-10 -7 -11 -10 -2 -10 7 0 15 7 18 15 4 8 11 12 17 8 7 -4 8 0 3 12 -5 14 -4
16 8 6 11 -9 15 -8 20 5 3 9 13 14 21 10 8 -3 14 0 12 7 -1 7 8 12 20 11 13
-1 20 3 16 11 -2 7 0 16 6 20 6 3 11 1 11 -5 0 -7 5 -6 14 2 8 7 12 16 9 21
-2 4 -1 7 4 6 15 -4 43 13 37 22 -3 5 -1 9 5 9 5 0 12 -6 14 -12 3 -8 6 -5 6
5 1 11 13 22 31 28 16 6 27 15 24 20 -3 5 0 9 6 9 6 0 8 5 4 13 -5 7 0 6 11
-3 11 -9 16 -10 11 -3 -4 8 -2 13 4 13 6 0 8 5 4 12 -4 6 -3 8 4 5 15 -10 41
3 36 18 -5 11 29 29 49 26 5 -1 5 4 1 10 -5 8 -2 10 8 6 12 -4 15 0 14 18 -2
15 1 22 9 18 7 -2 16 1 20 6 3 6 11 9 16 6 5 -4 6 2 2 11 -5 14 -3 16 12 11
15 -6 16 -5 6 7 -9 11 -9 16 0 22 8 5 10 3 5 -7 -4 -8 -1 -6 7 4 9 10 24 25
34 34 10 8 13 12 6 9 -6 -4 -15 -2 -18 4 -4 6 -3 10 2 9 20 -3 44 2 40 9 -7
10 19 32 29 24 5 -4 2 2 -6 12 -10 13 -10 17 -2 12 8 -5 15 2 22 18 5 14 14
26 20 26 6 0 8 5 5 10 -3 6 -1 10 4 10 6 0 11 7 11 16 0 8 4 13 9 10 5 -3 11
1 14 9 4 10 1 12 -11 9 -9 -3 -5 2 11 11 15 8 27 18 27 21 0 3 -6 2 -12 -2 -8
-4 -7 0 2 12 24 30 43 67 31 59 -6 -3 -11 -1 -11 4 0 6 6 11 14 11 8 0 12 9
10 26 -1 15 3 28 12 31 10 3 12 13 8 26 -5 15 -3 19 9 14 12 -4 15 -1 12 15
-3 12 0 27 6 35 9 10 8 13 -2 13 -10 1 -9 4 3 14 14 10 15 15 5 26 -10 10 -8
12 7 6 15 -5 17 -4 8 7 -9 10 -8 17 0 25 7 7 8 12 2 12 -6 0 -11 7 -11 15 0 8
5 11 10 8 6 -4 8 2 5 15 -3 11 1 31 10 43 8 12 10 19 4 15 -13 -8 -17 6 -5 17
11 12 12 57 1 57 -7 0 -7 4 0 13 15 18 15 29 0 38 -11 7 -11 9 0 9 9 0 11 7 7
21 -5 16 -4 19 5 14 9 -5 11 -4 6 4 -14 22 -17 61 -5 61 7 0 4 9 -7 22 -10 12
-14 18 -8 15 7 -4 14 3 16 17 4 19 1 23 -11 19 -13 -5 -14 -3 -3 8 15 17 16
43 0 33 -7 -5 -8 -3 -2 7 12 20 11 112 -1 121 -6 5 -4 8 5 8 13 0 13 1 0 10
-9 6 -11 13 -5 18 12 8 16 44 5 37 -4 -3 -10 4 -13 15 -3 11 -2 18 3 15 4 -3
11 2 14 11 4 9 2 13 -5 8 -8 -4 -9 1 -4 16 4 14 3 20 -3 16 -5 -3 -13 1 -16
10 -3 8 -2 12 4 9 6 -3 10 0 11 7 0 7 2 23 3 36 2 13 -1 25 -5 28 -5 2 -5 12
-2 21 5 12 3 14 -8 8 -8 -5 -6 0 4 12 13 15 15 23 7 28 -9 6 -9 10 1 16 11 7
10 9 -3 9 -15 0 -16 4 -8 25 7 17 6 25 -1 25 -8 0 -8 4 0 14 8 10 9 16 1 21
-6 4 -7 12 0 24 6 12 5 22 -3 31 -9 10 -9 11 1 6 13 -8 17 6 5 18 -4 3 -7 15
-8 26 -1 16 1 18 13 7 13 -10 14 -9 4 8 -6 13 -7 27 -1 37 6 11 5 19 -2 24 -8
5 -9 3 -4 -6 5 -9 4 -11 -3 -6 -17 10 -15 26 4 26 14 0 14 3 4 15 -11 13 -10
14 6 8 16 -6 17 -5 6 9 -10 13 -10 17 0 21 10 4 10 6 -1 6 -11 1 -11 4 0 18
11 13 11 17 1 21 -10 3 -10 7 0 20 10 12 10 14 1 8 -7 -4 -13 -2 -13 3 0 6 4
11 8 11 5 0 9 7 9 15 0 8 -4 15 -9 15 -5 0 -6 5 -3 11 11 17 11 79 0 79 -5 0
-4 4 4 9 11 7 11 9 0 13 -12 4 -12 8 -1 20 10 12 10 17 1 20 -9 3 -9 9 1 27 7
15 8 21 1 17 -12 -8 -12 -8 -15 46 -1 20 -5 40 -10 45 -5 4 -6 3 -3 -3 3 -6 0
-11 -8 -11 -11 0 -10 5 2 24 14 20 14 23 0 29 -9 3 -13 12 -11 19 3 7 0 16 -7
21 -8 5 -10 3 -4 -6 5 -9 4 -11 -4 -6 -8 5 -9 12 -2 19 9 12 -10 52 -20 42 -3
-2 -6 8 -7 22 -1 15 -8 30 -15 35 -9 6 -8 8 3 8 13 0 13 1 0 10 -8 5 -10 10
-5 10 6 0 2 5 -8 11 -9 6 -15 15 -11 20 3 6 -2 20 -13 32 -15 19 -16 20 0 8
22 -18 22 -10 -2 17 -10 12 -22 18 -26 14 -4 -4 -2 4 5 17 8 15 8 21 1 17 -6
-4 -11 0 -11 9 0 20 -25 46 -35 37 -5 -4 -5 1 -2 10 3 10 -1 25 -11 35 -9 11
-12 12 -7 3 9 -13 8 -13 -8 -1 -14 11 -15 16 -5 29 10 13 10 14 1 8 -12 -6
-18 4 -14 26 0 4 -7 4 -16 1 -11 -4 -14 -3 -9 5 4 6 -3 21 -14 32 -12 12 -18
26 -13 33 4 8 1 7 -10 -1 -14 -12 -16 -11 -12 8 3 17 0 20 -12 16 -14 -6 -14
-4 -2 11 9 11 10 14 2 9 -8 -4 -13 -2 -13 4 0 6 -4 8 -10 5 -5 -3 -10 1 -10
10 0 19 -25 47 -34 38 -3 -4 -6 4 -6 16 0 17 -4 21 -16 17 -8 -3 -12 -2 -9 4
3 6 1 10 -4 10 -6 0 -11 7 -11 16 0 10 -5 14 -16 10 -8 -3 -13 -2 -10 3 7 10
-39 62 -48 54 -3 -4 -6 1 -6 10 0 16 -12 22 -34 18 -5 -1 -4 4 3 12 9 12 8 16
-5 21 -9 3 -19 4 -24 1 -4 -3 -6 5 -3 17 4 19 3 20 -6 8 -9 -13 -11 -12 -11 3
0 10 -4 15 -10 12 -9 -6 -14 8 -11 28 1 7 -15 11 -33 8 -5 -1 -3 5 4 14 7 8
10 18 6 22 -3 3 -6 1 -6 -5 0 -6 -7 -9 -15 -6 -8 3 -14 9 -13 12 0 4 0 14 -1
22 -1 13 -2 13 -11 0 -8 -12 -10 -10 -10 9 0 24 0 24 -15 5 -13 -16 -14 -17
-9 -1 6 16 -27 57 -46 57 -4 0 -10 10 -13 22 -4 12 -9 19 -13 16 -9 -10 -37
20 -29 31 3 6 -4 8 -15 6 -15 -3 -20 2 -21 18 0 12 -3 17 -5 10 -4 -8 -11 -7
-24 4 -10 9 -17 20 -14 25 3 4 -1 5 -9 2 -8 -3 -18 0 -23 7 -5 8 -3 10 7 5 8
-4 5 0 -5 8 -11 9 -25 16 -31 16 -6 0 -17 9 -25 19 -7 11 -17 18 -22 15 -5 -3
-8 -2 -7 3 3 18 -2 33 -11 33 -5 0 -7 -8 -3 -17 5 -15 3 -14 -10 2 -9 11 -17
27 -17 35 -1 11 -3 11 -7 2 -3 -9 -10 -7 -24 9 -10 12 -19 18 -19 13 0 -5 -6
-2 -13 6 -7 8 -21 20 -32 27 -11 6 -19 17 -17 24 2 9 -1 9 -13 -1 -14 -11 -16
-11 -13 1 2 8 -3 13 -11 11 -8 -2 -11 3 -8 12 4 10 1 13 -9 9 -9 -3 -14 1 -14
12 0 13 -6 16 -24 13 -20 -4 -24 -1 -21 14 4 17 2 18 -12 6 -12 -9 -15 -9 -9
0 4 7 2 12 -4 12 -6 0 -8 5 -5 11 4 6 0 9 -8 7 -9 -2 -16 2 -17 7 -1 6 -12 16
-26 23 -25 13 -24 32 2 32 9 0 12 5 8 12 -5 8 -2 9 9 5 11 -4 17 -1 17 9 0 8
4 13 9 10 5 -3 12 2 15 11 6 15 8 15 16 3 8 -13 10 -12 10 3 0 15 3 16 22 6
18 -10 20 -9 14 7 -6 18 -5 18 9 0 8 -11 15 -14 15 -8 0 9 5 10 19 3 15 -8 20
-7 26 7 6 16 7 16 21 -2 10 -14 14 -16 14 -5 0 12 2 12 10 -1 8 -13 10 -12 10
3 0 10 5 15 10 12 6 -4 8 -9 6 -13 -2 -4 7 -7 20 -7 17 0 23 4 19 14 -4 10 1
9 15 -4 14 -13 20 -14 20 -5 0 7 3 10 7 7 3 -4 13 -1 21 6 10 8 13 8 9 1 -4
-7 0 -14 8 -17 10 -4 12 -1 8 10 -4 11 -2 14 8 11 8 -3 13 -12 11 -19 -2 -11
1 -10 10 1 11 13 31 18 41 10 9 -7 36 -6 31 1 -3 5 -10 6 -16 3 -7 -4 -8 -2
-4 4 5 9 13 9 26 2 25 -13 33 -13 24 2 -5 7 -3 8 7 2 21 -13 39 -14 39 -2 0 6
6 5 15 -2 8 -7 15 -8 15 -3 0 11 41 10 60 -2 10 -6 12 -4 6 10 -6 18 -6 18 15
-1 12 -10 19 -14 16 -7 -4 6 -3 14 3 18 5 3 10 2 10 -3 0 -5 10 -8 23 -6 12 1
26 3 30 3 5 1 5 5 2 11 -3 6 1 7 9 4 9 -3 13 -11 10 -18 -3 -6 1 -3 9 7 15 18
15 18 20 0 3 -13 5 -14 6 -2 1 11 10 15 33 13 18 -1 39 3 47 9 12 10 14 8 8
-8 -7 -20 -7 -20 8 -1 8 11 15 15 15 9 0 -15 33 -10 38 5 5 16 22 15 18 0 -1
-7 -1 -10 1 -5 3 4 11 7 19 7 9 0 12 5 8 12 -5 8 -3 8 7 2 22 -14 62 -12 80 3
14 11 18 11 29 -2 11 -13 15 -13 21 -3 5 7 13 14 19 14 5 1 11 2 13 4 7 6 36
7 33 1 -3 -4 4 -7 15 -7 11 0 18 5 15 13 -3 7 1 10 10 6 8 -3 20 -1 27 3 6 5
42 9 79 9 36 0 64 3 62 7 -3 5 -10 5 -16 2 -7 -4 -8 -2 -4 5 4 6 12 8 18 5 6
-4 15 0 20 7 8 11 9 11 5 -1 -3 -10 2 -16 13 -16 10 0 16 5 13 10 -4 5 1 7 10
3 10 -3 17 -2 17 4 0 6 8 5 21 -2 13 -7 19 -7 15 -1 -3 6 -2 13 4 17 5 3 10 1
10 -6 0 -9 4 -9 15 1 8 6 19 9 25 5 5 -3 10 -1 10 6 0 10 3 10 11 2 9 -9 15
-8 26 3 11 11 19 12 28 4 10 -8 15 -8 21 1 5 8 3 10 -7 4 -8 -5 -11 -4 -6 1 5
5 26 9 47 10 22 0 47 7 56 15 12 9 15 10 10 2 -4 -8 -1 -13 9 -13 10 0 13 5 9
12 -5 7 -2 9 8 5 9 -3 21 0 28 6 7 7 10 7 7 2 -3 -6 3 -11 13 -11 14 0 16 3 8
13 -15 18 -3 16 16 -3 15 -14 16 -13 16 8 0 18 2 20 10 8 9 -13 10 -13 10 0 0
9 3 11 8 5 9 -13 35 -18 27 -5 -4 6 5 10 20 10 18 0 24 4 19 13 -5 8 -2 8 9
-2 13 -11 20 -11 32 -1 8 6 19 9 25 5 5 -3 10 -1 10 5 0 7 6 10 14 7 20 -8 98
17 89 28 -4 5 1 3 11 -5 16 -12 18 -12 11 -1 -6 11 -3 13 13 9 12 -4 22 -3 22
2 0 4 18 6 41 5 23 -1 36 1 29 5 -15 9 -1 18 23 15 9 -2 17 2 17 8 0 8 3 7 9
-1 7 -11 9 -11 14 2 4 10 13 13 23 9 9 -3 20 0 26 8 7 10 11 11 14 2 8 -18 33
-4 27 15 -4 14 -3 14 5 3 9 -13 13 -13 28 0 14 11 16 11 10 1 -7 -11 -4 -12
13 -3 12 7 27 9 33 5 6 -4 8 -3 5 3 -8 13 22 22 62 19 26 -2 28 0 20 17 -9 16
-8 17 10 8 12 -7 22 -7 26 -2 3 6 15 8 26 6 14 -3 19 0 16 9 -4 9 2 12 19 10
13 -1 24 2 24 8 0 6 7 4 17 -3 15 -12 16 -12 10 5 -7 17 -6 17 10 5 9 -8 14
-9 10 -3 -4 7 0 15 9 18 10 4 13 2 8 -7 -5 -8 -2 -7 9 2 14 11 17 11 18 0 0
-8 5 -3 10 11 8 20 12 22 19 10 7 -11 10 -12 10 -2 0 7 4 11 9 8 5 -4 11 -2
13 4 2 6 21 13 42 15 22 3 45 10 52 16 7 6 19 7 25 3 8 -5 9 -3 4 6 -6 10 -4
12 8 7 8 -3 18 0 21 8 3 8 14 12 26 10 13 -3 18 0 14 7 -5 8 -1 9 10 5 10 -4
15 -3 11 3 -5 9 7 12 31 9 3 0 12 8 21 18 8 10 12 12 8 6 -3 -7 -1 -13 4 -13
6 0 11 5 11 11 0 5 4 8 9 5 5 -3 12 2 15 11 6 15 8 15 16 3 8 -12 10 -12 10
-1 0 9 7 11 21 8 16 -4 18 -3 9 8 -9 11 -6 13 14 11 14 -2 23 1 20 5 -3 5 4 9
15 9 11 0 24 8 29 17 6 9 17 18 26 19 9 1 13 -2 10 -8 -3 -5 7 -2 22 6 50 28
68 40 81 56 11 13 12 12 7 -5 -6 -18 -5 -17 10 3 17 22 43 32 30 10 -4 -7 -3
-8 5 -4 6 4 9 12 6 17 -4 5 -1 9 5 9 6 0 8 5 4 13 -5 8 -2 8 9 -2 11 -8 17 -9
17 -3 0 6 7 9 15 6 11 -5 13 -2 9 9 -4 12 -1 15 15 12 12 -2 19 0 16 4 -2 5 3
15 12 22 12 10 14 10 9 2 -4 -7 -3 -13 1 -13 5 0 14 9 21 21 9 14 19 18 34 13
14 -4 18 -3 13 6 -4 7 1 13 14 17 11 3 18 10 15 15 -4 6 2 8 15 3 12 -4 20 -2
19 3 -2 6 1 10 6 10 5 0 13 7 18 16 5 9 18 16 29 16 11 0 17 5 14 10 -3 6 1
10 9 10 9 0 16 5 16 11 0 8 4 8 15 -1 12 -10 14 -8 10 9 -2 11 -1 20 3 20 19
-3 33 2 28 10 -3 4 6 7 19 5 14 -1 23 2 19 7 -3 5 -10 6 -16 3 -7 -4 -8 -2 -4
5 4 6 12 9 17 6 5 -4 9 -1 9 5 0 6 5 8 10 5 6 -3 10 4 10 16 0 22 0 22 15 3
14 -19 14 -19 10 2 -2 15 2 21 13 20 10 0 16 5 14 13 -2 9 3 11 15 7 9 -4 14
-4 11 0 -9 9 15 33 26 26 5 -3 7 2 3 11 -4 12 -2 14 10 10 11 -4 14 -2 9 5 -7
11 6 17 28 13 5 -1 3 6 -4 16 -8 10 -11 15 -6 11 11 -9 48 10 41 21 -7 13 22
34 36 25 8 -4 9 -3 5 4 -4 6 5 21 19 34 14 12 23 28 21 35 -3 7 1 10 10 6 9
-3 14 1 14 11 0 9 7 19 15 22 12 5 13 9 4 20 -9 12 -9 13 3 9 8 -3 21 2 29 11
12 16 12 17 -1 10 -8 -4 -4 2 10 13 23 19 21 27 -5 21 -5 -1 -6 2 -2 7 12 11
31 11 40 -2 4 -5 5 2 3 18 -3 19 0 27 10 27 8 0 13 4 10 9 -3 5 1 11 9 15 8 3
12 12 9 21 -4 8 1 17 10 21 9 3 13 10 10 15 -3 5 0 9 6 9 7 0 9 7 6 15 -3 9 0
18 7 21 19 7 19 1884 1 1884 -7 0 -11 9 -9 20 2 11 -1 22 -6 25 -5 4 -6 11 -3
17 4 7 2 8 -4 4 -11 -7 -17 11 -13 42 1 7 -4 11 -11 10 -6 -2 -12 4 -13 12 0
25 -25 61 -37 54 -8 -5 -9 -1 -5 11 5 11 0 23 -13 35 -11 9 -16 21 -12 25 4 5
-2 5 -12 1 -17 -6 -17 -5 -5 11 9 11 10 14 2 9 -9 -4 -13 -1 -13 9 0 11 -5 15
-14 12 -10 -4 -12 0 -9 14 4 14 1 18 -10 13 -10 -4 -15 0 -14 13 1 10 -3 17
-9 16 -7 -1 -20 7 -30 19 -11 12 -13 18 -6 14 6 -4 12 -2 12 3 0 6 -5 11 -11
11 -5 0 -7 5 -3 12 5 8 2 9 -9 5 -11 -4 -17 -1 -17 8 0 8 -8 15 -17 15 -13 0
-15 3 -5 8 9 6 5 12 -13 22 -14 7 -25 17 -25 22 0 4 -6 8 -14 8 -8 0 -18 9
-21 20 -3 11 -13 20 -21 20 -8 0 -14 4 -14 9 0 5 -15 19 -34 32 -19 13 -32 27
-30 31 3 4 -2 8 -10 8 -9 0 -16 5 -16 11 0 5 -4 8 -9 5 -5 -3 -12 1 -15 10 -4
9 -13 14 -21 10 -8 -3 -14 0 -12 7 1 7 -4 11 -10 10 -12 -3 -17 10 -14 30 1 5
-3 6 -9 2 -5 -3 -10 -1 -10 4 0 6 -9 11 -19 11 -11 0 -26 9 -34 20 -8 11 -17
17 -20 13 -4 -3 -7 1 -7 11 0 9 -4 14 -10 11 -5 -3 -10 -2 -10 4 0 6 -7 7 -17
4 -10 -4 -14 -2 -9 5 3 6 -3 13 -14 17 -11 3 -20 12 -20 18 0 7 -4 6 -10 -3
-8 -13 -10 -12 -10 3 0 9 -7 17 -15 17 -9 0 -18 6 -21 14 -3 9 -12 12 -22 9
-11 -5 -14 -2 -10 9 5 11 0 14 -18 12 -13 -1 -24 2 -24 7 0 5 -7 9 -16 9 -8 0
-12 5 -9 10 3 6 -3 10 -15 10 -12 0 -18 5 -15 10 3 6 -3 10 -15 10 -14 0 -19
4 -14 13 5 7 0 6 -11 -3 -11 -9 -16 -10 -11 -2 4 7 2 12 -4 12 -6 0 -18 7 -27
15 -8 8 -19 13 -24 10 -5 -4 -9 -1 -9 5 0 6 -4 8 -10 5 -5 -3 -10 0 -10 7 0 9
-3 9 -10 -2 -8 -13 -10 -12 -10 3 0 17 -15 24 -23 10 -2 -5 -3 -3 -1 4 4 18
-7 23 -27 13 -15 -9 -17 -7 -14 11 4 17 2 19 -10 9 -12 -10 -15 -10 -15 0 0 7
-7 10 -15 6 -9 -3 -24 3 -35 14 -11 11 -20 16 -20 10 0 -5 -4 -10 -10 -10 -5
0 -7 6 -4 14 3 8 0 17 -7 22 -8 5 -10 3 -4 -7 7 -12 6 -12 -7 -1 -8 7 -23 9
-32 6 -11 -4 -16 -2 -14 7 2 9 -4 13 -16 11 -12 -2 -16 1 -10 10 4 7 4 10 -1
6 -4 -4 -13 -4 -19 1 -7 6 -25 12 -41 15 -15 3 -32 11 -36 17 -4 7 -15 9 -24
5 -12 -4 -16 -2 -12 7 3 8 -1 14 -9 14 -7 0 -11 -4 -8 -9 3 -4 1 -8 -4 -8 -6
0 -13 7 -16 16 -3 8 -11 12 -16 9 -6 -4 -17 -2 -24 4 -7 6 -25 12 -39 13 -20
2 -23 5 -15 15 8 10 7 12 -6 7 -9 -3 -24 0 -33 7 -9 8 -14 9 -11 4 4 -6 -2
-11 -12 -11 -15 0 -17 4 -8 21 10 18 10 19 -5 6 -10 -7 -17 -9 -17 -4 0 5 -13
9 -30 8 -21 -1 -27 2 -21 9 7 8 0 12 -22 13 -17 0 -33 6 -35 11 -2 6 -10 8
-18 5 -8 -3 -14 1 -14 8 0 11 -3 11 -10 -1 -8 -12 -10 -12 -10 5 0 11 -4 16
-8 10 -4 -5 -13 -11 -21 -13 -12 -3 -12 0 -1 13 11 13 10 15 -4 9 -9 -3 -16
-1 -16 5 0 9 -5 9 -20 1 -16 -8 -20 -8 -18 2 2 8 -5 12 -16 10 -13 -2 -16 1
-10 10 6 10 3 9 -10 -1 -15 -12 -17 -12 -14 0 2 9 -4 13 -16 11 -12 -2 -16 1
-10 9 5 9 2 10 -9 6 -9 -3 -23 1 -32 9 -11 12 -15 12 -15 2 0 -10 -3 -9 -10 2
-5 8 -10 29 -10 45 0 17 -6 37 -12 44 -11 10 -10 11 3 6 13 -5 15 -1 12 19 -3
14 -10 26 -17 26 -6 0 -3 5 7 11 13 8 15 14 7 29 -7 13 -6 20 3 23 9 4 9 6 0
6 -7 1 -13 6 -13 12 0 5 5 7 11 3 8 -4 8 -1 1 12 -5 11 -7 25 -4 33 3 9 0 11
-9 7 -8 -4 -6 -1 3 7 10 8 16 16 14 18 -10 11 -11 119 -2 123 7 3 7 5 1 5 -6
1 -9 42 -8 106 1 58 -2 103 -6 101 -4 -3 -8 1 -8 8 0 8 7 12 16 9 11 -3 10 0
-3 11 -18 14 -15 21 7 17 4 -1 3 7 -3 18 -13 24 -13 34 -1 26 6 -3 7 6 2 22
-4 16 -7 67 -6 115 1 60 -2 85 -9 80 -6 -3 -3 6 7 21 14 22 14 25 2 21 -13 -5
-14 -2 -5 20 8 21 7 26 -6 26 -8 0 -12 5 -9 10 4 6 10 8 14 6 4 -3 7 8 6 24 0
15 -3 26 -7 23 -5 -2 -8 3 -8 12 0 9 4 14 8 11 5 -3 8 8 8 24 0 16 -3 27 -7
25 -4 -3 -9 4 -12 15 -3 11 -1 18 4 14 5 -3 9 0 9 5 0 6 -8 11 -17 12 -15 0
-15 2 2 9 11 5 14 9 7 9 -7 1 -10 6 -7 11 3 6 1 10 -4 10 -6 0 -11 9 -11 20 0
11 -5 20 -11 20 -8 0 -7 5 1 15 7 9 10 18 6 22 -3 3 -6 1 -6 -7 0 -10 -3 -10
-14 0 -9 7 -13 23 -11 41 3 24 1 28 -9 20 -9 -8 -13 -7 -13 4 0 8 5 15 10 15
5 0 -1 9 -14 20 -13 10 -20 19 -16 20 4 0 2 10 -4 23 -10 19 -10 21 2 12 8 -5
7 -3 -2 6 -14 13 -15 19 -6 29 7 7 8 10 2 8 -5 -3 -16 0 -23 8 -8 9 -9 14 -2
14 7 0 6 5 -2 14 -7 8 -17 12 -21 9 -5 -3 -4 4 3 17 10 19 9 22 -9 27 -13 3
-20 12 -19 22 2 10 -6 17 -22 20 -23 3 -24 4 -5 12 17 6 17 8 3 8 -16 1 -23
12 -19 34 1 7 -15 11 -32 8 -10 -1 -4 22 8 32 6 5 4 7 -5 6 -31 -3 -39 1 -33
18 5 12 2 15 -9 10 -12 -4 -15 0 -13 19 2 20 -1 23 -18 18 -12 -4 -17 -2 -13
4 3 6 -5 22 -19 36 -14 14 -25 29 -25 34 0 5 -8 16 -17 23 -17 13 -17 13 -3
-6 14 -19 14 -19 -3 -6 -11 9 -16 22 -13 34 3 14 2 17 -6 9 -7 -7 -17 -4 -34
13 -13 13 -24 29 -24 35 0 6 -4 8 -10 5 -5 -3 -10 -1 -10 5 0 6 -5 8 -12 4 -6
-4 -8 -3 -5 2 3 6 2 16 -4 24 -6 11 -9 11 -9 2 0 -10 -3 -10 -14 0 -8 7 -11
17 -8 22 3 5 -3 6 -12 3 -14 -6 -17 -3 -12 8 4 11 2 14 -6 9 -6 -4 -22 5 -36
22 -13 16 -21 23 -18 17 5 -9 2 -11 -8 -7 -9 3 -16 13 -16 21 0 12 -3 13 -14
4 -11 -9 -16 -9 -22 0 -4 8 -3 9 4 5 17 -10 15 3 -3 20 -11 11 -15 12 -15 3 0
-7 -6 -5 -13 6 -8 10 -19 15 -25 11 -7 -4 -12 0 -12 10 0 10 -3 14 -6 11 -4
-4 -15 2 -25 14 -12 14 -18 16 -22 7 -3 -8 -6 -6 -6 5 -1 10 -5 15 -11 12 -5
-3 -10 -1 -10 4 0 6 -8 11 -18 11 -11 0 -24 10 -31 23 -6 12 -9 14 -7 5 4 -12
1 -15 -10 -11 -7 3 -14 11 -14 18 0 9 -8 11 -22 7 -14 -3 -19 -2 -14 6 4 7 1
12 -9 12 -10 0 -13 5 -9 13 5 7 0 6 -11 -3 -11 -9 -16 -10 -11 -2 4 7 1 12 -8
12 -9 0 -16 5 -16 11 0 5 -4 7 -10 4 -5 -3 -10 -1 -10 5 0 6 -4 8 -10 5 -5 -3
-10 -1 -10 5 0 6 -4 9 -9 6 -5 -3 -12 1 -15 10 -3 9 -13 14 -21 10 -8 -3 -19
3 -25 13 -6 13 -17 17 -30 14 -12 -3 -20 0 -20 6 0 7 4 10 8 7 5 -3 9 1 9 9 0
8 -5 11 -11 7 -14 -8 -29 -9 -36 -2 -3 3 -16 11 -29 18 -19 11 -22 11 -16 0 3
-7 -3 -2 -14 11 -20 22 -26 20 -21 -4 1 -5 -8 0 -20 13 -21 23 -36 30 -25 12
3 -6 -1 -7 -9 -4 -9 3 -13 11 -9 16 4 7 -4 9 -21 6 -17 -4 -26 -1 -26 8 0 17
-21 23 -44 12 -13 -7 -16 -7 -12 1 8 12 -37 26 -53 16 -6 -3 -11 1 -11 11 0
14 -2 15 -16 3 -15 -12 -16 -11 -11 11 4 14 4 19 1 13 -7 -16 -34 -17 -34 -2
0 8 -4 8 -14 0 -17 -14 -31 2 -20 22 6 9 4 9 -7 1 -15 -12 -49 -15 -49 -4 0 3
-10 6 -22 7 -11 1 -25 8 -29 15 -7 10 -9 10 -9 -2 0 -9 -3 -11 -8 -5 -4 6 -16
12 -27 13 -11 2 -23 9 -27 15 -5 8 -8 7 -8 -3 0 -13 -1 -13 -10 0 -6 9 -21 14
-40 12 -18 -2 -30 1 -30 8 0 7 -8 10 -20 7 -11 -3 -20 -1 -20 4 0 6 -10 5 -22
-2 -18 -10 -20 -9 -14 6 5 15 4 16 -9 5 -12 -10 -15 -10 -15 2 0 11 -12 14
-50 13 -27 -1 -48 1 -45 5 2 4 -12 7 -32 8 -20 1 -40 7 -45 14 -6 10 -8 10 -8
-1 0 -11 -3 -11 -17 0 -15 12 -16 12 -8 -1 6 -12 5 -13 -5 -3 -10 9 -18 9 -34
1 -19 -10 -20 -10 -7 6 8 9 11 19 7 23 -3 3 -6 1 -6 -5 0 -7 -7 -12 -16 -12
-9 0 -12 5 -8 12 5 7 3 8 -7 3 -16 -11 -49 -14 -49 -6 0 4 -11 8 -26 9 -18 1
-23 -2 -18 -11 5 -7 1 -6 -10 2 -15 13 -19 13 -28 0 -8 -11 -9 -11 -4 4 6 20
-5 22 -23 5 -7 -7 -12 -8 -11 -3 5 22 -1 29 -11 15 -8 -11 -12 -12 -16 -2 -2
6 -9 12 -14 12 -6 0 -7 -5 -3 -12 5 -8 3 -8 -7 -2 -8 5 -23 9 -34 9 -11 0 -26
4 -32 8 -7 5 -13 4 -13 -1 0 -9 -101 1 -119 12 -5 4 -12 2 -16 -4 -4 -6 -12
-7 -18 -3 -21 13 -68 13 -60 0 5 -9 2 -8 -8 0 -12 10 -18 10 -29 0 -7 -6 -10
-7 -7 -1 4 7 -23 11 -88 12 -52 0 -99 3 -105 7 -5 3 -10 2 -10 -3 0 -5 -17 -6
-40 -2 -26 5 -41 3 -44 -4 -3 -7 -8 -6 -15 4 -7 10 -11 11 -11 3 0 -9 -7 -10
-26 -3 -23 9 -25 8 -20 -6 5 -13 4 -14 -7 -6 -7 6 -43 10 -85 8 -41 -2 -75 1
-79 7 -3 6 -12 2 -20 -8 -8 -12 -13 -14 -13 -5 0 9 -6 8 -20 -5 -20 -18 -21
-18 -14 1 7 17 6 17 -9 5 -12 -10 -17 -10 -17 -2 0 8 -6 7 -16 -3 -17 -18 -28
-21 -19 -6 8 13 -1 13 -26 0 -14 -8 -19 -7 -19 1 0 7 -9 6 -24 -5 -18 -11 -27
-13 -32 -4 -5 7 -3 8 6 3 9 -5 11 -4 6 4 -5 8 -12 9 -19 3 -7 -5 -20 -8 -29
-7 -10 2 -18 -2 -18 -8 0 -8 -3 -8 -8 -2 -4 6 -19 11 -34 12 -20 1 -25 -2 -21
-14 5 -13 3 -13 -15 -4 -26 14 -35 14 -27 1 3 -5 -1 -10 -10 -10 -10 0 -13 5
-9 13 5 8 2 7 -9 -2 -10 -8 -20 -11 -24 -8 -3 4 -13 1 -21 -6 -13 -10 -14 -9
-8 1 7 11 4 12 -12 3 -26 -14 -35 -14 -27 -1 3 6 -1 7 -9 4 -9 -3 -13 -11 -9
-18 4 -6 -1 -5 -10 3 -15 12 -17 11 -17 -5 0 -17 -1 -17 -16 2 -8 10 -13 14
-10 8 3 -7 -1 -15 -10 -18 -12 -5 -15 -2 -10 11 6 16 5 15 -13 -1 -12 -11 -21
-13 -25 -7 -9 14 -38 2 -29 -13 3 -6 -4 -2 -16 8 -21 19 -21 19 -15 1 5 -13 4
-16 -5 -11 -6 4 -18 2 -26 -4 -12 -10 -18 -10 -30 0 -10 8 -15 9 -15 2 0 -7
-19 -10 -51 -8 -29 2 -46 1 -40 -4 10 -5 9 -9 -3 -13 -8 -3 -18 -1 -22 5 -5 7
-11 5 -20 -6 -8 -12 -14 -14 -19 -6 -5 8 -11 7 -23 -2 -13 -11 -15 -11 -8 2 4
8 0 6 -8 -4 -9 -11 -16 -15 -16 -10 0 5 -9 10 -19 10 -14 0 -17 -4 -10 -12 7
-8 -1 -9 -31 -4 -23 4 -43 3 -46 -2 -3 -5 -13 -7 -21 -3 -13 4 -14 3 -3 -10
16 -20 6 -19 -14 1 -15 14 -16 14 -16 -1 0 -9 -4 -13 -10 -10 -5 3 -19 1 -31
-6 -17 -9 -20 -8 -14 2 6 9 3 11 -9 6 -10 -4 -20 -7 -22 -7 -3 0 -3 -4 0 -8 3
-5 -1 -9 -9 -9 -8 0 -12 4 -10 8 4 6 -20 5 -35 -2 -7 -3 -23 -7 -38 -8 -7 0
-10 -6 -6 -13 5 -7 3 -8 -7 -2 -20 12 -40 14 -33 3 3 -5 10 -6 16 -3 6 4 9 3
5 -2 -3 -5 -29 -9 -59 -8 -29 0 -47 -1 -40 -4 10 -3 8 -7 -5 -17 -12 -9 -23
-10 -35 -4 -14 8 -18 6 -18 -8 0 -15 -2 -15 -16 3 -8 10 -13 14 -10 9 2 -6 1
-17 -5 -25 -7 -12 -9 -12 -9 -1 0 11 -3 11 -15 1 -8 -7 -15 -9 -15 -5 0 4 -6
2 -13 -4 -8 -6 -17 -8 -20 -4 -4 3 -7 1 -7 -5 0 -7 -5 -12 -11 -12 -5 0 -7 6
-3 13 4 6 -2 4 -13 -5 -11 -10 -27 -18 -37 -18 -10 0 -14 -5 -10 -12 5 -7 3
-8 -7 -3 -20 13 -49 13 -56 2 -4 -6 -1 -7 7 -2 9 5 11 4 6 -4 -4 -6 -13 -11
-19 -10 -27 3 -38 -2 -31 -13 6 -10 4 -10 -8 0 -13 10 -17 10 -23 -5 -7 -17
-8 -17 -15 2 -8 18 -9 18 -9 2 -1 -10 -5 -15 -11 -12 -5 3 -10 1 -10 -4 0 -6
-5 -11 -11 -11 -5 0 -7 6 -3 13 4 6 -2 4 -14 -7 -14 -12 -31 -17 -47 -14 -21
4 -23 3 -14 -9 10 -11 8 -12 -6 -7 -12 5 -16 4 -12 -3 4 -7 0 -10 -10 -8 -10
1 -24 -3 -32 -9 -12 -9 -13 -8 -6 3 6 10 4 12 -4 7 -7 -5 -10 -15 -6 -25 5
-13 4 -14 -6 -3 -18 17 -27 15 -32 -5 -4 -17 -5 -17 -6 0 0 10 -6 15 -11 12
-6 -4 -7 -12 -3 -18 4 -7 -1 -6 -11 2 -9 8 -16 10 -15 5 4 -21 -2 -26 -17 -14
-8 8 -14 9 -13 4 4 -21 -2 -26 -16 -14 -13 11 -14 10 -10 -2 4 -9 0 -15 -10
-15 -8 0 -15 5 -16 11 0 6 -4 1 -9 -11 -7 -16 -14 -20 -31 -16 -14 4 -20 2
-16 -4 5 -7 -1 -9 -15 -5 -21 5 -22 4 -8 -13 14 -17 14 -18 -4 -8 -21 12 -76
-2 -76 -19 0 -5 -4 -7 -9 -4 -5 4 -11 0 -14 -6 -3 -10 -7 -10 -20 0 -13 11
-15 10 -10 -10 3 -13 1 -19 -4 -12 -6 7 -15 7 -30 -1 -13 -7 -21 -14 -18 -16
2 -3 -5 -5 -16 -6 -12 -1 -17 3 -13 10 3 7 -1 4 -10 -7 -8 -10 -20 -15 -27
-10 -8 5 -10 3 -4 -6 6 -10 4 -12 -9 -7 -9 4 -15 3 -12 -2 7 -11 -17 -21 -47
-21 -18 0 -19 -2 -7 -10 16 -10 6 -13 -43 -13 -13 0 -16 -4 -12 -15 3 -9 3
-13 -1 -9 -4 4 -14 1 -22 -6 -13 -10 -15 -9 -8 3 4 8 0 6 -8 -4 -9 -11 -16
-16 -16 -12 0 5 -7 3 -15 -4 -8 -6 -20 -8 -26 -4 -8 5 -9 3 -4 -6 6 -10 4 -12
-9 -7 -11 5 -15 3 -10 -5 5 -8 2 -9 -9 -5 -9 3 -16 3 -16 -1 3 -19 -2 -25 -11
-12 -6 10 -10 11 -10 3 0 -7 -7 -13 -16 -13 -9 0 -12 -5 -8 -11 4 -7 1 -10 -6
-7 -8 2 -22 -4 -33 -15 -10 -10 -25 -16 -32 -13 -7 2 -16 -2 -19 -10 -3 -8
-13 -14 -21 -14 -10 0 -13 -5 -9 -12 4 -6 3 -8 -3 -5 -12 7 -63 -14 -63 -26 0
-5 -4 -6 -9 -3 -5 3 -12 -1 -15 -10 -4 -9 -13 -14 -21 -10 -8 3 -15 1 -15 -5
0 -6 -4 -7 -10 -4 -5 3 -10 -1 -10 -10 0 -10 -5 -13 -12 -9 -6 4 -17 -1 -24
-10 -7 -10 -16 -18 -21 -19 -4 -1 -7 -7 -5 -13 1 -7 -8 -10 -22 -9 -18 2 -23
-1 -19 -11 3 -10 0 -12 -10 -8 -8 3 -18 0 -23 -7 -5 -8 -3 -10 6 -4 9 6 11 4
5 -4 -4 -7 -15 -11 -25 -8 -14 3 -17 1 -13 -11 4 -10 2 -13 -5 -8 -7 4 -12 2
-12 -4 0 -6 -4 -8 -10 -5 -5 3 -10 1 -10 -5 0 -6 -5 -8 -10 -5 -6 4 -9 3 -8
-2 2 -4 -1 -9 -5 -10 -4 -1 -17 -12 -28 -25 -17 -21 -19 -21 -14 -3 5 16 3 15
-6 -3 -8 -15 -18 -21 -28 -17 -8 3 -12 3 -9 -1 11 -10 -51 -64 -74 -64 -10 0
-16 -4 -13 -10 6 -9 -1 -12 -22 -9 -3 0 -10 -6 -15 -15 -5 -9 -14 -13 -20 -10
-6 4 -8 3 -5 -3 4 -6 -3 -13 -14 -16 -14 -4 -20 -11 -16 -20 3 -9 -1 -14 -11
-13 -9 0 -16 -4 -15 -10 1 -6 -7 -11 -19 -10 -12 0 -23 -6 -25 -14 -4 -13 -3
-13 7 0 10 13 11 13 7 0 -2 -8 -8 -15 -13 -15 -17 0 -75 -49 -70 -60 2 -7 -2
-12 -10 -12 -7 0 -10 5 -7 10 3 6 1 7 -5 3 -7 -4 -12 -14 -12 -22 0 -8 -7 -14
-16 -14 -8 0 -12 -4 -9 -10 3 -5 -4 -10 -16 -10 -19 0 -20 -2 -8 -17 12 -15
12 -16 -3 -10 -12 4 -18 2 -18 -7 0 -8 -8 -13 -17 -12 -10 0 -23 -11 -30 -26
-8 -15 -22 -30 -33 -33 -11 -4 -20 -13 -20 -21 0 -8 -7 -14 -16 -14 -10 0 -14
-6 -11 -15 4 -8 1 -17 -5 -21 -7 -4 -8 -3 -4 4 4 7 2 12 -3 12 -6 0 -11 -9
-11 -20 0 -11 -5 -20 -11 -20 -5 0 -7 6 -3 13 4 6 -2 3 -14 -7 -12 -11 -22
-26 -22 -35 0 -14 -2 -14 -10 -1 -8 13 -10 13 -10 -2 0 -9 -5 -20 -12 -24 -7
-5 -8 -3 -3 6 5 8 4 11 -3 6 -6 -3 -9 -15 -7 -26 2 -13 -1 -17 -11 -13 -7 3
-17 -2 -20 -11 -3 -9 -10 -13 -16 -10 -5 3 -8 -1 -6 -10 2 -9 -8 -22 -22 -29
-14 -8 -24 -19 -23 -25 2 -6 -6 -9 -17 -7 -13 2 -17 -1 -13 -11 3 -8 -5 -17
-21 -24 -29 -11 -36 -22 -8 -14 13 4 12 2 -3 -7 -25 -16 -35 -31 -28 -42 3 -5
0 -8 -8 -5 -17 6 -39 -15 -39 -36 0 -10 -6 -13 -15 -10 -11 4 -13 2 -9 -9 3
-8 0 -18 -7 -23 -8 -4 -10 -3 -5 4 4 7 5 12 1 12 -3 0 -10 -12 -15 -26 -7 -16
-14 -23 -22 -18 -8 5 -7 0 2 -11 9 -11 10 -16 2 -11 -7 4 -19 1 -27 -8 -18
-17 -20 -30 -3 -20 7 5 8 3 4 -5 -5 -7 -14 -10 -22 -7 -8 3 -14 1 -14 -5 0 -6
-5 -7 -12 -3 -7 4 -8 3 -4 -5 4 -6 13 -8 19 -5 7 4 -6 -11 -28 -31 -22 -21
-34 -35 -27 -31 6 4 12 2 12 -5 0 -6 -8 -9 -19 -6 -15 4 -19 0 -16 -14 3 -12
-2 -19 -12 -19 -10 0 -13 -6 -9 -16 5 -14 4 -15 -9 -4 -13 11 -14 10 -10 -2 4
-9 -11 -33 -39 -62 -26 -26 -46 -51 -46 -56 0 -5 -5 -12 -12 -16 -7 -5 -8 -2
-3 7 5 8 4 11 -1 6 -5 -5 -9 -12 -10 -15 -2 -20 -17 -41 -25 -36 -5 3 -9 -2
-9 -10 0 -8 -9 -20 -20 -26 -11 -6 -20 -17 -20 -26 0 -8 -7 -17 -15 -20 -8 -4
-13 -10 -10 -14 12 -19 -15 -19 -28 0 -7 11 -17 17 -21 12 -5 -4 -6 2 -4 13 1
11 -2 19 -8 18 -6 -1 -11 4 -11 11 0 8 8 12 21 9 13 -3 17 -1 10 4 -6 4 -16
23 -22 40 -9 28 -8 34 6 43 16 9 16 9 -1 10 -10 0 -15 5 -12 10 4 6 11 8 16 5
5 -3 6 1 3 9 -3 9 -11 13 -18 9 -6 -4 -5 1 3 10 7 9 10 17 5 17 -5 0 -9 15 -9
34 0 19 3 32 8 29 4 -2 7 1 7 6 0 6 -5 11 -11 11 -5 0 -7 5 -3 12 12 19 12 68
1 61 -6 -4 -8 0 -4 9 3 9 0 21 -6 28 -7 7 -7 10 -1 7 11 -6 10 116 -1 161 -4
17 -2 22 7 17 7 -4 4 1 -6 9 -12 10 -15 16 -7 16 7 0 11 6 8 15 -4 8 -2 17 4
21 7 4 6 10 0 18 -6 7 -7 17 -3 21 4 5 1 5 -5 1 -7 -4 -13 -2 -13 3 0 6 6 11
13 11 9 0 8 3 -2 9 -9 6 -12 25 -10 65 2 31 1 56 -3 56 -3 0 -4 8 -1 19 3 10
0 22 -6 25 -14 9 -2 38 13 29 8 -4 8 -2 -1 7 -6 7 -9 18 -7 25 3 6 -2 18 -11
25 -17 14 -20 30 -4 30 5 0 7 -4 4 -10 -3 -5 -2 -10 4 -10 5 0 9 9 8 20 -1 13
-6 19 -16 15 -11 -4 -11 -2 -3 8 7 8 9 17 6 20 -4 4 -7 29 -7 57 0 30 -4 50
-11 50 -7 0 -7 3 -1 8 14 10 15 42 1 42 -6 0 -4 5 4 10 12 8 12 10 1 10 -11 0
-11 3 0 17 12 15 12 16 -3 10 -10 -3 -18 -2 -18 3 0 6 8 10 18 10 15 1 15 2 1
10 -13 7 -16 23 -14 70 2 35 -2 60 -7 60 -6 0 -4 8 3 17 12 15 12 16 -1 8 -13
-8 -13 -7 -1 8 7 9 10 17 5 17 -5 0 -10 21 -12 47 -2 26 -8 53 -14 60 -8 11
-7 12 8 7 18 -7 18 -7 1 13 -14 16 -15 23 -6 29 8 5 10 3 4 -6 -6 -9 -4 -11 5
-5 10 6 9 11 -4 21 -13 9 -14 13 -4 17 10 4 10 6 -1 6 -11 1 -11 4 0 18 10 11
10 14 2 9 -16 -9 -17 8 -1 37 10 19 9 20 -3 10 -13 -10 -15 -8 -13 17 1 17 -2
30 -7 30 -5 0 -9 5 -9 11 0 5 6 7 13 3 8 -5 8 -2 -2 9 -7 9 -10 17 -6 17 4 0
2 6 -4 13 -6 8 -8 17 -4 20 3 4 1 7 -5 7 -6 0 -9 9 -7 19 2 11 -3 25 -11 32
-11 9 -12 15 -3 25 9 11 8 14 -1 14 -6 0 -10 6 -7 13 2 6 -3 18 -12 25 -9 8
-10 11 -4 7 9 -4 12 2 11 19 -2 20 -5 23 -17 13 -12 -10 -13 -8 -6 12 5 16 4
21 -4 17 -8 -5 -8 0 -1 20 10 25 9 26 -7 13 -9 -8 -14 -9 -10 -2 4 6 1 14 -5
16 -10 4 -10 6 0 6 10 1 10 5 0 24 -7 12 -13 24 -14 27 -1 3 -5 15 -9 27 -4
13 -12 20 -19 16 -6 -4 -4 2 4 12 12 15 12 17 1 10 -11 -6 -13 -4 -8 9 4 10 3
15 -3 11 -6 -3 -10 -1 -10 5 0 6 -5 8 -12 4 -7 -4 -8 -3 -4 5 4 6 12 9 17 6 5
-4 9 -1 9 4 0 6 -7 11 -15 11 -9 0 -12 6 -8 17 5 12 2 15 -9 11 -8 -4 -15 -1
-15 8 0 7 5 11 11 8 6 -3 3 1 -7 9 -14 11 -15 16 -5 20 8 3 5 6 -7 6 -17 1
-17 3 -5 11 13 8 12 10 -4 10 -12 0 -16 5 -12 16 4 10 2 13 -6 8 -7 -5 -9 1
-6 19 5 24 3 25 -16 15 -19 -10 -20 -10 -7 5 12 15 11 17 -3 17 -14 0 -15 4
-5 21 6 12 7 19 1 15 -10 -6 -47 36 -43 49 1 3 -7 15 -19 25 -15 13 -17 19 -8
23 10 4 10 6 1 6 -7 1 -13 8 -13 17 0 9 -5 12 -12 8 -7 -5 -9 0 -6 14 3 12 3
21 -1 20 -19 -2 -31 3 -26 12 3 6 2 10 -3 10 -6 0 -13 7 -16 16 -3 8 -2 12 4
9 6 -3 10 -1 10 4 0 6 -9 11 -19 11 -10 0 -22 7 -25 16 -4 10 -2 13 7 9 6 -4
4 0 -5 8 -10 8 -14 18 -10 22 4 5 -1 5 -10 2 -13 -4 -15 -2 -11 10 4 11 2 14
-5 9 -8 -5 -10 -2 -6 8 4 11 0 16 -12 16 -16 0 -17 2 -4 10 12 8 11 10 -7 10
-16 0 -21 5 -18 20 3 18 -5 24 -27 22 -3 -1 -9 5 -12 14 -4 10 -2 13 7 8 6 -3
-1 6 -18 21 -16 14 -23 24 -15 20 8 -4 6 1 -5 9 -46 37 -55 46 -55 56 0 6 5 8
12 4 7 -4 8 -3 4 4 -4 6 -14 8 -23 5 -10 -4 -14 -2 -10 4 4 6 0 13 -8 17 -8 3
-15 12 -15 20 0 8 -9 17 -20 21 -11 3 -19 12 -17 18 1 7 -4 11 -10 9 -7 -1
-13 8 -13 20 0 12 -3 18 -6 15 -10 -10 -65 54 -57 67 4 6 -1 5 -10 -3 -15 -12
-17 -12 -11 4 5 12 4 16 -4 11 -6 -3 -13 3 -17 14 -3 11 -11 20 -16 20 -16 0
-59 47 -51 56 4 4 -1 4 -10 1 -14 -5 -18 -1 -18 15 0 17 -2 18 -15 8 -13 -11
-14 -10 -9 4 3 9 1 16 -6 16 -6 0 -8 4 -5 10 3 6 -1 7 -10 4 -11 -5 -14 -2 -9
10 4 11 2 15 -8 11 -18 -7 -42 20 -32 36 5 8 3 9 -6 4 -8 -5 -20 1 -32 16 -11
13 -16 17 -12 9 4 -8 -9 2 -29 24 -25 26 -42 36 -53 32 -14 -6 -15 -4 -4 9 7
9 9 15 4 14 -21 -4 -35 2 -29 11 3 6 1 10 -5 10 -6 0 -8 5 -4 12 4 7 3 8 -5 4
-6 -4 -9 -13 -5 -19 3 -7 -1 -4 -9 6 -8 9 -18 17 -22 17 -4 0 -21 13 -36 30
-16 16 -29 24 -29 17 -1 -6 -7 -1 -15 13 -9 15 -15 19 -15 10 0 -10 -5 -7 -13
8 -7 12 -16 19 -20 16 -4 -4 -7 1 -7 12 0 16 -2 17 -10 4 -6 -10 -10 -11 -10
-2 0 6 -7 12 -16 12 -8 0 -12 5 -9 10 5 9 -23 15 -47 11 -5 0 -8 6 -8 15 0 9
5 12 13 8 6 -4 8 -3 4 1 -11 13 -38 15 -31 3 5 -7 2 -8 -5 -4 -7 5 -10 15 -7
25 5 12 2 11 -9 -3 -13 -17 -15 -17 -15 -4 0 9 -5 20 -12 24 -7 5 -9 2 -4 -7
4 -8 0 -5 -8 5 -9 11 -16 16 -16 12 0 -5 -9 2 -21 15 -11 13 -18 18 -14 12 9
-19 -6 -16 -22 5 -8 9 -12 12 -9 6 3 -7 -9 -5 -29 4 -19 9 -35 20 -35 25 0 4
-4 5 -10 2 -5 -3 -10 -1 -10 4 0 6 -7 11 -15 11 -8 0 -15 6 -15 13 0 8 -4 7
-10 -3 -6 -10 -10 -11 -10 -2 0 6 -4 12 -10 12 -5 0 -19 8 -29 17 -11 9 -30
18 -42 20 -12 2 -28 11 -36 21 -14 16 -14 16 -9 -3 6 -19 5 -19 -8 -2 -10 14
-15 15 -19 5 -4 -9 -8 -6 -12 8 -4 13 -14 20 -28 19 -12 -1 -31 4 -43 12 -11
7 -24 10 -27 6 -4 -3 -7 2 -7 13 0 16 -2 17 -10 4 -9 -13 -12 -13 -25 4 -8 11
-21 16 -30 13 -9 -4 -15 -1 -15 8 0 8 -4 15 -10 15 -5 0 -7 -8 -3 -17 5 -16 4
-15 -9 1 -8 11 -20 16 -27 12 -6 -4 -14 0 -17 9 -5 13 -9 13 -22 3 -12 -10
-14 -10 -8 0 5 8 0 12 -15 12 -12 0 -28 8 -36 18 -14 16 -14 16 -8 -2 6 -19 5
-19 -13 -3 -10 9 -22 14 -25 10 -4 -3 -7 -1 -7 6 0 7 -4 10 -9 7 -4 -3 -17 1
-27 8 -13 10 -23 11 -31 4 -9 -7 -13 -7 -13 1 0 7 -4 10 -9 7 -5 -3 -12 1 -15
9 -4 13 -10 14 -26 5 -14 -8 -20 -8 -20 0 0 6 -4 9 -9 5 -5 -3 -12 -1 -16 5
-4 6 -11 7 -17 4 -6 -4 -14 0 -19 7 -7 12 -9 12 -9 0 0 -11 -3 -11 -15 -1 -12
10 -15 10 -15 -1 0 -12 -2 -12 -9 0 -5 8 -16 11 -24 8 -9 -3 -21 1 -28 9 -7 8
-18 13 -24 10 -7 -2 -18 1 -25 7 -10 9 -11 9 -6 0 4 -7 3 -13 -1 -13 -5 0 -15
6 -22 13 -11 10 -12 9 -6 -3 7 -12 6 -13 -7 -3 -8 7 -19 9 -23 5 -5 -4 -5 -1
-1 6 4 7 1 12 -9 12 -9 0 -14 -4 -10 -10 3 -5 -7 -3 -22 5 -18 10 -31 11 -39
4 -8 -7 -14 -7 -18 0 -4 6 -14 7 -23 4 -10 -4 -14 -2 -10 4 4 6 -2 13 -12 16
-15 4 -18 1 -13 -12 5 -14 3 -14 -11 -2 -9 7 -24 11 -32 7 -9 -3 -14 -2 -11 3
3 5 -1 12 -10 15 -8 3 -13 2 -9 -3 3 -5 -11 -8 -32 -7 -20 1 -38 7 -41 14 -3
9 -8 8 -19 -5 -10 -13 -13 -14 -10 -3 4 12 -6 15 -47 14 -28 -1 -57 3 -63 8
-9 7 -13 7 -13 0 0 -6 -9 -10 -20 -9 -11 1 -20 6 -20 12 0 5 -5 3 -10 -5 -7
-11 -10 -11 -10 -2 0 10 -5 10 -20 2 -12 -6 -20 -7 -20 -1 0 5 -8 8 -17 6 -10
-2 -18 -4 -18 -5 0 -1 -14 -3 -32 -4 -18 -1 -30 1 -27 6 3 4 -2 8 -11 8 -10 0
-13 -5 -9 -12 5 -9 2 -9 -9 1 -9 7 -17 10 -17 6 0 -4 -8 -1 -17 6 -9 8 -14 9
-10 3 4 -7 0 -14 -8 -18 -8 -3 -17 0 -21 6 -5 7 -2 8 6 3 9 -6 11 -4 5 5 -6
10 -10 10 -20 -3 -10 -14 -12 -14 -23 1 -7 9 -10 12 -7 6z m-942 -129 c-3 -9
-8 -14 -10 -11 -3 3 -2 9 2 15 9 16 15 13 8 -4z m2044 -27 c-3 -8 -6 -5 -6 6
-1 11 2 17 5 13 3 -3 4 -12 1 -19z m608 -208 c3 -5 1 -10 -4 -10 -6 0 -11 5
-11 10 0 6 2 10 4 10 3 0 8 -4 11 -10z m2928 -2905 c-3 -9 -8 -14 -10 -11 -3
3 -2 9 2 15 9 16 15 13 8 -4z m7227 -145 c0 -5 -2 -10 -4 -10 -3 0 -8 5 -11
10 -3 6 -1 10 4 10 6 0 11 -4 11 -10z m-8215 -180 c3 -5 1 -10 -4 -10 -6 0
-11 5 -11 10 0 6 2 10 4 10 3 0 8 -4 11 -10z m-11225 -816 c0 -8 -19 -13 -24
-6 -3 5 1 9 9 9 8 0 15 -2 15 -3z m21491 -1401 c13 -16 12 -17 -3 -4 -17 13
-22 21 -14 21 2 0 10 -8 17 -17z m-22786 -693 c3 -5 1 -10 -4 -10 -6 0 -11 5
-11 10 0 6 2 10 4 10 3 0 8 -4 11 -10z m-325 -100 c0 -5 -5 -10 -11 -10 -5 0
-7 5 -4 10 3 6 8 10 11 10 2 0 4 -4 4 -10z m-1710 -1386 c0 -8 -19 -13 -24 -6
-3 5 1 9 9 9 8 0 15 -2 15 -3z m-10 -754 c0 -5 -5 -10 -11 -10 -5 0 -7 5 -4
10 3 6 8 10 11 10 2 0 4 -4 4 -10z m23880 -5 c0 -2 -10 -9 -22 -15 -22 -11
-22 -10 -4 4 21 17 26 19 26 11z m-23880 -365 c0 -5 -5 -10 -11 -10 -5 0 -7 5
-4 10 3 6 8 10 11 10 2 0 4 -4 4 -10z m470 -950 c0 -5 -2 -10 -4 -10 -3 0 -8
5 -11 10 -3 6 -1 10 4 10 6 0 11 -4 11 -10z m21340 -1164 c0 -3 -4 -8 -10 -11
-5 -3 -10 -1 -10 4 0 6 5 11 10 11 6 0 10 -2 10 -4z m-11460 -1486 c0 -5 -5
-10 -11 -10 -5 0 -7 5 -4 10 3 6 8 10 11 10 2 0 4 -4 4 -10z m10450 -1126 c0
-8 -19 -13 -24 -6 -3 5 1 9 9 9 8 0 15 -2 15 -3z m-3225 -254 c-3 -5 -12 -10
-18 -10 -7 0 -6 4 3 10 19 12 23 12 15 0z m2376 -13 c-10 -9 -11 -8 -5 6 3 10
9 15 12 12 3 -3 0 -11 -7 -18z m-3511 -697 c-8 -5 -19 -10 -25 -10 -5 0 -3 5
5 10 8 5 20 10 25 10 6 0 3 -5 -5 -10z"/>
<path d="M8241 22448 c-14 -23 -14 -23 8 -4 22 20 25 26 13 26 -4 0 -13 -10
-21 -22z"/>
<path d="M3365 21009 c-4 -6 -5 -12 -2 -15 2 -3 7 2 10 11 7 17 1 20 -8 4z"/>
<path d="M16020 20550 c-9 -6 -10 -10 -3 -10 6 0 15 5 18 10 8 12 4 12 -15 0z"/>
<path d="M22765 20361 c-3 -5 -2 -12 3 -15 5 -3 9 1 9 9 0 17 -3 19 -12 6z"/>
<path d="M24755 17880 c3 -5 8 -10 11 -10 2 0 4 5 4 10 0 6 -5 10 -11 10 -5 0
-7 -4 -4 -10z"/>
<path d="M1637 16823 c-4 -3 -7 -11 -7 -17 0 -6 5 -5 12 2 6 6 9 14 7 17 -3 3
-9 2 -12 -2z"/>
<path d="M786 16418 c3 -5 10 -6 15 -3 13 9 11 12 -6 12 -8 0 -12 -4 -9 -9z"/>
<path d="M21813 14085 c0 -8 4 -12 9 -9 5 3 6 10 3 15 -9 13 -12 11 -12 -6z"/>
<path d="M10395 11681 c-3 -5 -2 -12 3 -15 5 -3 9 1 9 9 0 17 -3 19 -12 6z"/>
<path d="M7205 10149 c-4 -6 -5 -12 -2 -15 2 -3 7 2 10 11 7 17 1 20 -8 4z"/>
<path d="M5536 9842 c-3 -5 1 -9 9 -9 8 0 12 4 9 9 -3 4 -7 8 -9 8 -2 0 -6 -4
-9 -8z"/>
<path d="M18586 9248 c3 -5 10 -6 15 -3 13 9 11 12 -6 12 -8 0 -12 -4 -9 -9z"/>
<path d="M14110 7971 c0 -7 -5 -9 -12 -5 -7 5 -8 3 -3 -5 5 -9 10 -10 18 -2 6
6 8 14 4 18 -4 3 -7 1 -7 -6z"/>
</g>
</svg>
