<?xml version="1.0" standalone="no"?>
<!DOCTYPE svg PUBLIC "-//W3C//DTD SVG 20010904//EN"
 "http://www.w3.org/TR/2001/REC-SVG-20010904/DTD/svg10.dtd">
<svg version="1.0" xmlns="http://www.w3.org/2000/svg"
 width="2500.000000pt" height="2500.000000pt" viewBox="0 0 2500.000000 2500.000000"
 preserveAspectRatio="xMidYMid meet">

<g transform="translate(0.000000,2500.000000) scale(0.100000,-0.100000)"
fill="#000000" stroke="none">
<path d="M14924 22384 c-107 -18 -232 -58 -324 -104 -59 -30 -6919 -3987
-7155 -4128 -262 -156 -447 -399 -523 -687 -12 -44 -26 -118 -32 -165 -14
-118 -14 -9482 0 -9600 23 -185 88 -364 186 -512 61 -91 209 -240 299 -300
106 -71 7158 -4136 7250 -4179 421 -198 930 -107 1267 225 189 187 306 442
328 721 13 162 13 17514 0 17685 -29 385 -232 714 -557 903 -226 130 -496 182
-739 141z"/>
<path d="M2335 17213 c-467 -55 -814 -177 -1175 -410 -558 -362 -975 -973
-1104 -1618 -54 -269 -51 -124 -51 -2690 0 -2668 -6 -2446 70 -2761 59 -246
139 -446 270 -674 121 -212 229 -352 412 -536 404 -408 970 -677 1543 -734 80
-8 417 -10 1115 -8 983 4 1001 4 1075 25 217 61 389 162 537 316 102 106 146
169 208 299 64 134 93 252 106 438 15 228 7 7334 -9 7411 -7 31 -23 96 -37
145 -118 410 -477 724 -908 794 -57 9 -1976 12 -2052 3z"/>
<path d="M18463 16309 c-62 -4 -131 -14 -155 -22 -24 -8 -74 -25 -112 -36 -69
-22 -228 -100 -288 -142 -160 -113 -303 -281 -387 -452 -32 -67 -69 -156 -81
-197 -12 -41 -25 -86 -30 -100 -29 -82 -29 -431 -1 -510 5 -14 22 -65 37 -115
36 -118 121 -279 202 -385 40 -51 411 -429 925 -940 704 -702 857 -859 851
-875 -4 -10 -422 -433 -929 -939 -506 -507 -949 -955 -983 -996 -69 -84 -171
-278 -197 -375 -9 -33 -23 -85 -32 -115 -23 -79 -24 -431 -1 -510 9 -30 26
-91 38 -135 33 -120 117 -275 208 -382 156 -187 366 -322 618 -399 l116 -35
208 0 207 0 119 35 c130 39 319 129 387 186 24 19 61 48 83 65 50 38 199 184
1127 1107 419 417 769 758 778 758 8 0 283 -267 611 -592 1008 -1003 1061
-1054 1213 -1179 83 -69 266 -169 352 -193 27 -8 82 -24 123 -37 67 -20 95
-22 265 -22 162 0 201 3 265 21 41 12 99 28 129 36 85 24 276 125 349 186 84
70 164 148 229 225 98 116 212 383 235 550 12 85 4 410 -10 445 -6 14 -20 59
-31 100 -31 110 -131 302 -204 390 -34 41 -448 462 -919 935 -471 473 -858
868 -860 877 -2 11 260 279 793 810 488 487 819 824 856 874 178 236 254 462
254 753 0 80 -5 171 -12 201 -6 30 -14 71 -18 90 -7 34 -19 73 -47 155 -36
106 -184 327 -284 423 -74 71 -200 158 -310 212 -68 33 -128 60 -134 60 -6 0
-54 14 -106 31 -92 30 -100 31 -290 32 -161 1 -205 -2 -255 -17 -33 -10 -89
-27 -125 -38 -36 -11 -123 -48 -195 -83 -100 -48 -150 -80 -215 -136 -47 -41
-436 -423 -863 -849 -428 -426 -784 -776 -792 -778 -8 -2 -268 250 -578 560
-651 649 -1150 1142 -1192 1178 -92 77 -130 103 -226 154 -107 56 -259 110
-354 126 -80 13 -241 17 -362 9z"/>
</g>
</svg>
