<?xml version="1.0" standalone="no"?>
<!DOCTYPE svg PUBLIC "-//W3C//DTD SVG 20010904//EN"
 "http://www.w3.org/TR/2001/REC-SVG-20010904/DTD/svg10.dtd">
<svg version="1.0" xmlns="http://www.w3.org/2000/svg"
 width="2500.000000pt" height="2500.000000pt" viewBox="0 0 2500.000000 2500.000000"
 preserveAspectRatio="xMidYMid meet">

<g transform="translate(0.000000,2500.000000) scale(0.100000,-0.100000)"
fill="#000000" stroke="none">
<path d="M11180 24641 c-19 -5 -143 -11 -275 -15 -479 -12 -1023 -75 -1525
-176 -1622 -327 -3151 -1077 -4480 -2199 -478 -404 -986 -917 -1411 -1426
-988 -1181 -1774 -2629 -2276 -4190 -56 -175 -175 -577 -199 -675 -274 -1118
-389 -1921 -436 -3035 -14 -336 -14 -380 0 -790 21 -599 54 -994 123 -1500
354 -2595 1433 -4967 3101 -6821 188 -210 623 -645 821 -823 1310 -1172 2756
-1952 4367 -2356 617 -155 1247 -241 1950 -267 461 -17 936 5 1437 67 90 11
140 13 190 5 615 -86 1456 -100 2118 -34 1803 180 3527 878 5042 2041 668 513
1345 1176 1884 1848 1129 1405 1932 3020 2393 4815 282 1096 421 2192 420
3315 0 563 -21 989 -70 1470 -261 2564 -1224 4940 -2773 6845 -884 1086 -1985
2020 -3141 2662 -1195 665 -2473 1066 -3795 1192 -320 31 -547 38 -1006 33
-462 -5 -625 -14 -981 -58 l-168 -20 -167 20 c-255 31 -522 51 -793 62 -135 5
-261 11 -280 13 -19 3 -51 1 -70 -3z m3180 -846 c1444 -101 2832 -561 4115
-1365 1106 -693 2096 -1639 2909 -2780 833 -1170 1453 -2517 1825 -3970 268
-1049 394 -2082 395 -3250 0 -515 -18 -846 -75 -1370 -175 -1609 -687 -3237
-1450 -4610 -676 -1216 -1544 -2277 -2545 -3112 -1020 -849 -2169 -1467 -3384
-1818 -1136 -328 -2390 -423 -3510 -264 -1310 185 -2443 594 -3555 1283 -1257
780 -2379 1897 -3232 3216 -1027 1589 -1664 3420 -1872 5380 -57 531 -66 724
-66 1355 0 633 10 835 66 1365 205 1957 845 3801 1870 5388 307 474 640 911
1036 1359 173 196 673 694 868 864 876 765 1755 1311 2769 1721 521 210 1129
387 1656 482 448 80 835 123 1330 145 145 7 637 -5 850 -19z m-4900 -174 c0
-6 -60 -42 -132 -82 -404 -218 -578 -320 -809 -471 l-166 -108 -402 0 c-317 0
-402 3 -399 12 10 28 525 244 860 362 289 101 460 153 753 227 290 73 295 74
295 60z m-2190 -1485 c0 -2 -93 -90 -207 -194 -303 -277 -639 -622 -886 -909
l-139 -163 -694 0 c-382 0 -694 3 -694 6 0 25 387 403 650 634 168 147 386
324 598 482 l197 148 588 0 c323 0 587 -2 587 -4z m-1876 -2094 c3 -5 -29 -58
-71 -118 -260 -373 -533 -835 -803 -1357 l-112 -217 -783 0 c-482 0 -786 4
-790 9 -7 12 129 261 288 526 206 344 444 697 695 1028 l104 137 733 0 c404 0
736 -4 739 -8z m-1357 -2534 c-2 -13 -36 -104 -75 -203 -86 -222 -192 -530
-281 -820 l-68 -220 -827 -3 c-454 -1 -826 1 -826 4 0 14 137 422 200 594 69
188 188 490 240 606 l29 64 807 0 806 0 -5 -22z m-637 -2082 c0 -8 -11 -65
-24 -128 -60 -276 -152 -822 -181 -1070 l-6 -58 -840 0 c-461 0 -839 3 -839 8
0 4 16 115 35 247 42 295 91 571 144 819 23 103 41 190 41 192 0 2 376 4 835
4 715 0 835 -2 835 -14z m-294 -2188 c-5 -77 -19 -1076 -16 -1155 0 -10 -174
-13 -839 -13 l-839 0 -8 118 c-13 171 -10 588 5 890 l14 262 845 0 845 0 -7
-102z m38 -2010 c3 -13 10 -75 16 -138 21 -223 71 -598 113 -848 24 -139 41
-255 38 -257 -2 -3 -377 -5 -832 -5 -780 0 -828 1 -833 18 -16 56 -95 525
-125 744 -17 120 -61 484 -61 503 0 3 378 5 840 5 l840 0 4 -22z m365 -2105
c5 -21 17 -67 26 -103 39 -157 154 -539 246 -816 54 -165 99 -306 99 -312 0
-9 -195 -12 -811 -10 l-812 3 -44 115 c-126 330 -363 1076 -363 1142 0 17 42
18 825 18 l824 0 10 -37z m748 -2140 c261 -569 552 -1113 814 -1522 27 -41 46
-78 43 -83 -3 -4 -344 -8 -758 -8 l-753 0 -130 193 c-221 327 -367 566 -570
937 -84 153 -283 543 -283 555 0 3 360 5 801 5 l800 0 36 -77z m1512 -2520
c207 -274 474 -581 843 -965 110 -114 197 -212 193 -218 -4 -7 -217 -10 -632
-10 l-625 0 -112 94 c-314 266 -617 553 -870 824 -170 183 -316 348 -316 357
0 3 327 5 728 5 l727 -1 64 -86z m2149 -2116 c405 -305 816 -565 1337 -847
198 -106 213 -116 202 -126 -8 -8 -205 36 -436 98 -722 193 -1419 483 -2138
888 -73 41 -133 78 -133 83 0 4 232 7 515 7 l516 0 137 -103z"/>
<path d="M13597 21896 c-124 -51 -203 -139 -242 -269 -38 -127 0 -282 94 -384
39 -43 131 -101 189 -119 33 -11 125 -18 312 -24 146 -5 348 -16 449 -26 211
-20 265 -14 364 39 145 77 238 262 210 416 -14 71 -54 158 -99 209 -35 41
-122 97 -185 118 -86 30 -537 64 -839 64 -182 0 -199 -2 -253 -24z"/>
<path d="M11210 21465 c-115 -28 -508 -194 -764 -322 -154 -77 -221 -135 -269
-232 -30 -62 -32 -72 -32 -176 0 -104 2 -114 32 -176 59 -120 182 -211 311
-229 102 -14 158 1 350 93 163 79 385 175 590 256 102 41 159 84 207 157 85
128 99 281 36 408 -58 118 -168 201 -300 226 -67 13 -92 12 -161 -5z"/>
<path d="M16847 21149 c-121 -28 -245 -135 -287 -246 -34 -89 -37 -185 -11
-269 44 -136 107 -197 317 -308 184 -98 299 -164 480 -276 163 -102 212 -121
309 -121 207 0 374 145 406 354 19 121 -22 246 -111 337 -102 105 -794 498
-930 529 -54 12 -121 12 -173 0z"/>
<path d="M8425 19656 c-83 -26 -124 -58 -265 -203 -139 -142 -362 -391 -465
-518 -100 -124 -133 -248 -101 -374 34 -132 111 -226 233 -283 119 -56 254
-49 368 18 57 34 71 47 165 159 112 133 250 285 386 426 125 129 166 187 189
267 21 70 20 184 0 242 -24 69 -92 163 -145 199 -84 57 -155 81 -245 80 -44 0
-98 -6 -120 -13z"/>
<path d="M19363 19061 c-105 -39 -181 -108 -230 -211 -21 -44 -28 -74 -31
-147 -7 -156 7 -185 226 -464 62 -79 152 -200 200 -267 188 -267 219 -299 332
-344 75 -30 201 -30 280 0 220 86 329 340 232 545 -62 134 -502 724 -603 810
-78 68 -140 90 -254 94 -80 3 -110 -1 -152 -16z"/>
<path d="M12526 17981 c-3 -4 -56 -11 -118 -14 -439 -21 -938 -257 -1235 -584
-312 -343 -474 -709 -513 -1157 -12 -139 -7 -259 16 -430 8 -59 14 -110 12
-111 -2 -2 -37 3 -78 11 -109 21 -395 29 -520 15 -411 -47 -799 -227 -1105
-512 -131 -122 -287 -334 -375 -509 -98 -195 -166 -416 -191 -615 -15 -131
-13 -382 6 -507 33 -223 118 -471 228 -665 85 -151 268 -388 293 -379 5 2 10
-10 10 -29 0 -21 -4 -31 -12 -28 -21 8 -176 -184 -258 -319 -159 -262 -259
-575 -275 -867 -33 -604 195 -1155 639 -1541 424 -368 998 -534 1539 -445 52
9 96 14 98 11 2 -2 -3 -53 -13 -112 -22 -148 -23 -426 0 -559 69 -413 234
-745 516 -1038 378 -395 910 -600 1467 -566 328 19 644 121 908 293 121 79
285 214 285 236 0 13 5 17 20 13 11 -3 27 0 35 7 17 14 21 0 5 -16 -24 -24
267 -242 439 -329 240 -120 490 -188 752 -204 538 -33 1046 152 1422 518 309
300 499 676 563 1111 19 133 16 430 -7 562 -7 43 -10 80 -7 83 2 3 48 -1 100
-9 313 -47 602 -22 906 80 465 155 849 491 1075 940 142 281 206 583 193 909
-16 425 -162 810 -432 1145 -38 47 -78 89 -90 94 -14 6 -20 19 -21 43 -1 26 2
31 11 23 13 -10 42 20 137 140 209 266 350 618 388 972 30 271 3 519 -86 792
-129 393 -406 753 -753 978 -248 161 -536 265 -830 299 -129 14 -415 6 -519
-15 -41 -9 -77 -14 -79 -11 -3 3 1 46 9 97 21 140 18 496 -5 623 -145 796
-746 1397 -1533 1536 -165 29 -463 32 -618 6 -274 -47 -547 -156 -769 -307
-125 -85 -246 -186 -246 -205 0 -30 -37 -14 -95 41 -217 204 -527 369 -840
448 -92 23 -257 46 -334 46 -39 0 -73 5 -76 10 -8 12 -32 13 -39 1z m175 -642
c231 -30 439 -116 621 -256 32 -24 130 -114 218 -199 187 -181 227 -206 340
-206 115 0 153 24 353 219 297 289 505 400 830 443 491 64 987 -192 1251 -645
178 -306 210 -691 86 -1049 -29 -86 -108 -231 -175 -322 -38 -53 -440 -462
-1201 -1224 l-1144 -1145 -1153 1155 c-857 858 -1167 1176 -1210 1236 -63 90
-142 244 -176 343 -82 241 -77 575 14 816 209 555 777 908 1346 834z m-2296
-2249 c60 -6 141 -18 180 -27 155 -35 335 -120 470 -221 70 -52 2355 -2331
2355 -2349 0 -19 -2312 -2310 -2385 -2363 -73 -54 -235 -136 -330 -168 -129
-44 -222 -57 -395 -57 -184 0 -285 16 -425 67 -365 133 -674 452 -788 814 -41
130 -58 238 -58 379 0 215 41 388 134 569 70 138 138 225 326 420 191 197 206
222 206 341 0 123 -20 156 -223 366 -168 174 -253 282 -314 402 -44 88 -96
245 -113 346 -20 112 -20 322 0 436 96 548 579 995 1128 1044 51 5 99 9 107
10 8 0 64 -4 125 -9z m7261 -11 c473 -70 906 -467 1023 -938 90 -358 28 -714
-177 -1026 -26 -38 -128 -153 -227 -255 -159 -164 -183 -193 -204 -247 -30
-79 -27 -183 9 -253 12 -25 93 -118 179 -208 190 -199 229 -246 285 -342 157
-274 211 -588 151 -885 -87 -434 -403 -800 -821 -953 -138 -51 -240 -67 -424
-67 -232 0 -354 28 -553 125 -194 96 -187 90 -1410 1310 -631 630 -1146 1150
-1145 1157 2 6 511 521 1131 1143 743 745 1156 1152 1209 1191 158 117 278
176 461 224 158 42 336 51 513 24z m-2625 -4206 c1050 -1053 1161 -1167 1222
-1258 102 -155 163 -304 193 -476 20 -112 22 -312 5 -424 -70 -444 -408 -851
-831 -997 -340 -117 -703 -91 -1009 73 -129 69 -222 143 -371 293 -80 81 -167
162 -195 180 -95 63 -204 71 -311 22 -42 -20 -96 -66 -232 -199 -223 -218
-365 -314 -552 -375 -586 -191 -1200 45 -1514 583 -174 298 -213 679 -105
1010 32 97 117 261 181 348 41 56 425 447 1207 1230 630 631 1148 1147 1151
1147 3 0 525 -521 1161 -1157z"/>
<path d="M6632 16930 c-116 -17 -240 -107 -296 -215 -69 -137 -295 -722 -334
-865 -35 -133 16 -301 120 -395 159 -144 375 -147 545 -8 64 53 94 110 178
338 42 116 115 304 162 418 96 237 110 297 94 389 -39 221 -245 370 -469 338z"/>
<path d="M21038 16189 c-124 -18 -240 -106 -301 -229 -30 -61 -32 -71 -32
-170 1 -102 3 -111 72 -325 39 -121 85 -272 103 -335 17 -63 43 -155 56 -205
29 -106 72 -182 133 -236 93 -82 228 -122 338 -100 165 32 287 145 329 305 20
73 17 127 -11 244 -58 239 -218 758 -257 836 -32 64 -112 141 -181 174 -56 27
-150 54 -180 51 -7 -1 -38 -5 -69 -10z"/>
<path d="M5831 13719 c-143 -24 -260 -122 -313 -263 -15 -38 -23 -102 -33
-261 -21 -320 -28 -710 -16 -775 30 -151 136 -269 286 -317 54 -18 181 -18
231 0 153 55 257 173 283 322 10 62 36 675 36 870 0 91 -4 121 -23 172 -47
123 -176 228 -311 253 -60 11 -65 11 -140 -1z"/>
<path d="M21524 12900 c-135 -48 -228 -149 -267 -290 -16 -56 -42 -617 -42
-890 0 -121 1 -128 32 -190 81 -165 215 -247 392 -238 166 8 306 114 363 277
25 74 46 383 50 751 3 245 1 281 -15 327 -25 72 -94 162 -153 201 -102 68
-254 90 -360 52z"/>
<path d="M6040 10410 c-172 -64 -273 -203 -273 -380 -1 -73 7 -114 56 -295 80
-290 183 -618 219 -692 37 -75 102 -139 189 -185 61 -31 69 -33 169 -33 97 0
110 2 170 31 95 46 153 101 197 192 37 74 38 79 38 181 -1 101 -3 114 -58 281
-32 96 -87 281 -123 410 -35 129 -76 259 -91 288 -38 76 -107 143 -187 182
-60 30 -80 35 -160 37 -72 3 -102 -1 -146 -17z"/>
<path d="M21034 9660 c-71 -14 -137 -52 -201 -115 -69 -70 -69 -69 -168 -340
-40 -110 -103 -274 -140 -365 -97 -238 -106 -266 -106 -346 -2 -242 184 -423
424 -412 132 6 253 74 322 182 38 60 169 380 281 686 78 215 78 215 78 315 0
89 -3 106 -27 157 -90 186 -267 276 -463 238z"/>
<path d="M7420 7403 c-8 -3 -39 -14 -68 -25 -103 -38 -198 -139 -235 -252 -23
-68 -22 -179 3 -250 32 -95 231 -381 501 -721 123 -155 197 -207 317 -223 184
-25 350 64 433 233 32 65 34 76 34 170 0 92 -3 105 -32 165 -18 36 -87 135
-154 220 -66 85 -180 238 -252 340 -182 255 -231 301 -362 336 -50 14 -157 17
-185 7z"/>
<path d="M19437 6760 c-96 -25 -159 -70 -261 -191 -123 -145 -270 -310 -406
-454 -89 -95 -131 -147 -152 -192 -141 -298 98 -623 427 -581 87 12 157 52
257 147 188 178 553 602 599 696 44 90 56 178 35 262 -31 128 -107 223 -223
280 -64 32 -85 37 -156 39 -45 2 -99 -1 -120 -6z"/>
<path d="M9743 5065 c-193 -54 -306 -204 -305 -405 1 -130 58 -238 168 -319
145 -106 459 -292 712 -421 136 -69 197 -83 305 -68 262 35 422 333 308 571
-54 112 -108 160 -273 243 -103 51 -331 183 -473 272 -172 108 -229 133 -317
138 -46 2 -92 -1 -125 -11z"/>
<path d="M16905 4673 c-16 -2 -109 -42 -205 -88 -189 -89 -405 -184 -538 -235
-165 -63 -246 -128 -300 -241 -137 -287 104 -619 419 -577 98 13 422 147 764
316 157 78 198 103 237 144 88 92 131 226 110 339 -25 136 -106 245 -226 305
-62 30 -86 36 -152 39 -44 2 -92 1 -109 -2z"/>
<path d="M12836 3929 c-98 -23 -204 -99 -254 -182 -111 -184 -61 -427 113
-547 71 -49 139 -70 278 -85 293 -31 794 -52 876 -36 156 31 263 123 311 266
53 158 10 320 -113 431 -109 98 -158 110 -517 124 -157 6 -343 17 -415 25
-146 16 -222 17 -279 4z"/>
</g>
</svg>
