<?xml version="1.0" standalone="no"?>
<!DOCTYPE svg PUBLIC "-//W3C//DTD SVG 20010904//EN"
 "http://www.w3.org/TR/2001/REC-SVG-20010904/DTD/svg10.dtd">
<svg version="1.0" xmlns="http://www.w3.org/2000/svg"
 width="2500.000000pt" height="2500.000000pt" viewBox="0 0 2500.000000 2500.000000"
 preserveAspectRatio="xMidYMid meet">

<g transform="translate(0.000000,2500.000000) scale(0.100000,-0.100000)"
fill="#000000" stroke="none">
<path d="M14924 22384 c-107 -18 -232 -58 -324 -104 -59 -30 -6919 -3987
-7155 -4128 -262 -156 -447 -399 -523 -687 -12 -44 -26 -118 -32 -165 -14
-118 -14 -9482 0 -9600 23 -185 88 -364 186 -512 61 -91 209 -240 299 -300
106 -71 7158 -4136 7250 -4179 421 -198 930 -107 1267 225 189 187 306 442
328 721 13 162 13 17514 0 17685 -29 385 -232 714 -557 903 -226 130 -496 182
-739 141z"/>
<path d="M19008 19239 c-253 -37 -482 -172 -635 -373 -60 -79 -136 -239 -165
-346 -18 -70 -22 -110 -22 -230 1 -126 4 -158 28 -245 48 -176 135 -324 262
-446 83 -78 132 -113 240 -167 99 -50 142 -62 364 -107 690 -139 1279 -382
1840 -758 311 -209 730 -584 975 -872 1108 -1303 1464 -3063 948 -4685 -140
-443 -331 -837 -598 -1240 -403 -606 -984 -1151 -1620 -1520 -135 -78 -494
-252 -630 -306 -310 -121 -578 -198 -960 -274 -180 -36 -275 -69 -385 -134
-468 -276 -611 -907 -307 -1350 140 -203 324 -333 565 -398 102 -27 316 -30
447 -4 639 122 1175 292 1717 546 997 466 1897 1197 2551 2072 810 1084 1272
2340 1358 3698 15 237 6 796 -16 1025 -96 1000 -389 1921 -884 2787 -428 749
-1011 1420 -1701 1959 -853 667 -1818 1112 -2870 1323 -276 55 -374 64 -502
45z"/>
<path d="M2335 17213 c-467 -55 -814 -177 -1175 -410 -558 -362 -975 -973
-1104 -1618 -54 -269 -51 -124 -51 -2690 0 -2668 -6 -2446 70 -2761 59 -246
139 -446 270 -674 121 -212 229 -352 412 -536 404 -408 970 -677 1543 -734 80
-8 417 -10 1115 -8 983 4 1001 4 1075 25 217 61 389 162 537 316 102 106 146
169 208 299 64 134 93 252 106 438 15 228 7 7334 -9 7411 -7 31 -23 96 -37
145 -118 410 -477 724 -908 794 -57 9 -1976 12 -2052 3z"/>
<path d="M18846 16019 c-49 -12 -161 -70 -208 -109 -42 -35 -117 -145 -143
-210 -23 -60 -31 -211 -15 -281 32 -134 136 -268 258 -332 51 -27 105 -43 222
-67 182 -37 431 -117 583 -189 782 -366 1331 -1098 1462 -1951 26 -165 31
-496 11 -670 -38 -328 -113 -575 -267 -882 -195 -390 -519 -747 -897 -992
-263 -170 -530 -277 -899 -360 -191 -44 -250 -71 -333 -155 -106 -107 -150
-210 -150 -351 0 -144 45 -254 145 -356 146 -148 315 -176 620 -105 288 66
522 150 790 281 346 169 628 368 913 644 551 535 913 1225 1036 1976 35 215
46 352 46 585 0 425 -52 744 -184 1140 -159 476 -368 836 -717 1241 -352 407
-893 780 -1404 968 -55 20 -117 43 -137 51 -54 21 -368 101 -467 119 -91 17
-204 19 -265 5z"/>
</g>
</svg>
